<?xml version="1.0" standalone="no"?>
<!DOCTYPE svg PUBLIC "-//W3C//DTD SVG 1.1//EN" "http://www.w3.org/Graphics/SVG/1.1/DTD/svg11.dtd" >
<svg>
<metadata>
Created by FontForge 20090622 at Fri Jul 13 13:26:32 2018
 By deploy user
&#194;&#169; 2015-2017 Apple Inc. All rights reserved.
</metadata>
<defs>
<font id="SFCompactText-Regular" horiz-adv-x="1800" >
  <font-face 
    font-family="SF Compact Text"
    font-weight="400"
    font-stretch="normal"
    units-per-em="2048"
    panose-1="2 1 6 4 3 2 2 6 2 4"
    ascent="1638"
    descent="-410"
    x-height="1052"
    cap-height="1365"
    bbox="-493 -495.429 2434 2081"
    underline-thickness="96"
    underline-position="-104"
    unicode-range="U+0020-U+1F189"
  />
<missing-glyph horiz-adv-x="2048" 
d="M100 -494v277h1848v-277h-1848zM100 -61v278h1848v-278h-1848zM100 373v277h1848v-277h-1848zM100 806v277h1848v-277h-1848zM100 1239v278h1848v-278h-1848zM100 1673v277h1848v-277h-1848z" />
    <glyph glyph-name="uni2460" unicode="&#x31;&#x25cb;" 
d="M997 367h-135v526h-7l-155 -105v121l162 111h135v-653zM900 71q164 0 304 82.5t221 223.5t81 307t-81 307t-221 223.5t-304 82.5t-304 -82.5t-221 -223.5t-81 -307t81 -307t221 -223.5t304 -82.5zM900 -50q-199 0 -368 98.5t-267.5 267.5t-98.5 368t98.5 368t267.5 267.5
t368 98.5t368 -98.5t267.5 -267.5t98.5 -368t-98.5 -368t-267.5 -267.5t-368 -98.5z" />
    <glyph glyph-name="uni2461" unicode="&#x32;&#x25cb;" 
d="M795 824h-128v5q0 84 61.5 143.5t172.5 59.5q104 0 168 -52t64 -132q0 -30 -8.5 -57t-29 -55t-35.5 -44.5l-47 -49.5l-154 -161v-6h286v-108h-472v82l250 256q25 25 38 40.5t25.5 41t12.5 50.5q0 39 -28.5 64t-72.5 25q-48 0 -75.5 -28t-27.5 -69v-5zM900 71
q164 0 304 82.5t221 223.5t81 307t-81 307t-221 223.5t-304 82.5t-304 -82.5t-221 -223.5t-81 -307t81 -307t221 -223.5t304 -82.5zM900 -50q-199 0 -368 98.5t-267.5 267.5t-98.5 368t98.5 368t267.5 267.5t368 98.5t368 -98.5t267.5 -267.5t98.5 -368t-98.5 -368
t-267.5 -267.5t-368 -98.5z" />
    <glyph glyph-name="uni2462" unicode="&#x33;&#x25cb;" 
d="M826 651v103h71q46 0 75.5 25.5t29.5 64.5q-1 38 -30 62t-75 24t-75.5 -24t-31.5 -57h-126q2 80 64.5 131.5t171.5 51.5q105 0 169 -47.5t66 -122.5q1 -61 -40 -101.5t-87 -47.5v-7q55 -5 100.5 -45.5t46.5 -110.5q1 -89 -72.5 -142.5t-186.5 -53.5q-111 0 -177 53
t-68 132h124q4 -35 37.5 -58t84.5 -24q56 0 90 27.5t34 70.5q-1 43 -34 69.5t-87 26.5h-74zM900 71q164 0 304 82.5t221 223.5t81 307t-81 307t-221 223.5t-304 82.5t-304 -82.5t-221 -223.5t-81 -307t81 -307t221 -223.5t304 -82.5zM900 -50q-199 0 -368 98.5t-267.5 267.5
t-98.5 368t98.5 368t267.5 267.5t368 98.5t368 -98.5t267.5 -267.5t98.5 -368t-98.5 -368t-267.5 -267.5t-368 -98.5z" />
    <glyph glyph-name="uni2463" unicode="&#x34;&#x25cb;" 
d="M866 1020h193v-426h86v-106h-86v-121h-124v121h-331v107l65 112l58 95l74.5 117zM727 594h208v326h-8q-140 -215 -200 -323v-3zM900 71q164 0 304 82.5t221 223.5t81 307t-81 307t-221 223.5t-304 82.5t-304 -82.5t-221 -223.5t-81 -307t81 -307t221 -223.5t304 -82.5z
M900 -50q-199 0 -368 98.5t-267.5 267.5t-98.5 368t98.5 368t267.5 267.5t368 98.5t368 -98.5t267.5 -267.5t98.5 -368t-98.5 -368t-267.5 -267.5t-368 -98.5z" />
    <glyph glyph-name="uni2464" unicode="&#x35;&#x25cb;" 
d="M663 537h126q7 -38 41 -58t78 -20q50 0 86.5 34t36.5 91q0 51 -35.5 83.5t-87.5 32.5q-41 0 -70 -18t-42 -42h-119l29 381h419v-104h-312l-15 -175h7q14 21 50.5 39t88.5 18q93 0 156 -57.5t63 -154.5q0 -104 -71 -168t-187 -64q-104 0 -171 51.5t-71 130.5zM900 71
q164 0 304 82.5t221 223.5t81 307t-81 307t-221 223.5t-304 82.5t-304 -82.5t-221 -223.5t-81 -307t81 -307t221 -223.5t304 -82.5zM900 -50q-199 0 -368 98.5t-267.5 267.5t-98.5 368t98.5 368t267.5 267.5t368 98.5t368 -98.5t267.5 -267.5t98.5 -368t-98.5 -368
t-267.5 -267.5t-368 -98.5z" />
    <glyph glyph-name="uni2465" unicode="&#x36;&#x25cb;" 
d="M1150 585q0 -103 -69 -167t-180 -64q-113 0 -182.5 66t-69.5 172q0 112 94 244q8 13 66 91.5t70 92.5h156q-13 -13 -87 -107.5t-93 -120.5l-12 -18.5l-11 -17.5l8 -2q41 41 110 41q87 0 143.5 -59.5t56.5 -150.5zM778 580q0 -51 34.5 -85.5t86.5 -34.5t86.5 34.5
t34.5 85.5t-34.5 85.5t-86.5 34.5t-86.5 -34.5t-34.5 -85.5zM900 71q164 0 304 82.5t221 223.5t81 307t-81 307t-221 223.5t-304 82.5t-304 -82.5t-221 -223.5t-81 -307t81 -307t221 -223.5t304 -82.5zM900 -50q-199 0 -368 98.5t-267.5 267.5t-98.5 368t98.5 368
t267.5 267.5t368 98.5t368 -98.5t267.5 -267.5t98.5 -368t-98.5 -368t-267.5 -267.5t-368 -98.5z" />
    <glyph glyph-name="uni2466" unicode="&#x37;&#x25cb;" 
d="M680 1011h472v-110l-275 -543h-143l281 540v5h-335v108zM900 71q164 0 304 82.5t221 223.5t81 307t-81 307t-221 223.5t-304 82.5t-304 -82.5t-221 -223.5t-81 -307t81 -307t221 -223.5t304 -82.5zM900 -50q-199 0 -368 98.5t-267.5 267.5t-98.5 368t98.5 368
t267.5 267.5t368 98.5t368 -98.5t267.5 -267.5t98.5 -368t-98.5 -368t-267.5 -267.5t-368 -98.5z" />
    <glyph glyph-name="uni2467" unicode="&#x38;&#x25cb;" 
d="M900 449q56 0 92.5 30t36.5 76q0 47 -36.5 77t-92.5 30t-93 -30.5t-37 -76.5t37 -76t93 -30zM900 752q47 0 77 26t30 67q0 40 -30 65.5t-77 25.5t-77 -25.5t-30 -65.5q0 -41 30 -67t77 -26zM898 354q-119 0 -191 53t-72 140q0 60 39.5 104.5t103.5 57.5v5
q-55 17 -85.5 55t-30.5 90q0 76 66.5 124.5t171.5 48.5t171.5 -48.5t66.5 -124.5q0 -52 -31 -90.5t-85 -54.5v-5q64 -13 103.5 -57t39.5 -104q0 -87 -74 -140.5t-193 -53.5zM900 71q164 0 304 82.5t221 223.5t81 307t-81 307t-221 223.5t-304 82.5t-304 -82.5t-221 -223.5
t-81 -307t81 -307t221 -223.5t304 -82.5zM900 -50q-199 0 -368 98.5t-267.5 267.5t-98.5 368t98.5 368t267.5 267.5t368 98.5t368 -98.5t267.5 -267.5t98.5 -368t-98.5 -368t-267.5 -267.5t-368 -98.5z" />
    <glyph glyph-name="uni2468" unicode="&#x39;&#x25cb;" 
d="M652 802q0 103 68.5 166.5t179.5 63.5q113 0 182.5 -65t69.5 -172q0 -112 -92 -241q-7 -13 -65.5 -92.5t-72.5 -94.5h-155q13 13 86.5 107.5l93.5 121.5q10 15 22 35l-8 2q-38 -40 -110 -40q-86 0 -142.5 59.5t-56.5 149.5zM1023 806q0 52 -34.5 85.5t-86.5 33.5
q-53 0 -87 -33.5t-34 -85.5q0 -51 34.5 -84.5t86.5 -33.5t86.5 33.5t34.5 84.5zM900 71q164 0 304 82.5t221 223.5t81 307t-81 307t-221 223.5t-304 82.5t-304 -82.5t-221 -223.5t-81 -307t81 -307t221 -223.5t304 -82.5zM900 -50q-199 0 -368 98.5t-267.5 267.5t-98.5 368
t98.5 368t267.5 267.5t368 98.5t368 -98.5t267.5 -267.5t98.5 -368t-98.5 -368t-267.5 -267.5t-368 -98.5z" />
    <glyph glyph-name="uni24B6" unicode="A&#x25cb;" 
d="M810 652h180l-85 262h-10zM728 388h-136l230 653h156l230 -653h-136l-54 165h-236zM900 71q164 0 304 82.5t221 223.5t81 307t-81 307t-221 223.5t-304 82.5t-304 -82.5t-221 -223.5t-81 -307t81 -307t221 -223.5t304 -82.5zM900 -50q-199 0 -368 98.5t-267.5 267.5
t-98.5 368t98.5 368t267.5 267.5t368 98.5t368 -98.5t267.5 -267.5t98.5 -368t-98.5 -368t-267.5 -267.5t-368 -98.5z" />
    <glyph glyph-name="uni24B7" unicode="B&#x25cb;" 
d="M672 367v653h287q92 0 146 -43t54 -118q0 -56 -31.5 -93t-85.5 -50v-5q67 -8 109.5 -50t42.5 -111q0 -84 -65 -133.5t-171 -49.5h-286zM804 923v-175h90q134 0 134 89q0 40 -27 63t-75 23h-122zM804 659v-193h101q80 0 116 23t36 70t-31.5 73.5t-90.5 26.5h-131zM900 71
q164 0 304 82.5t221 223.5t81 307t-81 307t-221 223.5t-304 82.5t-304 -82.5t-221 -223.5t-81 -307t81 -307t221 -223.5t304 -82.5zM900 -50q-199 0 -368 98.5t-267.5 267.5t-98.5 368t98.5 368t267.5 267.5t368 98.5t368 -98.5t267.5 -267.5t98.5 -368t-98.5 -368
t-267.5 -267.5t-368 -98.5z" />
    <glyph glyph-name="uni24B8" unicode="C&#x25cb;" 
d="M766 732v-80q0 -89 39 -137.5t110 -48.5q62 0 99 34t37 89h131v-11q0 -98 -75.5 -161t-192.5 -63q-137 0 -211.5 78.5t-74.5 219.5v81q0 140 75.5 219.5t210.5 79.5q117 0 192.5 -64.5t75.5 -165.5v-11h-131q0 57 -37.5 93.5t-98.5 36.5q-71 0 -110 -49.5t-39 -139.5z
M900 71q164 0 304 82.5t221 223.5t81 307t-81 307t-221 223.5t-304 82.5t-304 -82.5t-221 -223.5t-81 -307t81 -307t221 -223.5t304 -82.5zM900 -50q-199 0 -368 98.5t-267.5 267.5t-98.5 368t98.5 368t267.5 267.5t368 98.5t368 -98.5t267.5 -267.5t98.5 -368t-98.5 -368
t-267.5 -267.5t-368 -98.5z" />
    <glyph glyph-name="uni24B9" unicode="D&#x25cb;" 
d="M667 1020h250q152 0 228.5 -83.5t76.5 -241.5q0 -159 -77 -243.5t-228 -84.5h-250v653zM801 913v-439h98q94 0 139 54t45 165t-45 165.5t-139 54.5h-98zM900 71q164 0 304 82.5t221 223.5t81 307t-81 307t-221 223.5t-304 82.5t-304 -82.5t-221 -223.5t-81 -307t81 -307
t221 -223.5t304 -82.5zM900 -50q-199 0 -368 98.5t-267.5 267.5t-98.5 368t98.5 368t267.5 267.5t368 98.5t368 -98.5t267.5 -267.5t98.5 -368t-98.5 -368t-267.5 -267.5t-368 -98.5z" />
    <glyph glyph-name="uni24BA" unicode="E&#x25cb;" 
d="M1126 474v-107h-439v653h439v-107h-306v-166h288v-99h-288v-174h306zM900 71q164 0 304 82.5t221 223.5t81 307t-81 307t-221 223.5t-304 82.5t-304 -82.5t-221 -223.5t-81 -307t81 -307t221 -223.5t304 -82.5zM900 -50q-199 0 -368 98.5t-267.5 267.5t-98.5 368
t98.5 368t267.5 267.5t368 98.5t368 -98.5t267.5 -267.5t98.5 -368t-98.5 -368t-267.5 -267.5t-368 -98.5z" />
    <glyph glyph-name="uni24BB" unicode="F&#x25cb;" 
d="M850 367h-135v653h435v-108h-300v-179h274v-107h-274v-259zM900 71q164 0 304 82.5t221 223.5t81 307t-81 307t-221 223.5t-304 82.5t-304 -82.5t-221 -223.5t-81 -307t81 -307t221 -223.5t304 -82.5zM900 -50q-199 0 -368 98.5t-267.5 267.5t-98.5 368t98.5 368
t267.5 267.5t368 98.5t368 -98.5t267.5 -267.5t98.5 -368t-98.5 -368t-267.5 -267.5t-368 -98.5z" />
    <glyph glyph-name="uni24BC" unicode="G&#x25cb;" 
d="M1181 811h-131q-8 51 -45.5 81.5t-95.5 30.5q-74 0 -114.5 -49.5t-40.5 -138.5v-83q0 -89 40.5 -139.5t118.5 -50.5q67 0 103.5 32.5t37.5 84.5v43h-145v97h273v-129q0 -103 -70.5 -169.5t-199.5 -66.5q-141 0 -217 80.5t-76 219.5v83q0 135 77.5 215t214.5 80
q119 0 192.5 -62.5t77.5 -158.5zM900 71q164 0 304 82.5t221 223.5t81 307t-81 307t-221 223.5t-304 82.5t-304 -82.5t-221 -223.5t-81 -307t81 -307t221 -223.5t304 -82.5zM900 -50q-199 0 -368 98.5t-267.5 267.5t-98.5 368t98.5 368t267.5 267.5t368 98.5t368 -98.5
t267.5 -267.5t98.5 -368t-98.5 -368t-267.5 -267.5t-368 -98.5z" />
    <glyph glyph-name="uni24BD" unicode="H&#x25cb;" 
d="M1178 367h-133v279h-289v-279h-133v653h133v-265h289v265h133v-653zM900 71q164 0 304 82.5t221 223.5t81 307t-81 307t-221 223.5t-304 82.5t-304 -82.5t-221 -223.5t-81 -307t81 -307t221 -223.5t304 -82.5zM900 -50q-199 0 -368 98.5t-267.5 267.5t-98.5 368t98.5 368
t267.5 267.5t368 98.5t368 -98.5t267.5 -267.5t98.5 -368t-98.5 -368t-267.5 -267.5t-368 -98.5z" />
    <glyph glyph-name="uni24BE" unicode="I&#x25cb;" 
d="M970 367h-140v653h140v-653zM900 71q164 0 304 82.5t221 223.5t81 307t-81 307t-221 223.5t-304 82.5t-304 -82.5t-221 -223.5t-81 -307t81 -307t221 -223.5t304 -82.5zM900 -50q-199 0 -368 98.5t-267.5 267.5t-98.5 368t98.5 368t267.5 267.5t368 98.5t368 -98.5
t267.5 -267.5t98.5 -368t-98.5 -368t-267.5 -267.5t-368 -98.5z" />
    <glyph glyph-name="uni24BF" unicode="J&#x25cb;" 
d="M643 553h131q1 -38 25.5 -61t63.5 -23q95 0 95 104v445h136v-443q0 -107 -60.5 -165t-168.5 -58q-104 0 -163 56.5t-59 144.5zM900 71q164 0 304 82.5t221 223.5t81 307t-81 307t-221 223.5t-304 82.5t-304 -82.5t-221 -223.5t-81 -307t81 -307t221 -223.5t304 -82.5z
M900 -50q-199 0 -368 98.5t-267.5 267.5t-98.5 368t98.5 368t267.5 267.5t368 98.5t368 -98.5t267.5 -267.5t98.5 -368t-98.5 -368t-267.5 -267.5t-368 -98.5z" />
    <glyph glyph-name="uni24C0" unicode="K&#x25cb;" 
d="M1202 1020l-242 -283l252 -370h-161l-190 283l-71 -77v-206h-133v653h133v-291h6l257 291h149zM900 71q164 0 304 82.5t221 223.5t81 307t-81 307t-221 223.5t-304 82.5t-304 -82.5t-221 -223.5t-81 -307t81 -307t221 -223.5t304 -82.5zM900 -50q-199 0 -368 98.5
t-267.5 267.5t-98.5 368t98.5 368t267.5 267.5t368 98.5t368 -98.5t267.5 -267.5t98.5 -368t-98.5 -368t-267.5 -267.5t-368 -98.5z" />
    <glyph glyph-name="uni24C1" unicode="L&#x25cb;" 
d="M1157 482v-113h-427v653h136v-540h291zM900 71q164 0 304 82.5t221 223.5t81 307t-81 307t-221 223.5t-304 82.5t-304 -82.5t-221 -223.5t-81 -307t81 -307t221 -223.5t304 -82.5zM900 -50q-199 0 -368 98.5t-267.5 267.5t-98.5 368t98.5 368t267.5 267.5t368 98.5
t368 -98.5t267.5 -267.5t98.5 -368t-98.5 -368t-267.5 -267.5t-368 -98.5z" />
    <glyph glyph-name="uni24C2" unicode="M&#x25cb;" 
d="M689 367h-119v653h135l194 -429h4l194 429h133v-653h-119v435h-8l-158 -357h-89l-160 357h-7v-435zM900 71q164 0 304 82.5t221 223.5t81 307t-81 307t-221 223.5t-304 82.5t-304 -82.5t-221 -223.5t-81 -307t81 -307t221 -223.5t304 -82.5zM900 -50q-199 0 -368 98.5
t-267.5 267.5t-98.5 368t98.5 368t267.5 267.5t368 98.5t368 -98.5t267.5 -267.5t98.5 -368t-98.5 -368t-267.5 -267.5t-368 -98.5z" />
    <glyph glyph-name="uni24C3" unicode="N&#x25cb;" 
d="M753 367h-126v653h111l302 -435h7v435h126v-653h-111l-303 437h-6v-437zM900 71q164 0 304 82.5t221 223.5t81 307t-81 307t-221 223.5t-304 82.5t-304 -82.5t-221 -223.5t-81 -307t81 -307t221 -223.5t304 -82.5zM900 -50q-199 0 -368 98.5t-267.5 267.5t-98.5 368
t98.5 368t267.5 267.5t368 98.5t368 -98.5t267.5 -267.5t98.5 -368t-98.5 -368t-267.5 -267.5t-368 -98.5z" />
    <glyph glyph-name="uni24C4" unicode="O&#x25cb;" 
d="M900 465q73 0 114 49.5t41 136.5v84q0 88 -41 137.5t-114 49.5t-114 -49.5t-41 -137.5v-84q0 -87 41 -136.5t114 -49.5zM900 354q-137 0 -215 79.5t-78 218.5v83q0 139 78 218t215 79t215 -79t78 -218v-83q0 -139 -78 -218.5t-215 -79.5zM900 71q164 0 304 82.5
t221 223.5t81 307t-81 307t-221 223.5t-304 82.5t-304 -82.5t-221 -223.5t-81 -307t81 -307t221 -223.5t304 -82.5zM900 -50q-199 0 -368 98.5t-267.5 267.5t-98.5 368t98.5 368t267.5 267.5t368 98.5t368 -98.5t267.5 -267.5t98.5 -368t-98.5 -368t-267.5 -267.5
t-368 -98.5z" />
    <glyph glyph-name="uni24C5" unicode="P&#x25cb;" 
d="M963 1020q107 0 169 -61t62 -158q0 -96 -62.5 -156.5t-169.5 -60.5h-137v-217h-135v653h273zM1057 801q0 55 -31 84.5t-87 29.5h-116v-227h116q56 0 87 29.5t31 83.5zM900 71q164 0 304 82.5t221 223.5t81 307t-81 307t-221 223.5t-304 82.5t-304 -82.5t-221 -223.5
t-81 -307t81 -307t221 -223.5t304 -82.5zM900 -50q-199 0 -368 98.5t-267.5 267.5t-98.5 368t98.5 368t267.5 267.5t368 98.5t368 -98.5t267.5 -267.5t98.5 -368t-98.5 -368t-267.5 -267.5t-368 -98.5z" />
    <glyph glyph-name="uni24C6" unicode="Q&#x25cb;" 
d="M1188 302h-137l-48 67q-50 -15 -103 -15q-137 0 -215 79.5t-78 218.5v83q0 139 78 218t215 79t215 -79t78 -218v-83q0 -153 -93 -232zM897 459q28 0 44 5l-76 105h119l39 -51q36 50 36 132v83q0 92 -42 143t-117 51t-117 -51t-42 -143v-83q0 -90 41.5 -140t114.5 -51z
M900 71q164 0 304 82.5t221 223.5t81 307t-81 307t-221 223.5t-304 82.5t-304 -82.5t-221 -223.5t-81 -307t81 -307t221 -223.5t304 -82.5zM900 -50q-199 0 -368 98.5t-267.5 267.5t-98.5 368t98.5 368t267.5 267.5t368 98.5t368 -98.5t267.5 -267.5t98.5 -368t-98.5 -368
t-267.5 -267.5t-368 -98.5z" />
    <glyph glyph-name="uni24C7" unicode="R&#x25cb;" 
d="M933 1020q113 0 176.5 -55t63.5 -150q0 -67 -35.5 -115.5t-89.5 -67.5l138 -265h-149l-119 243h-125v-243h-131v653h271zM793 707h120q58 0 90 26.5t32 76.5q0 51 -32 79t-87 28h-123v-210zM900 71q164 0 304 82.5t221 223.5t81 307t-81 307t-221 223.5t-304 82.5
t-304 -82.5t-221 -223.5t-81 -307t81 -307t221 -223.5t304 -82.5zM900 -50q-199 0 -368 98.5t-267.5 267.5t-98.5 368t98.5 368t267.5 267.5t368 98.5t368 -98.5t267.5 -267.5t98.5 -368t-98.5 -368t-267.5 -267.5t-368 -98.5z" />
    <glyph glyph-name="uni24C8" unicode="S&#x25cb;" 
d="M633 552h131q4 -43 42.5 -68.5t98.5 -25.5t95 24t35 66q0 32 -25 51.5t-82 32.5l-105 23q-85 19 -129.5 64.5t-44.5 115.5q0 88 71 143t184 55q111 0 181.5 -53.5t72.5 -139.5h-128q-4 42 -38.5 66.5t-88.5 24.5t-87 -24t-33 -63q0 -59 95 -77l107 -24q94 -20 138.5 -65
t44.5 -119q0 -94 -73.5 -149.5t-197.5 -55.5q-119 0 -190.5 53.5t-73.5 144.5zM900 71q164 0 304 82.5t221 223.5t81 307t-81 307t-221 223.5t-304 82.5t-304 -82.5t-221 -223.5t-81 -307t81 -307t221 -223.5t304 -82.5zM900 -50q-199 0 -368 98.5t-267.5 267.5t-98.5 368
t98.5 368t267.5 267.5t368 98.5t368 -98.5t267.5 -267.5t98.5 -368t-98.5 -368t-267.5 -267.5t-368 -98.5z" />
    <glyph glyph-name="uni24C9" unicode="T&#x25cb;" 
d="M969 346h-138v543h-195v110h528v-110h-195v-543zM900 71q164 0 304 82.5t221 223.5t81 307t-81 307t-221 223.5t-304 82.5t-304 -82.5t-221 -223.5t-81 -307t81 -307t221 -223.5t304 -82.5zM900 -50q-199 0 -368 98.5t-267.5 267.5t-98.5 368t98.5 368t267.5 267.5
t368 98.5t368 -98.5t267.5 -267.5t98.5 -368t-98.5 -368t-267.5 -267.5t-368 -98.5z" />
    <glyph glyph-name="uni24CA" unicode="U&#x25cb;" 
d="M900 446q65 0 102.5 36t37.5 101v416h135v-430q0 -106 -75 -170.5t-200 -64.5t-200 64.5t-75 170.5v430h135v-416q0 -65 37.5 -101t102.5 -36zM900 71q164 0 304 82.5t221 223.5t81 307t-81 307t-221 223.5t-304 82.5t-304 -82.5t-221 -223.5t-81 -307t81 -307
t221 -223.5t304 -82.5zM900 -50q-199 0 -368 98.5t-267.5 267.5t-98.5 368t98.5 368t267.5 267.5t368 98.5t368 -98.5t267.5 -267.5t98.5 -368t-98.5 -368t-267.5 -267.5t-368 -98.5z" />
    <glyph glyph-name="uni24CB" unicode="V&#x25cb;" 
d="M816 345l-228 653h155l153 -509h8l153 509h155l-228 -653h-168zM900 71q164 0 304 82.5t221 223.5t81 307t-81 307t-221 223.5t-304 82.5t-304 -82.5t-221 -223.5t-81 -307t81 -307t221 -223.5t304 -82.5zM900 -50q-199 0 -368 98.5t-267.5 267.5t-98.5 368t98.5 368
t267.5 267.5t368 98.5t368 -98.5t267.5 -267.5t98.5 -368t-98.5 -368t-267.5 -267.5t-368 -98.5z" />
    <glyph glyph-name="uni24CC" unicode="W&#x25cb;" 
d="M898 804l-126 -458h-121l-178 653h142l103 -477h7l119 477h112l119 -477h7l103 477h142l-178 -653h-121l-126 458h-4zM900 71q164 0 304 82.5t221 223.5t81 307t-81 307t-221 223.5t-304 82.5t-304 -82.5t-221 -223.5t-81 -307t81 -307t221 -223.5t304 -82.5zM900 -50
q-199 0 -368 98.5t-267.5 267.5t-98.5 368t98.5 368t267.5 267.5t368 98.5t368 -98.5t267.5 -267.5t98.5 -368t-98.5 -368t-267.5 -267.5t-368 -98.5z" />
    <glyph glyph-name="uni24CD" unicode="X&#x25cb;" 
d="M1201 1020l-216 -327l214 -326h-157l-144 229h-6l-145 -229h-148l211 329l-210 324h161l141 -233h6l140 233h153zM900 71q164 0 304 82.5t221 223.5t81 307t-81 307t-221 223.5t-304 82.5t-304 -82.5t-221 -223.5t-81 -307t81 -307t221 -223.5t304 -82.5zM900 -50
q-199 0 -368 98.5t-267.5 267.5t-98.5 368t98.5 368t267.5 267.5t368 98.5t368 -98.5t267.5 -267.5t98.5 -368t-98.5 -368t-267.5 -267.5t-368 -98.5z" />
    <glyph glyph-name="uni24CE" unicode="Y&#x25cb;" 
d="M969 360h-137v248l-229 405h151l145 -276h5l145 276h148l-228 -404v-249zM900 71q164 0 304 82.5t221 223.5t81 307t-81 307t-221 223.5t-304 82.5t-304 -82.5t-221 -223.5t-81 -307t81 -307t221 -223.5t304 -82.5zM900 -50q-199 0 -368 98.5t-267.5 267.5t-98.5 368
t98.5 368t267.5 267.5t368 98.5t368 -98.5t267.5 -267.5t98.5 -368t-98.5 -368t-267.5 -267.5t-368 -98.5z" />
    <glyph glyph-name="uni24CF" unicode="Z&#x25cb;" 
d="M649 367v87l328 450v7h-320v109h486v-87l-328 -451v-6h337v-109h-503zM900 71q164 0 304 82.5t221 223.5t81 307t-81 307t-221 223.5t-304 82.5t-304 -82.5t-221 -223.5t-81 -307t81 -307t221 -223.5t304 -82.5zM900 -50q-199 0 -368 98.5t-267.5 267.5t-98.5 368
t98.5 368t267.5 267.5t368 98.5t368 -98.5t267.5 -267.5t98.5 -368t-98.5 -368t-267.5 -267.5t-368 -98.5z" />
    <glyph glyph-name="uni24EA" unicode="&#x30;&#x25cb;" 
d="M775 708v-29q0 -104 33.5 -160.5t91.5 -56.5q59 0 92.5 56.5t33.5 160.5v29q0 104 -33.5 160.5t-92.5 56.5q-58 0 -91.5 -56.5t-33.5 -160.5zM640 679v29q0 147 70 235.5t191 88.5q123 0 191 -87.5t68 -236.5v-29q0 -145 -69 -235t-192 -90q-122 0 -190.5 88.5
t-68.5 236.5zM900 71q164 0 304 82.5t221 223.5t81 307t-81 307t-221 223.5t-304 82.5t-304 -82.5t-221 -223.5t-81 -307t81 -307t221 -223.5t304 -82.5zM900 -50q-199 0 -368 98.5t-267.5 267.5t-98.5 368t98.5 368t267.5 267.5t368 98.5t368 -98.5t267.5 -267.5t98.5 -368
t-98.5 -368t-267.5 -267.5t-368 -98.5z" />
    <glyph glyph-name="uni24FF" unicode="&#x30;&#x25cb;&#x25cf;" 
d="M896 443q-62 0 -97 62t-35 172v30q0 111 35 172t97 61q63 0 97.5 -61t34.5 -172v-30q0 -111 -34.5 -172.5t-97.5 -61.5zM896 319q133 0 210.5 97t77.5 261v30q0 165 -77 261t-210 96t-210.5 -96t-77.5 -261v-30q0 -165 77 -261.5t210 -96.5zM900 -50q-149 0 -285 58.5
t-234 156.5t-156.5 234t-58.5 285t58.5 285t156.5 234t234 156.5t285 58.5t285 -58.5t234 -156.5t156.5 -234t58.5 -285t-58.5 -285t-156.5 -234t-234 -156.5t-285 -58.5z" />
    <glyph glyph-name="uni278A" unicode="&#x31;&#x25cb;&#x25cf;" 
d="M1009 333v718h-152l-178 -123v-143l174 119h1v-571h155zM900 -50q-149 0 -285 58.5t-234 156.5t-156.5 234t-58.5 285t58.5 285t156.5 234t234 156.5t285 58.5t285 -58.5t234 -156.5t156.5 -234t58.5 -285t-58.5 -285t-156.5 -234t-234 -156.5t-285 -58.5z" />
    <glyph glyph-name="uni278B" unicode="&#x32;&#x25cb;&#x25cf;" 
d="M785 828v10q0 44 29 74t79 30q46 0 76 -26.5t30 -67.5q0 -38 -21 -70t-63 -75l-271 -275v-95h521v125h-313v1l179 184q61 62 91 109t30 108q0 88 -71 145.5t-184 57.5q-122 0 -190.5 -66t-68.5 -159v-10h147zM900 -50q-149 0 -285 58.5t-234 156.5t-156.5 234t-58.5 285
t58.5 285t156.5 234t234 156.5t285 58.5t285 -58.5t234 -156.5t156.5 -234t58.5 -285t-58.5 -285t-156.5 -234t-234 -156.5t-285 -58.5z" />
    <glyph glyph-name="uni278C" unicode="&#x33;&#x25cb;&#x25cf;" 
d="M811 643h85q57 0 91.5 -28t35.5 -73q0 -46 -36 -74.5t-95 -28.5q-53 1 -88.5 26t-39.5 63h-144q4 -90 76.5 -149.5t194.5 -59.5q124 0 205.5 59t80.5 158q-2 77 -49.5 121.5t-107.5 51.5v1q49 10 92.5 54.5t42.5 110.5q-2 83 -73 136t-186 53q-122 -1 -190.5 -58.5
t-70.5 -148.5h145q2 37 32.5 62.5t79.5 25.5q48 0 79 -25t31 -65q0 -41 -31 -67.5t-80 -26.5h-80v-118zM900 -50q-149 0 -285 58.5t-234 156.5t-156.5 234t-58.5 285t58.5 285t156.5 234t234 156.5t285 58.5t285 -58.5t234 -156.5t156.5 -234t58.5 -285t-58.5 -285
t-156.5 -234t-234 -156.5t-285 -58.5z" />
    <glyph glyph-name="uni278D" unicode="&#x34;&#x25cb;&#x25cf;" 
d="M858 1051q-214 -335 -286 -466v-120h358v-132h145v132h94v122h-94v464h-217zM715 588q76 133 214 343h1v-344h-215v1zM900 -50q-149 0 -285 58.5t-234 156.5t-156.5 234t-58.5 285t58.5 285t156.5 234t234 156.5t285 58.5t285 -58.5t234 -156.5t156.5 -234t58.5 -285
t-58.5 -285t-156.5 -234t-234 -156.5t-285 -58.5z" />
    <glyph glyph-name="uni278E" unicode="&#x35;&#x25cb;&#x25cf;" 
d="M632 526q5 -90 78.5 -147.5t189.5 -57.5q128 0 206.5 70.5t78.5 186.5q0 107 -70 170t-173 63q-54 0 -93.5 -18.5t-57.5 -41.5h-1l15 180h338v121h-463l-32 -423h134q15 27 46 47t75 20q55 0 93 -34t38 -89q0 -60 -38.5 -96t-90.5 -36q-48 0 -84 22t-45 63h-144zM900 -50
q-149 0 -285 58.5t-234 156.5t-156.5 234t-58.5 285t58.5 285t156.5 234t234 156.5t285 58.5t285 -58.5t234 -156.5t156.5 -234t58.5 -285t-58.5 -285t-156.5 -234t-234 -156.5t-285 -58.5z" />
    <glyph glyph-name="uni278F" unicode="&#x36;&#x25cb;&#x25cf;" 
d="M1169 573q0 100 -61.5 165t-155.5 65q-79 0 -123 -44l-8 2q5 9 33 49q91 126 188 241h-170q-131 -170 -150 -204q-102 -144 -102 -265q0 -118 76.5 -190t199.5 -72q122 0 197.5 70t75.5 183zM762 569q0 56 38 94t95 38t94.5 -38t37.5 -94t-37.5 -94t-94.5 -38t-95 38
t-38 94zM900 -50q-149 0 -285 58.5t-234 156.5t-156.5 234t-58.5 285t58.5 285t156.5 234t234 156.5t285 58.5t285 -58.5t234 -156.5t156.5 -234t58.5 -285t-58.5 -285t-156.5 -234t-234 -156.5t-285 -58.5z" />
    <glyph glyph-name="uni2790" unicode="&#x37;&#x25cb;&#x25cf;" 
d="M651 1042v-126h365v-2l-309 -590h164l301 594v124h-521zM900 -50q-149 0 -285 58.5t-234 156.5t-156.5 234t-58.5 285t58.5 285t156.5 234t234 156.5t285 58.5t285 -58.5t234 -156.5t156.5 -234t58.5 -285t-58.5 -285t-156.5 -234t-234 -156.5t-285 -58.5z" />
    <glyph glyph-name="uni2791" unicode="&#x38;&#x25cb;&#x25cf;" 
d="M896 758q-50 0 -81 27.5t-31 70.5t31 70t81 27t81.5 -27t31.5 -70q0 -44 -31.5 -71t-81.5 -27zM896 430q-59 0 -98 32t-39 80q0 49 39 81t98 32q60 0 99 -32t39 -81q0 -48 -39 -80t-99 -32zM896 319q131 0 211.5 58.5t80.5 155.5q0 66 -42 114t-113 63q60 20 92.5 62
t32.5 100q0 86 -72.5 139t-189.5 53q-116 0 -188.5 -53t-72.5 -139q0 -58 32.5 -100t92.5 -62q-71 -15 -113 -63t-42 -114q0 -97 80 -155.5t211 -58.5zM900 -50q-149 0 -285 58.5t-234 156.5t-156.5 234t-58.5 285t58.5 285t156.5 234t234 156.5t285 58.5t285 -58.5
t234 -156.5t156.5 -234t58.5 -285t-58.5 -285t-156.5 -234t-234 -156.5t-285 -58.5z" />
    <glyph glyph-name="uni2792" unicode="&#x39;&#x25cb;&#x25cf;" 
d="M623 810q0 -100 61 -164.5t155 -64.5q79 0 124 43l8 -2q-12 -21 -34 -49l-104 -136.5t-83 -103.5h169q17 21 80.5 105.5t70.5 98.5q101 143 101 264q0 118 -76 190t-200 72q-122 0 -197 -70t-75 -183zM1029 815q0 -56 -37.5 -94t-94.5 -38t-95 37.5t-38 94.5t38 94.5
t95 37.5t94.5 -38t37.5 -94zM900 -50q-149 0 -285 58.5t-234 156.5t-156.5 234t-58.5 285t58.5 285t156.5 234t234 156.5t285 58.5t285 -58.5t234 -156.5t156.5 -234t58.5 -285t-58.5 -285t-156.5 -234t-234 -156.5t-285 -58.5z" />
    <glyph glyph-name="uni1F130" unicode="A&#x25a1;" 
d="M810 632h180l-85 261h-10zM728 367h-136l230 653h156l230 -653h-136l-54 166h-236zM435 1397h930q103 0 175.5 -71.5t72.5 -172.5v-938q0 -101 -72.5 -172.5t-175.5 -71.5h-930q-103 0 -175.5 71.5t-72.5 172.5v938q0 101 72.5 172.5t175.5 71.5zM1485 1148
q0 55 -39.5 93t-96.5 38h-898q-57 0 -96.5 -38t-39.5 -93v-928q0 -54 40 -93t96 -39h898q56 0 96 39t40 93v928z" />
    <glyph glyph-name="uni1F131" unicode="B&#x25a1;" 
d="M672 367v653h287q92 0 146 -42.5t54 -117.5q0 -56 -32 -93.5t-85 -49.5v-6q67 -7 109.5 -49t42.5 -111q0 -85 -65 -134.5t-171 -49.5h-286zM804 923v-174h90q134 0 134 88q0 40 -27 63t-75 23h-122zM804 659v-193h101q80 0 116 23t36 71q0 46 -31.5 72.5t-90.5 26.5h-131
zM435 1397h930q103 0 175.5 -71.5t72.5 -172.5v-938q0 -101 -72.5 -172.5t-175.5 -71.5h-930q-103 0 -175.5 71.5t-72.5 172.5v938q0 101 72.5 172.5t175.5 71.5zM1485 1148q0 55 -39.5 93t-96.5 38h-898q-57 0 -96.5 -38t-39.5 -93v-928q0 -54 40 -93t96 -39h898
q56 0 96 39t40 93v928z" />
    <glyph glyph-name="uni1F132" unicode="C&#x25a1;" 
d="M766 731v-79q0 -89 39 -138t110 -49q61 0 98.5 34.5t37.5 88.5h131v-11q0 -98 -75.5 -160.5t-192.5 -62.5q-137 0 -211.5 78.5t-74.5 219.5v80q0 141 75.5 220.5t210.5 79.5q117 0 192.5 -64.5t75.5 -166.5v-11h-131q0 57 -37.5 93.5t-98.5 36.5q-71 0 -110 -49.5
t-39 -139.5zM435 1397h930q103 0 175.5 -71.5t72.5 -172.5v-938q0 -101 -72.5 -172.5t-175.5 -71.5h-930q-103 0 -175.5 71.5t-72.5 172.5v938q0 101 72.5 172.5t175.5 71.5zM1485 1148q0 55 -39.5 93t-96.5 38h-898q-57 0 -96.5 -38t-39.5 -93v-928q0 -54 40 -93t96 -39
h898q56 0 96 39t40 93v928z" />
    <glyph glyph-name="uni1F133" unicode="D&#x25a1;" 
d="M645 1020h250q152 0 228.5 -83t76.5 -242t-77 -243.5t-228 -84.5h-250v653zM779 913v-438h98q94 0 139 53.5t45 164.5q0 112 -45 166t-139 54h-98zM435 1397h930q103 0 175.5 -71.5t72.5 -172.5v-938q0 -101 -72.5 -172.5t-175.5 -71.5h-930q-103 0 -175.5 71.5
t-72.5 172.5v938q0 101 72.5 172.5t175.5 71.5zM1485 1148q0 55 -39.5 93t-96.5 38h-898q-57 0 -96.5 -38t-39.5 -93v-928q0 -54 40 -93t96 -39h898q56 0 96 39t40 93v928z" />
    <glyph glyph-name="uni1F134" unicode="E&#x25a1;" 
d="M1125 473v-107h-440v653h440v-106h-307v-167h289v-98h-289v-175h307zM435 1397h930q103 0 175.5 -71.5t72.5 -172.5v-938q0 -101 -72.5 -172.5t-175.5 -71.5h-930q-103 0 -175.5 71.5t-72.5 172.5v938q0 101 72.5 172.5t175.5 71.5zM1485 1148q0 55 -39.5 93t-96.5 38
h-898q-57 0 -96.5 -38t-39.5 -93v-928q0 -54 40 -93t96 -39h898q56 0 96 39t40 93v928z" />
    <glyph glyph-name="uni1F135" unicode="F&#x25a1;" 
d="M850 367h-135v653h435v-107h-300v-180h274v-106h-274v-260zM435 1397h930q103 0 175.5 -71.5t72.5 -172.5v-938q0 -101 -72.5 -172.5t-175.5 -71.5h-930q-103 0 -175.5 71.5t-72.5 172.5v938q0 101 72.5 172.5t175.5 71.5zM1485 1148q0 55 -39.5 93t-96.5 38h-898
q-57 0 -96.5 -38t-39.5 -93v-928q0 -54 40 -93t96 -39h898q56 0 96 39t40 93v928z" />
    <glyph glyph-name="uni1F136" unicode="G&#x25a1;" 
d="M1181 812h-131q-8 51 -45.5 81.5t-95.5 30.5q-74 0 -114.5 -49.5t-40.5 -138.5v-83q0 -89 40.5 -140t118.5 -51q67 0 103.5 32.5t37.5 84.5v43h-145v98h273v-130q0 -103 -70.5 -169t-199.5 -66q-141 0 -217 80.5t-76 219.5v82q0 135 78 215.5t214 80.5q119 0 192.5 -63
t77.5 -158zM435 1397h930q103 0 175.5 -71.5t72.5 -172.5v-938q0 -101 -72.5 -172.5t-175.5 -71.5h-930q-103 0 -175.5 71.5t-72.5 172.5v938q0 101 72.5 172.5t175.5 71.5zM1485 1148q0 55 -39.5 93t-96.5 38h-898q-57 0 -96.5 -38t-39.5 -93v-928q0 -54 40 -93t96 -39h898
q56 0 96 39t40 93v928z" />
    <glyph glyph-name="uni1F137" unicode="H&#x25a1;" 
d="M1179 367h-134v279h-290v-279h-133v653h133v-264h290v264h134v-653zM435 1397h930q103 0 175.5 -71.5t72.5 -172.5v-938q0 -101 -72.5 -172.5t-175.5 -71.5h-930q-103 0 -175.5 71.5t-72.5 172.5v938q0 101 72.5 172.5t175.5 71.5zM1485 1148q0 55 -39.5 93t-96.5 38
h-898q-57 0 -96.5 -38t-39.5 -93v-928q0 -54 40 -93t96 -39h898q56 0 96 39t40 93v928z" />
    <glyph glyph-name="uni1F138" unicode="I&#x25a1;" 
d="M970 367h-140v653h140v-653zM435 1397h930q103 0 175.5 -71.5t72.5 -172.5v-938q0 -101 -72.5 -172.5t-175.5 -71.5h-930q-103 0 -175.5 71.5t-72.5 172.5v938q0 101 72.5 172.5t175.5 71.5zM1485 1148q0 55 -39.5 93t-96.5 38h-898q-57 0 -96.5 -38t-39.5 -93v-928
q0 -54 40 -93t96 -39h898q56 0 96 39t40 93v928z" />
    <glyph glyph-name="uni1F139" unicode="J&#x25a1;" 
d="M643 556h132q1 -38 25 -61t64 -23q95 0 95 103v445h136v-442q0 -107 -60.5 -165t-168.5 -58q-105 0 -164 56.5t-59 144.5zM435 1397h930q103 0 175.5 -71.5t72.5 -172.5v-938q0 -101 -72.5 -172.5t-175.5 -71.5h-930q-103 0 -175.5 71.5t-72.5 172.5v938
q0 101 72.5 172.5t175.5 71.5zM1485 1148q0 55 -39.5 93t-96.5 38h-898q-57 0 -96.5 -38t-39.5 -93v-928q0 -54 40 -93t96 -39h898q56 0 96 39t40 93v928z" />
    <glyph glyph-name="uni1F13A" unicode="K&#x25a1;" 
d="M1203 1020l-242 -283l252 -370h-161l-190 284l-72 -78v-206h-132v653h132v-290h7l257 290h149zM435 1397h930q103 0 175.5 -71.5t72.5 -172.5v-938q0 -101 -72.5 -172.5t-175.5 -71.5h-930q-103 0 -175.5 71.5t-72.5 172.5v938q0 101 72.5 172.5t175.5 71.5zM1485 1148
q0 55 -39.5 93t-96.5 38h-898q-57 0 -96.5 -38t-39.5 -93v-928q0 -54 40 -93t96 -39h898q56 0 96 39t40 93v928z" />
    <glyph glyph-name="uni1F13B" unicode="L&#x25a1;" 
d="M1165 480v-113h-427v653h136v-540h291zM435 1397h930q103 0 175.5 -71.5t72.5 -172.5v-938q0 -101 -72.5 -172.5t-175.5 -71.5h-930q-103 0 -175.5 71.5t-72.5 172.5v938q0 101 72.5 172.5t175.5 71.5zM1485 1148q0 55 -39.5 93t-96.5 38h-898q-57 0 -96.5 -38t-39.5 -93
v-928q0 -54 40 -93t96 -39h898q56 0 96 39t40 93v928z" />
    <glyph glyph-name="uni1F13C" unicode="M&#x25a1;" 
d="M689 367h-119v653h135l194 -428h4l194 428h133v-653h-119v435h-8l-158 -357h-89l-160 357h-7v-435zM435 1397h930q103 0 175.5 -71.5t72.5 -172.5v-938q0 -101 -72.5 -172.5t-175.5 -71.5h-930q-103 0 -175.5 71.5t-72.5 172.5v938q0 101 72.5 172.5t175.5 71.5z
M1485 1148q0 55 -39.5 93t-96.5 38h-898q-57 0 -96.5 -38t-39.5 -93v-928q0 -54 40 -93t96 -39h898q56 0 96 39t40 93v928z" />
    <glyph glyph-name="uni1F13D" unicode="N&#x25a1;" 
d="M755 367h-129v653h113l300 -430h6v430h129v-653h-113l-301 433h-5v-433zM435 1397h930q103 0 175.5 -71.5t72.5 -172.5v-938q0 -101 -72.5 -172.5t-175.5 -71.5h-930q-103 0 -175.5 71.5t-72.5 172.5v938q0 101 72.5 172.5t175.5 71.5zM1485 1148q0 55 -39.5 93t-96.5 38
h-898q-57 0 -96.5 -38t-39.5 -93v-928q0 -54 40 -93t96 -39h898q56 0 96 39t40 93v928z" />
    <glyph glyph-name="uni1F13E" unicode="O&#x25a1;" 
d="M900 465q73 0 114 49.5t41 136.5v85q0 87 -41 137t-114 50t-114 -50t-41 -137v-85q0 -87 41 -136.5t114 -49.5zM900 355q-137 0 -215 79t-78 218v83q0 139 78 218.5t215 79.5t215 -79.5t78 -218.5v-83q0 -139 -78 -218t-215 -79zM435 1397h930q103 0 175.5 -71.5
t72.5 -172.5v-938q0 -101 -72.5 -172.5t-175.5 -71.5h-930q-103 0 -175.5 71.5t-72.5 172.5v938q0 101 72.5 172.5t175.5 71.5zM1485 1148q0 55 -39.5 93t-96.5 38h-898q-57 0 -96.5 -38t-39.5 -93v-928q0 -54 40 -93t96 -39h898q56 0 96 39t40 93v928z" />
    <glyph glyph-name="uni1F13F" unicode="P&#x25a1;" 
d="M963 1020q107 0 169 -61t62 -157t-62.5 -156.5t-169.5 -60.5h-137v-218h-135v653h273zM1057 802q0 55 -31 84t-87 29h-116v-227h116q56 0 87 29.5t31 84.5zM435 1397h930q103 0 175.5 -71.5t72.5 -172.5v-938q0 -101 -72.5 -172.5t-175.5 -71.5h-930q-103 0 -175.5 71.5
t-72.5 172.5v938q0 101 72.5 172.5t175.5 71.5zM1485 1148q0 55 -39.5 93t-96.5 38h-898q-57 0 -96.5 -38t-39.5 -93v-928q0 -54 40 -93t96 -39h898q56 0 96 39t40 93v928z" />
    <glyph glyph-name="uni1F140" unicode="Q&#x25a1;" 
d="M1188 302h-137l-48 68q-45 -15 -103 -15q-137 0 -215 79t-78 218v83q0 139 78 218.5t215 79.5t215 -79.5t78 -218.5v-83q0 -153 -93 -232zM897 459q22 0 44 5l-76 106h119l39 -51q36 49 36 132v83q0 92 -42 142.5t-117 50.5t-117 -50.5t-42 -142.5v-83q0 -90 41.5 -140
t114.5 -52zM435 1397h930q103 0 175.5 -71.5t72.5 -172.5v-938q0 -101 -72.5 -172.5t-175.5 -71.5h-930q-103 0 -175.5 71.5t-72.5 172.5v938q0 101 72.5 172.5t175.5 71.5zM1485 1148q0 55 -39.5 93t-96.5 38h-898q-57 0 -96.5 -38t-39.5 -93v-928q0 -54 40 -93t96 -39h898
q56 0 96 39t40 93v928z" />
    <glyph glyph-name="uni1F141" unicode="R&#x25a1;" 
d="M933 1020q113 0 176.5 -54.5t63.5 -149.5q0 -67 -35.5 -115.5t-89.5 -67.5l138 -266h-149l-119 244h-125v-244h-131v653h271zM793 708h120q58 0 90 26t32 76q0 51 -32 79t-87 28h-123v-209zM435 1397h930q103 0 175.5 -71.5t72.5 -172.5v-938q0 -101 -72.5 -172.5
t-175.5 -71.5h-930q-103 0 -175.5 71.5t-72.5 172.5v938q0 101 72.5 172.5t175.5 71.5zM1485 1148q0 55 -39.5 93t-96.5 38h-898q-57 0 -96.5 -38t-39.5 -93v-928q0 -54 40 -93t96 -39h898q56 0 96 39t40 93v928z" />
    <glyph glyph-name="uni1F142" unicode="S&#x25a1;" 
d="M633 552h131q4 -42 42.5 -68t98.5 -26t95 24.5t35 66.5q0 32 -25 51.5t-82 32.5l-105 23q-85 18 -129.5 64t-44.5 116q0 88 71 143t184 55q111 0 181.5 -53.5t72.5 -139.5h-128q-4 42 -38.5 66.5t-88.5 24.5t-87 -24.5t-33 -63.5q0 -57 95 -77l107 -23q94 -21 138.5 -66
t44.5 -118q0 -94 -73 -149.5t-198 -55.5q-119 0 -190.5 53t-73.5 144zM435 1397h930q103 0 175.5 -71.5t72.5 -172.5v-938q0 -101 -72.5 -172.5t-175.5 -71.5h-930q-103 0 -175.5 71.5t-72.5 172.5v938q0 101 72.5 172.5t175.5 71.5zM1485 1148q0 55 -39.5 93t-96.5 38h-898
q-57 0 -96.5 -38t-39.5 -93v-928q0 -54 40 -93t96 -39h898q56 0 96 39t40 93v928z" />
    <glyph glyph-name="uni1F143" unicode="T&#x25a1;" 
d="M969 367h-138v543h-195v110h528v-110h-195v-543zM435 1397h930q103 0 175.5 -71.5t72.5 -172.5v-938q0 -101 -72.5 -172.5t-175.5 -71.5h-930q-103 0 -175.5 71.5t-72.5 172.5v938q0 101 72.5 172.5t175.5 71.5zM1485 1148q0 55 -39.5 93t-96.5 38h-898q-57 0 -96.5 -38
t-39.5 -93v-928q0 -54 40 -93t96 -39h898q56 0 96 39t40 93v928z" />
    <glyph glyph-name="uni1F144" unicode="U&#x25a1;" 
d="M900 467q65 0 102.5 36t37.5 101v416h135v-430q0 -106 -75 -170.5t-200 -64.5t-200 64.5t-75 170.5v430h135v-416q0 -65 37.5 -101t102.5 -36zM435 1397h930q103 0 175.5 -71.5t72.5 -172.5v-938q0 -101 -72.5 -172.5t-175.5 -71.5h-930q-103 0 -175.5 71.5t-72.5 172.5
v938q0 101 72.5 172.5t175.5 71.5zM1485 1148q0 55 -39.5 93t-96.5 38h-898q-57 0 -96.5 -38t-39.5 -93v-928q0 -54 40 -93t96 -39h898q56 0 96 39t40 93v928z" />
    <glyph glyph-name="uni1F145" unicode="V&#x25a1;" 
d="M816 367l-228 653h155l153 -508h8l153 508h155l-228 -653h-168zM435 1397h930q103 0 175.5 -71.5t72.5 -172.5v-938q0 -101 -72.5 -172.5t-175.5 -71.5h-930q-103 0 -175.5 71.5t-72.5 172.5v938q0 101 72.5 172.5t175.5 71.5zM1485 1148q0 55 -39.5 93t-96.5 38h-898
q-57 0 -96.5 -38t-39.5 -93v-928q0 -54 40 -93t96 -39h898q56 0 96 39t40 93v928z" />
    <glyph glyph-name="uni1F146" unicode="W&#x25a1;" 
d="M898 825l-126 -457h-121l-178 653h142l103 -477h7l119 477h112l119 -477h7l103 477h142l-178 -653h-121l-126 457h-4zM435 1397h930q103 0 175.5 -71.5t72.5 -172.5v-938q0 -101 -72.5 -172.5t-175.5 -71.5h-930q-103 0 -175.5 71.5t-72.5 172.5v938q0 101 72.5 172.5
t175.5 71.5zM1485 1148q0 55 -39.5 93t-96.5 38h-898q-57 0 -96.5 -38t-39.5 -93v-928q0 -54 40 -93t96 -39h898q56 0 96 39t40 93v928z" />
    <glyph glyph-name="uni1F147" unicode="X&#x25a1;" 
d="M1201 1020l-216 -327l214 -326h-157l-144 229h-6l-145 -229h-148l211 329l-210 324h161l141 -232h6l140 232h153zM435 1397h930q103 0 175.5 -71.5t72.5 -172.5v-938q0 -101 -72.5 -172.5t-175.5 -71.5h-930q-103 0 -175.5 71.5t-72.5 172.5v938q0 101 72.5 172.5
t175.5 71.5zM1485 1148q0 55 -39.5 93t-96.5 38h-898q-57 0 -96.5 -38t-39.5 -93v-928q0 -54 40 -93t96 -39h898q56 0 96 39t40 93v928z" />
    <glyph glyph-name="uni1F148" unicode="Y&#x25a1;" 
d="M969 367h-137v248l-229 405h151l145 -275h5l145 275h148l-228 -403v-250zM435 1397h930q103 0 175.5 -71.5t72.5 -172.5v-938q0 -101 -72.5 -172.5t-175.5 -71.5h-930q-103 0 -175.5 71.5t-72.5 172.5v938q0 101 72.5 172.5t175.5 71.5zM1485 1148q0 55 -39.5 93
t-96.5 38h-898q-57 0 -96.5 -38t-39.5 -93v-928q0 -54 40 -93t96 -39h898q56 0 96 39t40 93v928z" />
    <glyph glyph-name="uni1F149" unicode="Z&#x25a1;" 
d="M649 367v87l328 451v7h-320v108h486v-86l-328 -451v-7h337v-109h-503zM435 1397h930q103 0 175.5 -71.5t72.5 -172.5v-938q0 -101 -72.5 -172.5t-175.5 -71.5h-930q-103 0 -175.5 71.5t-72.5 172.5v938q0 101 72.5 172.5t175.5 71.5zM1485 1148q0 55 -39.5 93t-96.5 38
h-898q-57 0 -96.5 -38t-39.5 -93v-928q0 -54 40 -93t96 -39h898q56 0 96 39t40 93v928z" />
    <glyph glyph-name="uni1F150" unicode="A&#x25cb;&#x25cf;" 
d="M992 648h-184l89 277h6zM717 355l60 180h246l60 -180h158l-253 719h-176l-253 -719h158zM900 -50q-149 0 -285 58.5t-234 156.5t-156.5 234t-58.5 285t58.5 285t156.5 234t234 156.5t285 58.5t285 -58.5t234 -156.5t156.5 -234t58.5 -285t-58.5 -285t-156.5 -234
t-234 -156.5t-285 -58.5z" />
    <glyph glyph-name="uni1F151" unicode="B&#x25cb;&#x25cf;" 
d="M641 334h315q120 0 191.5 55.5t71.5 148.5q0 71 -43 118.5t-117 58.5v1q58 16 89.5 57.5t31.5 100.5q0 82 -60 130.5t-163 48.5h-316v-719zM794 939h128q50 0 78.5 -24t28.5 -65q0 -94 -142 -94h-93v183zM793 651h139q61 0 95 -27t34 -77t-39.5 -74t-122.5 -24h-106v202z
M900 -50q-149 0 -285 58.5t-234 156.5t-156.5 234t-58.5 285t58.5 285t156.5 234t234 156.5t285 58.5t285 -58.5t234 -156.5t156.5 -234t58.5 -285t-58.5 -285t-156.5 -234t-234 -156.5t-285 -58.5z" />
    <glyph glyph-name="uni1F152" unicode="C&#x25cb;&#x25cf;" 
d="M754 736q0 97 41.5 149.5t117.5 52.5q64 0 104 -40t40 -104h150v17q0 111 -83 183t-212 72q-149 0 -232.5 -87.5t-83.5 -242.5v-88q0 -155 83 -241.5t233 -86.5q129 0 212 69.5t83 177.5v17h-150q0 -61 -39.5 -98.5t-104.5 -37.5q-76 0 -117.5 52t-41.5 148v88zM900 -50
q-149 0 -285 58.5t-234 156.5t-156.5 234t-58.5 285t58.5 285t156.5 234t234 156.5t285 58.5t285 -58.5t234 -156.5t156.5 -234t58.5 -285t-58.5 -285t-156.5 -234t-234 -156.5t-285 -58.5z" />
    <glyph glyph-name="uni1F153" unicode="D&#x25cb;&#x25cf;" 
d="M635 1053v-719h276q164 0 250 92t86 268t-85.5 267.5t-250.5 91.5h-276zM789 929h102q100 0 148.5 -58t48.5 -178q0 -121 -48 -178.5t-149 -57.5h-102v472zM900 -50q-149 0 -285 58.5t-234 156.5t-156.5 234t-58.5 285t58.5 285t156.5 234t234 156.5t285 58.5t285 -58.5
t234 -156.5t156.5 -234t58.5 -285t-58.5 -285t-156.5 -234t-234 -156.5t-285 -58.5z" />
    <glyph glyph-name="uni1F154" unicode="E&#x25cb;&#x25cf;" 
d="M1147 457h-335v183h315v115h-315v175h335v123h-488v-719h488v123zM900 -50q-149 0 -285 58.5t-234 156.5t-156.5 234t-58.5 285t58.5 285t156.5 234t234 156.5t285 58.5t285 -58.5t234 -156.5t156.5 -234t58.5 -285t-58.5 -285t-156.5 -234t-234 -156.5t-285 -58.5z" />
    <glyph glyph-name="uni1F155" unicode="F&#x25cb;&#x25cf;" 
d="M844 334v282h298v124h-298v187h326v126h-482v-719h156zM900 -50q-149 0 -285 58.5t-234 156.5t-156.5 234t-58.5 285t58.5 285t156.5 234t234 156.5t285 58.5t285 -58.5t234 -156.5t156.5 -234t58.5 -285t-58.5 -285t-156.5 -234t-234 -156.5t-285 -58.5z" />
    <glyph glyph-name="uni1F156" unicode="G&#x25cb;&#x25cf;" 
d="M1207 817q-6 111 -88.5 180t-209.5 69q-148 0 -235 -88t-87 -238v-90q0 -155 85.5 -242.5t237.5 -87.5q136 0 217 71t81 189v143h-305v-113h157v-41q0 -58 -40.5 -91.5t-108.5 -33.5q-82 0 -125.5 52.5t-43.5 151.5v91q0 97 43 149.5t122 52.5q61 0 102 -34t48 -90h150z
M900 -50q-149 0 -285 58.5t-234 156.5t-156.5 234t-58.5 285t58.5 285t156.5 234t234 156.5t285 58.5t285 -58.5t234 -156.5t156.5 -234t58.5 -285t-58.5 -285t-156.5 -234t-234 -156.5t-285 -58.5z" />
    <glyph glyph-name="uni1F157" unicode="H&#x25cb;&#x25cf;" 
d="M1206 334v719h-153v-288h-305v288h-154v-719h154v303h305v-303h153zM900 -50q-149 0 -285 58.5t-234 156.5t-156.5 234t-58.5 285t58.5 285t156.5 234t234 156.5t285 58.5t285 -58.5t234 -156.5t156.5 -234t58.5 -285t-58.5 -285t-156.5 -234t-234 -156.5t-285 -58.5z
" />
    <glyph glyph-name="uni1F158" unicode="I&#x25cb;&#x25cf;" 
d="M979 334v719h-158v-719h158zM900 -50q-149 0 -285 58.5t-234 156.5t-156.5 234t-58.5 285t58.5 285t156.5 234t234 156.5t285 58.5t285 -58.5t234 -156.5t156.5 -234t58.5 -285t-58.5 -285t-156.5 -234t-234 -156.5t-285 -58.5z" />
    <glyph glyph-name="uni1F159" unicode="J&#x25cb;&#x25cf;" 
d="M616 546q0 -103 67 -165t179 -62q121 0 187 64.5t66 181.5v486h-156v-489q0 -107 -99 -107q-41 0 -66 25t-26 66h-152zM900 -50q-149 0 -285 58.5t-234 156.5t-156.5 234t-58.5 285t58.5 285t156.5 234t234 156.5t285 58.5t285 -58.5t234 -156.5t156.5 -234t58.5 -285
t-58.5 -285t-156.5 -234t-234 -156.5t-285 -58.5z" />
    <glyph glyph-name="uni1F15A" unicode="K&#x25cb;&#x25cf;" 
d="M1232 1053h-174l-278 -315h-2v315h-153v-719h153v227l71 78l206 -305h187l-278 406zM900 -50q-149 0 -285 58.5t-234 156.5t-156.5 234t-58.5 285t58.5 285t156.5 234t234 156.5t285 58.5t285 -58.5t234 -156.5t156.5 -234t58.5 -285t-58.5 -285t-156.5 -234t-234 -156.5
t-285 -58.5z" />
    <glyph glyph-name="uni1F15B" unicode="L&#x25cb;&#x25cf;" 
d="M1177 467h-317v588h-157v-719h474v131zM900 -50q-149 0 -285 58.5t-234 156.5t-156.5 234t-58.5 285t58.5 285t156.5 234t234 156.5t285 58.5t285 -58.5t234 -156.5t156.5 -234t58.5 -285t-58.5 -285t-156.5 -234t-234 -156.5t-285 -58.5z" />
    <glyph glyph-name="uni1F15C" unicode="M&#x25cb;&#x25cf;" 
d="M674 334v472h2l173 -388h101l173 384h2v-468h139v719h-153l-211 -466h-1l-209 466h-154v-719h138zM900 -50q-149 0 -285 58.5t-234 156.5t-156.5 234t-58.5 285t58.5 285t156.5 234t234 156.5t285 58.5t285 -58.5t234 -156.5t156.5 -234t58.5 -285t-58.5 -285
t-156.5 -234t-234 -156.5t-285 -58.5z" />
    <glyph glyph-name="uni1F15D" unicode="N&#x25cb;&#x25cf;" 
d="M744 334v472h2l327 -472h129v719h-146v-472h-2l-328 472h-127v-719h145zM900 -50q-149 0 -285 58.5t-234 156.5t-156.5 234t-58.5 285t58.5 285t156.5 234t234 156.5t285 58.5t285 -58.5t234 -156.5t156.5 -234t58.5 -285t-58.5 -285t-156.5 -234t-234 -156.5t-285 -58.5
z" />
    <glyph glyph-name="uni1F15E" unicode="O&#x25cb;&#x25cf;" 
d="M1223 648v90q0 153 -85.5 240.5t-236.5 87.5t-237.5 -87.5t-86.5 -240.5v-90q0 -153 86.5 -240.5t237.5 -87.5t236.5 87.5t85.5 240.5zM1064 739v-92q0 -94 -43.5 -147t-119.5 -53q-77 0 -121 53t-44 147v92q0 94 44 147t121 53q76 0 119.5 -53t43.5 -147zM900 -50
q-149 0 -285 58.5t-234 156.5t-156.5 234t-58.5 285t58.5 285t156.5 234t234 156.5t285 58.5t285 -58.5t234 -156.5t156.5 -234t58.5 -285t-58.5 -285t-156.5 -234t-234 -156.5t-285 -58.5z" />
    <glyph glyph-name="uni1F15F" unicode="P&#x25cb;&#x25cf;" 
d="M961 1053h-301v-719h156v237h144q116 0 186.5 65.5t70.5 173.5q0 109 -70.5 176t-185.5 67zM1061 810q0 -57 -33 -88.5t-92 -31.5h-123v240h123q59 0 92 -31.5t33 -88.5zM900 -50q-149 0 -285 58.5t-234 156.5t-156.5 234t-58.5 285t58.5 285t156.5 234t234 156.5
t285 58.5t285 -58.5t234 -156.5t156.5 -234t58.5 -285t-58.5 -285t-156.5 -234t-234 -156.5t-285 -58.5z" />
    <glyph glyph-name="uni1F160" unicode="Q&#x25cb;&#x25cf;" 
d="M1220 265l-96 130q98 87 98 253v90q0 153 -85.5 240.5t-236.5 87.5t-237.5 -87.5t-86.5 -240.5v-90q0 -153 86.5 -240.5t237.5 -87.5q60 0 110 15l50 -70h160zM898 447q-77 1 -120.5 54t-43.5 145v93q0 94 44 147t122 53q77 0 120.5 -53t43.5 -147v-93q0 -81 -33 -132
l-38 50h-139l82 -113q-15 -4 -38 -4zM900 -50q-149 0 -285 58.5t-234 156.5t-156.5 234t-58.5 285t58.5 285t156.5 234t234 156.5t285 58.5t285 -58.5t234 -156.5t156.5 -234t58.5 -285t-58.5 -285t-156.5 -234t-234 -156.5t-285 -58.5z" />
    <glyph glyph-name="uni1F161" unicode="R&#x25cb;&#x25cf;" 
d="M782 712v220h130q59 0 92.5 -30t33.5 -82t-33.5 -80t-95.5 -28h-127zM931 1053h-300v-719h152v265h128l129 -265h174l-152 289q62 23 98 77t36 125q0 106 -71 167t-194 61zM900 -50q-149 0 -285 58.5t-234 156.5t-156.5 234t-58.5 285t58.5 285t156.5 234t234 156.5
t285 58.5t285 -58.5t234 -156.5t156.5 -234t58.5 -285t-58.5 -285t-156.5 -234t-234 -156.5t-285 -58.5z" />
    <glyph glyph-name="uni1F162" unicode="S&#x25cb;&#x25cf;" 
d="M605 544q2 -103 81.5 -163.5t210.5 -60.5q137 0 217.5 61.5t80.5 165.5q0 83 -49.5 133t-153.5 72l-115 25q-99 19 -99 80q0 41 34.5 66t90.5 25q57 0 93 -27t41 -72h147q-2 98 -79.5 158t-200.5 60q-125 0 -203 -61t-78 -159q0 -77 49 -128.5t142 -70.5l115 -26
q60 -13 86.5 -33.5t26.5 -53.5q0 -43 -37 -68.5t-100 -25.5t-104 28.5t-45 74.5h-151zM900 -50q-149 0 -285 58.5t-234 156.5t-156.5 234t-58.5 285t58.5 285t156.5 234t234 156.5t285 58.5t285 -58.5t234 -156.5t156.5 -234t58.5 -285t-58.5 -285t-156.5 -234t-234 -156.5
t-285 -58.5z" />
    <glyph glyph-name="uni1F163" unicode="T&#x25cb;&#x25cf;" 
d="M978 313v590h213v129h-582v-129h213v-590h156zM900 -50q-149 0 -285 58.5t-234 156.5t-156.5 234t-58.5 285t58.5 285t156.5 234t234 156.5t285 58.5t285 -58.5t234 -156.5t156.5 -234t58.5 -285t-58.5 -285t-156.5 -234t-234 -156.5t-285 -58.5z" />
    <glyph glyph-name="uni1F164" unicode="U&#x25cb;&#x25cf;" 
d="M900 431q-70 0 -109 38t-39 106v457h-156v-472q0 -118 83 -189t221 -71q137 0 220.5 71.5t83.5 188.5v472h-155v-457q0 -67 -40 -105.5t-109 -38.5zM900 -50q-149 0 -285 58.5t-234 156.5t-156.5 234t-58.5 285t58.5 285t156.5 234t234 156.5t285 58.5t285 -58.5
t234 -156.5t156.5 -234t58.5 -285t-58.5 -285t-156.5 -234t-234 -156.5t-285 -58.5z" />
    <glyph glyph-name="uni1F165" unicode="V&#x25cb;&#x25cf;" 
d="M991 312l253 719h-178l-163 -556h-6l-163 556h-178l253 -719h182zM900 -50q-149 0 -285 58.5t-234 156.5t-156.5 234t-58.5 285t58.5 285t156.5 234t234 156.5t285 58.5t285 -58.5t234 -156.5t156.5 -234t58.5 -285t-58.5 -285t-156.5 -234t-234 -156.5t-285 -58.5z" />
    <glyph glyph-name="uni1F166" unicode="W&#x25cb;&#x25cf;" 
d="M898 807h4l135 -494h139l197 719h-164l-108 -520h-4l-130 520h-133l-131 -520h-4l-108 520h-164l197 -719h139zM900 -50q-149 0 -285 58.5t-234 156.5t-156.5 234t-58.5 285t58.5 285t156.5 234t234 156.5t285 58.5t285 -58.5t234 -156.5t156.5 -234t58.5 -285
t-58.5 -285t-156.5 -234t-234 -156.5t-285 -58.5z" />
    <glyph glyph-name="uni1F167" unicode="X&#x25cb;&#x25cf;" 
d="M1236 1053h-178l-149 -254h-3l-154 254h-185l231 -357l-234 -362h173l156 249h3l156 -249h180l-234 358zM900 -50q-149 0 -285 58.5t-234 156.5t-156.5 234t-58.5 285t58.5 285t156.5 234t234 156.5t285 58.5t285 -58.5t234 -156.5t156.5 -234t58.5 -285t-58.5 -285
t-156.5 -234t-234 -156.5t-285 -58.5z" />
    <glyph glyph-name="uni1F168" unicode="Y&#x25cb;&#x25cf;" 
d="M821 326h158v274l253 445h-173l-157 -299h-4l-157 299h-173l253 -445v-274zM900 -50q-149 0 -285 58.5t-234 156.5t-156.5 234t-58.5 285t58.5 285t156.5 234t234 156.5t285 58.5t285 -58.5t234 -156.5t156.5 -234t58.5 -285t-58.5 -285t-156.5 -234t-234 -156.5
t-285 -58.5z" />
    <glyph glyph-name="uni1F169" unicode="Z&#x25cb;&#x25cf;" 
d="M622 334h557v127h-367v1l357 490v101h-538v-128h348v-1l-357 -490v-100zM900 -50q-149 0 -285 58.5t-234 156.5t-156.5 234t-58.5 285t58.5 285t156.5 234t234 156.5t285 58.5t285 -58.5t234 -156.5t156.5 -234t58.5 -285t-58.5 -285t-156.5 -234t-234 -156.5t-285 -58.5
z" />
    <glyph glyph-name="uni1F170" unicode="A&#x25a1;&#x25a0;" 
d="M992 628h-184l89 277h6zM717 335l60 180h246l60 -180h158l-253 719h-176l-253 -719h158zM435 1397h930q103 0 175.5 -71.5t72.5 -172.5v-938q0 -101 -72.5 -172.5t-175.5 -71.5h-930q-103 0 -175.5 71.5t-72.5 172.5v938q0 101 72.5 172.5t175.5 71.5z" />
    <glyph glyph-name="uni1F171" unicode="B&#x25a1;&#x25a0;" 
d="M641 334h315q118 0 190.5 55t72.5 149q0 74 -44 120t-116 57v1q55 16 88 56.5t33 101.5q0 83 -60.5 131t-162.5 48h-316v-719zM794 939h128q50 0 78.5 -24t28.5 -65q0 -94 -142 -94h-93v183zM793 651h139q62 0 95.5 -27.5t33.5 -76.5q0 -50 -39 -74t-123 -24h-106v202z
M435 1397h930q103 0 175.5 -71.5t72.5 -172.5v-938q0 -101 -72.5 -172.5t-175.5 -71.5h-930q-103 0 -175.5 71.5t-72.5 172.5v938q0 101 72.5 172.5t175.5 71.5z" />
    <glyph glyph-name="uni1F172" unicode="C&#x25a1;&#x25a0;" 
d="M754 736q0 97 41.5 149.5t117.5 52.5q65 0 104.5 -40.5t39.5 -103.5h150v17q0 112 -83.5 183.5t-211.5 71.5q-149 0 -232.5 -88t-83.5 -242v-88q0 -155 82.5 -241.5t233.5 -86.5q128 0 211.5 69.5t83.5 177.5v17h-150q0 -61 -39.5 -98.5t-104.5 -37.5q-76 0 -117.5 52
t-41.5 148v88zM435 1397h930q103 0 175.5 -71.5t72.5 -172.5v-938q0 -101 -72.5 -172.5t-175.5 -71.5h-930q-103 0 -175.5 71.5t-72.5 172.5v938q0 101 72.5 172.5t175.5 71.5z" />
    <glyph glyph-name="uni1F173" unicode="D&#x25a1;&#x25a0;" 
d="M614 1053v-719h275q167 0 251.5 92.5t84.5 267.5t-84 267t-252 92h-275zM768 929h101q101 0 149.5 -58.5t48.5 -177.5q0 -120 -48 -178t-150 -58h-101v472zM435 1397h930q103 0 175.5 -71.5t72.5 -172.5v-938q0 -101 -72.5 -172.5t-175.5 -71.5h-930q-103 0 -175.5 71.5
t-72.5 172.5v938q0 101 72.5 172.5t175.5 71.5z" />
    <glyph glyph-name="uni1F174" unicode="E&#x25a1;&#x25a0;" 
d="M1147 457h-335v183h315v115h-315v175h335v123h-488v-719h488v123zM435 1397h930q103 0 175.5 -71.5t72.5 -172.5v-938q0 -101 -72.5 -172.5t-175.5 -71.5h-930q-103 0 -175.5 71.5t-72.5 172.5v938q0 101 72.5 172.5t175.5 71.5z" />
    <glyph glyph-name="uni1F175" unicode="F&#x25a1;&#x25a0;" 
d="M844 334v282h298v124h-298v187h326v126h-482v-719h156zM435 1397h930q103 0 175.5 -71.5t72.5 -172.5v-938q0 -101 -72.5 -172.5t-175.5 -71.5h-930q-103 0 -175.5 71.5t-72.5 172.5v938q0 101 72.5 172.5t175.5 71.5z" />
    <glyph glyph-name="uni1F176" unicode="G&#x25a1;&#x25a0;" 
d="M1207 817q-6 108 -86.5 178.5t-211.5 70.5q-150 0 -236 -88.5t-86 -237.5v-90q0 -153 83.5 -241.5t239.5 -88.5q142 0 220 73t78 187v143h-305v-113h157v-41q0 -55 -39 -90t-110 -35q-84 0 -126.5 54t-42.5 150v91q0 97 43 149.5t122 52.5q62 0 102.5 -34t47.5 -90h150z
M435 1397h930q103 0 175.5 -71.5t72.5 -172.5v-938q0 -101 -72.5 -172.5t-175.5 -71.5h-930q-103 0 -175.5 71.5t-72.5 172.5v938q0 101 72.5 172.5t175.5 71.5z" />
    <glyph glyph-name="uni1F177" unicode="H&#x25a1;&#x25a0;" 
d="M1206 334v719h-153v-288h-305v288h-154v-719h154v303h305v-303h153zM435 1397h930q103 0 175.5 -71.5t72.5 -172.5v-938q0 -101 -72.5 -172.5t-175.5 -71.5h-930q-103 0 -175.5 71.5t-72.5 172.5v938q0 101 72.5 172.5t175.5 71.5z" />
    <glyph glyph-name="uni1F178" unicode="I&#x25a1;&#x25a0;" 
d="M979 334v719h-158v-719h158zM435 1397h930q103 0 175.5 -71.5t72.5 -172.5v-938q0 -101 -72.5 -172.5t-175.5 -71.5h-930q-103 0 -175.5 71.5t-72.5 172.5v938q0 101 72.5 172.5t175.5 71.5z" />
    <glyph glyph-name="uni1F179" unicode="J&#x25a1;&#x25a0;" 
d="M616 548q0 -99 65 -163t181 -64q119 0 186 64t67 182v486h-156v-489q0 -107 -99 -107q-41 0 -66 25t-26 66h-152zM435 1397h930q103 0 175.5 -71.5t72.5 -172.5v-938q0 -101 -72.5 -172.5t-175.5 -71.5h-930q-103 0 -175.5 71.5t-72.5 172.5v938q0 101 72.5 172.5
t175.5 71.5z" />
    <glyph glyph-name="uni1F17A" unicode="K&#x25a1;&#x25a0;" 
d="M1232 1053h-174l-278 -315h-2v315h-153v-719h153v227l71 78l206 -305h187l-278 406zM435 1397h930q103 0 175.5 -71.5t72.5 -172.5v-938q0 -101 -72.5 -172.5t-175.5 -71.5h-930q-103 0 -175.5 71.5t-72.5 172.5v938q0 101 72.5 172.5t175.5 71.5z" />
    <glyph glyph-name="uni1F17B" unicode="L&#x25a1;&#x25a0;" 
d="M1186 465h-317v588h-157v-719h474v131zM435 1397h930q103 0 175.5 -71.5t72.5 -172.5v-938q0 -101 -72.5 -172.5t-175.5 -71.5h-930q-103 0 -175.5 71.5t-72.5 172.5v938q0 101 72.5 172.5t175.5 71.5z" />
    <glyph glyph-name="uni1F17C" unicode="M&#x25a1;&#x25a0;" 
d="M673 334v470h1l174 -380h104l173 376v-466h142v719h-157l-211 -457l-208 457h-158v-719h140zM435 1397h930q103 0 175.5 -71.5t72.5 -172.5v-938q0 -101 -72.5 -172.5t-175.5 -71.5h-930q-103 0 -175.5 71.5t-72.5 172.5v938q0 101 72.5 172.5t175.5 71.5z" />
    <glyph glyph-name="uni1F17D" unicode="N&#x25a1;&#x25a0;" 
d="M744 334v472h2l327 -472h129v719h-146v-472h-2l-328 472h-127v-719h145zM435 1397h930q103 0 175.5 -71.5t72.5 -172.5v-938q0 -101 -72.5 -172.5t-175.5 -71.5h-930q-103 0 -175.5 71.5t-72.5 172.5v938q0 101 72.5 172.5t175.5 71.5z" />
    <glyph glyph-name="uni1F17E" unicode="O&#x25a1;&#x25a0;" 
d="M1223 648v90q0 153 -85.5 240.5t-236.5 87.5t-237.5 -87.5t-86.5 -240.5v-90q0 -153 86.5 -240.5t237.5 -87.5t236.5 87.5t85.5 240.5zM1064 739v-92q0 -94 -43.5 -147t-119.5 -53q-77 0 -121 53t-44 147v92q0 94 44 147t121 53q76 0 119.5 -53t43.5 -147zM435 1397h930
q103 0 175.5 -71.5t72.5 -172.5v-938q0 -101 -72.5 -172.5t-175.5 -71.5h-930q-103 0 -175.5 71.5t-72.5 172.5v938q0 101 72.5 172.5t175.5 71.5z" />
    <glyph glyph-name="uni1F17F" unicode="P&#x25a1;&#x25a0;" 
d="M961 1053h-301v-719h156v237h144q118 0 187.5 66.5t69.5 172.5q0 107 -69 175t-187 68zM1061 810q0 -57 -33 -88.5t-92 -31.5h-123v240h123q59 0 92 -31t33 -89zM435 1397h930q103 0 175.5 -71.5t72.5 -172.5v-938q0 -101 -72.5 -172.5t-175.5 -71.5h-930
q-103 0 -175.5 71.5t-72.5 172.5v938q0 101 72.5 172.5t175.5 71.5z" />
    <glyph glyph-name="uni1F180" unicode="Q&#x25a1;&#x25a0;" 
d="M1220 265l-96 130q98 87 98 253v90q0 153 -85.5 240.5t-236.5 87.5t-237.5 -87.5t-86.5 -240.5v-90q0 -153 86.5 -240.5t237.5 -87.5q60 0 110 15l50 -70h160zM898 447q-77 1 -120.5 54t-43.5 145v93q0 94 44 147t122 53q77 0 120.5 -53t43.5 -147v-93q0 -81 -33 -132
l-38 50h-139l82 -113q-15 -4 -38 -4zM435 1397h930q103 0 175.5 -71.5t72.5 -172.5v-938q0 -101 -72.5 -172.5t-175.5 -71.5h-930q-103 0 -175.5 71.5t-72.5 172.5v938q0 101 72.5 172.5t175.5 71.5z" />
    <glyph glyph-name="uni1F181" unicode="R&#x25a1;&#x25a0;" 
d="M782 712v220h130q58 0 92 -29.5t34 -82.5q0 -52 -34 -80t-95 -28h-127zM931 1053h-300v-719h152v265h128l129 -265h174l-152 289q59 22 96.5 75t37.5 127q0 105 -70.5 166.5t-194.5 61.5zM435 1397h930q103 0 175.5 -71.5t72.5 -172.5v-938q0 -101 -72.5 -172.5
t-175.5 -71.5h-930q-103 0 -175.5 71.5t-72.5 172.5v938q0 101 72.5 172.5t175.5 71.5z" />
    <glyph glyph-name="uni1F182" unicode="S&#x25a1;&#x25a0;" 
d="M605 544q2 -103 81.5 -163.5t210.5 -60.5q137 0 217.5 61.5t80.5 165.5q0 83 -49.5 133t-153.5 72l-115 25q-99 19 -99 80q0 41 34.5 66t90.5 25q57 0 93 -27t41 -72h147q-2 98 -79.5 158t-200.5 60q-125 0 -203 -61t-78 -159q0 -77 49 -128.5t142 -70.5l115 -26
q60 -13 86.5 -33.5t26.5 -53.5q0 -43 -37 -68.5t-100 -25.5t-104 28.5t-45 74.5h-151zM435 1397h930q103 0 175.5 -71.5t72.5 -172.5v-938q0 -101 -72.5 -172.5t-175.5 -71.5h-930q-103 0 -175.5 71.5t-72.5 172.5v938q0 101 72.5 172.5t175.5 71.5z" />
    <glyph glyph-name="uni1F183" unicode="T&#x25a1;&#x25a0;" 
d="M978 334v590h213v129h-582v-129h213v-590h156zM435 1397h930q103 0 175.5 -71.5t72.5 -172.5v-938q0 -101 -72.5 -172.5t-175.5 -71.5h-930q-103 0 -175.5 71.5t-72.5 172.5v938q0 101 72.5 172.5t175.5 71.5z" />
    <glyph glyph-name="uni1F184" unicode="U&#x25a1;&#x25a0;" 
d="M900 451q-70 0 -109 38t-39 106v458h-156v-472q0 -118 83 -189t221 -71q137 0 220.5 71t83.5 189v472h-155v-458q0 -67 -40 -105.5t-109 -38.5zM435 1397h930q103 0 175.5 -71.5t72.5 -172.5v-938q0 -101 -72.5 -172.5t-175.5 -71.5h-930q-103 0 -175.5 71.5t-72.5 172.5
v938q0 101 72.5 172.5t175.5 71.5z" />
    <glyph glyph-name="uni1F185" unicode="V&#x25a1;&#x25a0;" 
d="M991 334l253 719h-178l-163 -556h-6l-163 556h-178l253 -719h182zM435 1397h930q103 0 175.5 -71.5t72.5 -172.5v-938q0 -101 -72.5 -172.5t-175.5 -71.5h-930q-103 0 -175.5 71.5t-72.5 172.5v938q0 101 72.5 172.5t175.5 71.5z" />
    <glyph glyph-name="uni1F186" unicode="W&#x25a1;&#x25a0;" 
d="M898 828h4l135 -494h139l197 719h-164l-108 -521h-4l-130 521h-133l-131 -521h-4l-108 521h-164l197 -719h139zM435 1397h930q103 0 175.5 -71.5t72.5 -172.5v-938q0 -101 -72.5 -172.5t-175.5 -71.5h-930q-103 0 -175.5 71.5t-72.5 172.5v938q0 101 72.5 172.5
t175.5 71.5z" />
    <glyph glyph-name="uni1F187" unicode="X&#x25a1;&#x25a0;" 
d="M1236 1054h-178l-149 -254h-3l-154 254h-185l231 -357l-234 -362h173l156 249h3l156 -249h180l-234 358zM435 1397h930q103 0 175.5 -71.5t72.5 -172.5v-938q0 -101 -72.5 -172.5t-175.5 -71.5h-930q-103 0 -175.5 71.5t-72.5 172.5v938q0 101 72.5 172.5t175.5 71.5z
" />
    <glyph glyph-name="uni1F188" unicode="Y&#x25a1;&#x25a0;" 
d="M821 335h158v274l253 445h-173l-157 -300h-4l-157 300h-173l253 -445v-274zM435 1397h930q103 0 175.5 -71.5t72.5 -172.5v-938q0 -101 -72.5 -172.5t-175.5 -71.5h-930q-103 0 -175.5 71.5t-72.5 172.5v938q0 101 72.5 172.5t175.5 71.5z" />
    <glyph glyph-name="uni1F189" unicode="Z&#x25a1;&#x25a0;" 
d="M622 335h557v127h-367v1l357 490v101h-538v-128h348v-1l-357 -490v-100zM435 1397h930q103 0 175.5 -71.5t72.5 -172.5v-938q0 -101 -72.5 -172.5t-175.5 -71.5h-930q-103 0 -175.5 71.5t-72.5 172.5v938q0 101 72.5 172.5t175.5 71.5z" />
    <glyph glyph-name="plus.uc.whitecircle" unicode="&#x2b;&#x25cb;" 
d="M957 637v-201h-114v201h-197v109h197v195h114v-195h197v-109h-197zM900 71q164 0 304 82.5t221 223.5t81 307t-81 307t-221 223.5t-304 82.5t-304 -82.5t-221 -223.5t-81 -307t81 -307t221 -223.5t304 -82.5zM900 -50q-199 0 -368 98.5t-267.5 267.5t-98.5 368t98.5 368
t267.5 267.5t368 98.5t368 -98.5t267.5 -267.5t98.5 -368t-98.5 -368t-267.5 -267.5t-368 -98.5z" />
    <glyph glyph-name="minus.uc.whitecircle" unicode="&#x2212;&#x25cb;" 
d="M1141 633h-482v111h482v-111zM900 71q164 0 304 82.5t221 223.5t81 307t-81 307t-221 223.5t-304 82.5t-304 -82.5t-221 -223.5t-81 -307t81 -307t221 -223.5t304 -82.5zM900 -50q-199 0 -368 98.5t-267.5 267.5t-98.5 368t98.5 368t267.5 267.5t368 98.5t368 -98.5
t267.5 -267.5t98.5 -368t-98.5 -368t-267.5 -267.5t-368 -98.5z" />
    <glyph glyph-name="multiply.uc.whitecircle" unicode="&#xd7;&#x25cb;" 
d="M900 767l152 146l80 -79l-151 -146l151 -145l-80 -79l-152 146l-152 -146l-80 79l151 145l-151 146l80 79zM900 71q164 0 304 82.5t221 223.5t81 307t-81 307t-221 223.5t-304 82.5t-304 -82.5t-221 -223.5t-81 -307t81 -307t221 -223.5t304 -82.5zM900 -50
q-199 0 -368 98.5t-267.5 267.5t-98.5 368t98.5 368t267.5 267.5t368 98.5t368 -98.5t267.5 -267.5t98.5 -368t-98.5 -368t-267.5 -267.5t-368 -98.5z" />
    <glyph glyph-name="divide.uc.whitecircle" unicode="&#xf7;&#x25cb;" 
d="M1141 641h-482v95h482v-95zM822 885q0 33 22 54t55 21q35 0 57.5 -21t22.5 -54q0 -31 -23 -51.5t-57 -20.5q-33 0 -55 20.5t-22 51.5zM822 494q0 33 22.5 54t55.5 21q34 0 56.5 -21t22.5 -54q0 -31 -22.5 -51.5t-56.5 -20.5q-33 0 -55.5 20.5t-22.5 51.5zM900 71
q164 0 304 82.5t221 223.5t81 307t-81 307t-221 223.5t-304 82.5t-304 -82.5t-221 -223.5t-81 -307t81 -307t221 -223.5t304 -82.5zM900 -50q-199 0 -368 98.5t-267.5 267.5t-98.5 368t98.5 368t267.5 267.5t368 98.5t368 -98.5t267.5 -267.5t98.5 -368t-98.5 -368
t-267.5 -267.5t-368 -98.5z" />
    <glyph glyph-name="equal.uc.whitecircle" unicode="&#x3d;&#x25cb;" 
d="M1133 526h-466v102h466v-102zM1133 748h-466v102h466v-102zM900 71q164 0 304 82.5t221 223.5t81 307t-81 307t-221 223.5t-304 82.5t-304 -82.5t-221 -223.5t-81 -307t81 -307t221 -223.5t304 -82.5zM900 -50q-199 0 -368 98.5t-267.5 267.5t-98.5 368t98.5 368
t267.5 267.5t368 98.5t368 -98.5t267.5 -267.5t98.5 -368t-98.5 -368t-267.5 -267.5t-368 -98.5z" />
    <glyph glyph-name="greater.uc.whitecircle" unicode="&#x3e;&#x25cb;" 
d="M1156 725v-84l-461 -234v128l308 148v5l-308 152v130zM900 71q164 0 304 82.5t221 223.5t81 307t-81 307t-221 223.5t-304 82.5t-304 -82.5t-221 -223.5t-81 -307t81 -307t221 -223.5t304 -82.5zM900 -50q-199 0 -368 98.5t-267.5 267.5t-98.5 368t98.5 368t267.5 267.5
t368 98.5t368 -98.5t267.5 -267.5t98.5 -368t-98.5 -368t-267.5 -267.5t-368 -98.5z" />
    <glyph glyph-name="less.uc.whitecircle" unicode="&#x3c;&#x25cb;" 
d="M645 641v84l460 245v-130l-308 -152v-5l308 -148v-128zM900 71q164 0 304 82.5t221 223.5t81 307t-81 307t-221 223.5t-304 82.5t-304 -82.5t-221 -223.5t-81 -307t81 -307t221 -223.5t304 -82.5zM900 -50q-199 0 -368 98.5t-267.5 267.5t-98.5 368t98.5 368t267.5 267.5
t368 98.5t368 -98.5t267.5 -267.5t98.5 -368t-98.5 -368t-267.5 -267.5t-368 -98.5z" />
    <glyph glyph-name="numbersign.whitecircle" unicode="&#x23;&#x25cb;" 
d="M1172 753h-103l-27 -122h100l-19 -93h-100l-37 -176h-100l37 176h-116l-37 -176h-99l36 176h-98l19 93h98l27 122h-95l18 94h96l35 168h100l-35 -168h116l35 168h100l-35 -168h103zM847 759l-30 -140h132l29 140h-131zM900 71q164 0 304 82.5t221 223.5t81 307t-81 307
t-221 223.5t-304 82.5t-304 -82.5t-221 -223.5t-81 -307t81 -307t221 -223.5t304 -82.5zM900 -50q-199 0 -368 98.5t-267.5 267.5t-98.5 368t98.5 368t267.5 267.5t368 98.5t368 -98.5t267.5 -267.5t98.5 -368t-98.5 -368t-267.5 -267.5t-368 -98.5z" />
    <glyph glyph-name="uni25BC.whitecircle" unicode="&#x25bc;&#x25cb;" 
d="M1199 890l-299 -518l-298 518h597zM900 71q164 0 304 82.5t221 223.5t81 307t-81 307t-221 223.5t-304 82.5t-304 -82.5t-221 -223.5t-81 -307t81 -307t221 -223.5t304 -82.5zM900 -50q-199 0 -368 98.5t-267.5 267.5t-98.5 368t98.5 368t267.5 267.5t368 98.5t368 -98.5
t267.5 -267.5t98.5 -368t-98.5 -368t-267.5 -267.5t-368 -98.5z" />
    <glyph glyph-name="uni25B2.whitecircle" unicode="&#x25b2;&#x25cb;" 
d="M1199 487h-597l298 518zM900 71q164 0 304 82.5t221 223.5t81 307t-81 307t-221 223.5t-304 82.5t-304 -82.5t-221 -223.5t-81 -307t81 -307t221 -223.5t304 -82.5zM900 -50q-199 0 -368 98.5t-267.5 267.5t-98.5 368t98.5 368t267.5 267.5t368 98.5t368 -98.5
t267.5 -267.5t98.5 -368t-98.5 -368t-267.5 -267.5t-368 -98.5z" />
    <glyph glyph-name="uni25C0.whitecircle" unicode="&#x25c0;&#x25cb;" 
d="M1101 390l-517 299l517 298v-597zM900 71q164 0 304 82.5t221 223.5t81 307t-81 307t-221 223.5t-304 82.5t-304 -82.5t-221 -223.5t-81 -307t81 -307t221 -223.5t304 -82.5zM900 -50q-199 0 -368 98.5t-267.5 267.5t-98.5 368t98.5 368t267.5 267.5t368 98.5t368 -98.5
t267.5 -267.5t98.5 -368t-98.5 -368t-267.5 -267.5t-368 -98.5z" />
    <glyph glyph-name="uni25B6.whitecircle" unicode="&#x25b6;&#x25cb;" 
d="M699 390v597l517 -298zM900 71q164 0 304 82.5t221 223.5t81 307t-81 307t-221 223.5t-304 82.5t-304 -82.5t-221 -223.5t-81 -307t81 -307t221 -223.5t304 -82.5zM900 -50q-199 0 -368 98.5t-267.5 267.5t-98.5 368t98.5 368t267.5 267.5t368 98.5t368 -98.5
t267.5 -267.5t98.5 -368t-98.5 -368t-267.5 -267.5t-368 -98.5z" />
    <glyph glyph-name="question.whitecircle" unicode="&#x3f;&#x25cb;" 
d="M800 431q0 34 24.5 55t63.5 21q40 0 65 -21t25 -55q0 -32 -25 -52.5t-65 -20.5q-39 0 -63.5 20.5t-24.5 52.5zM824 572q-1 1 -1 33q-4 87 90 149q29 20 41.5 30.5t23.5 28.5t11 39q0 40 -26.5 59.5t-66.5 19.5q-45 0 -70 -26t-25 -67h-123q-2 99 63.5 147t162.5 48
q94 0 157 -45.5t63 -128.5q0 -39 -16.5 -70.5t-34 -47t-48.5 -37.5q-37 -26 -49 -35.5t-22.5 -28.5t-10.5 -45v-23h-119zM900 71q164 0 304 82.5t221 223.5t81 307t-81 307t-221 223.5t-304 82.5t-304 -82.5t-221 -223.5t-81 -307t81 -307t221 -223.5t304 -82.5zM900 -50
q-199 0 -368 98.5t-267.5 267.5t-98.5 368t98.5 368t267.5 267.5t368 98.5t368 -98.5t267.5 -267.5t98.5 -368t-98.5 -368t-267.5 -267.5t-368 -98.5z" />
    <glyph glyph-name="exclam.whitecircle" unicode="&#x21;&#x25cb;" 
d="M812 431q0 35 24.5 55.5t64.5 20.5t64 -21t24 -55q0 -32 -24 -52.5t-64 -20.5t-64.5 20.5t-24.5 52.5zM828 1020h146l-15 -429h-116zM900 71q164 0 304 82.5t221 223.5t81 307t-81 307t-221 223.5t-304 82.5t-304 -82.5t-221 -223.5t-81 -307t81 -307t221 -223.5
t304 -82.5zM900 -50q-199 0 -368 98.5t-267.5 267.5t-98.5 368t98.5 368t267.5 267.5t368 98.5t368 -98.5t267.5 -267.5t98.5 -368t-98.5 -368t-267.5 -267.5t-368 -98.5z" />
    <glyph glyph-name="uni2717.whitecircle" unicode="&#x2717;&#x25cb;" 
d="M904 769l238 237l85 -85l-238 -237l238 -237l-85 -87l-238 238l-238 -238l-86 87l238 237l-238 238l84 86zM900 71q164 0 304 82.5t221 223.5t81 307t-81 307t-221 223.5t-304 82.5t-304 -82.5t-221 -223.5t-81 -307t81 -307t221 -223.5t304 -82.5zM900 -50
q-199 0 -368 98.5t-267.5 267.5t-98.5 368t98.5 368t267.5 267.5t368 98.5t368 -98.5t267.5 -267.5t98.5 -368t-98.5 -368t-267.5 -267.5t-368 -98.5z" />
    <glyph glyph-name="uni2713.whitecircle" unicode="&#x2713;&#x25cb;" 
d="M1300 889l-515 -511l-275 273l90 90l185 -185l426 424zM900 71q164 0 304 82.5t221 223.5t81 307t-81 307t-221 223.5t-304 82.5t-304 -82.5t-221 -223.5t-81 -307t81 -307t221 -223.5t304 -82.5zM900 -50q-199 0 -368 98.5t-267.5 267.5t-98.5 368t98.5 368t267.5 267.5
t368 98.5t368 -98.5t267.5 -267.5t98.5 -368t-98.5 -368t-267.5 -267.5t-368 -98.5z" />
    <glyph glyph-name="zero.whitesquare" unicode="&#x30;&#x25a1;" 
d="M775 708v-28q0 -105 33.5 -161.5t91.5 -56.5t92 57t34 161v28q0 104 -33.5 160.5t-92.5 56.5t-92 -56.5t-33 -160.5zM640 680v29q0 147 70 235.5t191 88.5q123 0 191 -88t68 -236v-29q0 -145 -69 -235t-192 -90q-122 0 -190.5 88.5t-68.5 236.5zM435 1397h930
q103 0 175.5 -71.5t72.5 -172.5v-938q0 -101 -72.5 -172.5t-175.5 -71.5h-930q-103 0 -175.5 71.5t-72.5 172.5v938q0 101 72.5 172.5t175.5 71.5zM1485 1148q0 55 -39.5 93t-96.5 38h-898q-57 0 -96.5 -38t-39.5 -93v-928q0 -54 40 -93t96 -39h898q56 0 96 39t40 93v928z
" />
    <glyph glyph-name="one.whitesquare" unicode="&#x31;&#x25a1;" 
d="M1006 367h-135v527h-7l-154 -105v121l161 110h135v-653zM435 1397h930q103 0 175.5 -71.5t72.5 -172.5v-938q0 -101 -72.5 -172.5t-175.5 -71.5h-930q-103 0 -175.5 71.5t-72.5 172.5v938q0 101 72.5 172.5t175.5 71.5zM1485 1148q0 55 -39.5 93t-96.5 38h-898
q-57 0 -96.5 -38t-39.5 -93v-928q0 -54 40 -93t96 -39h898q56 0 96 39t40 93v928z" />
    <glyph glyph-name="two.whitesquare" unicode="&#x32;&#x25a1;" 
d="M795 825h-128v5q0 84 61.5 143.5t172.5 59.5q104 0 168 -52t64 -133q0 -30 -8.5 -56.5t-29 -55t-35 -44.5l-47.5 -50l-154 -160v-7h286v-108h-472v83l250 255q24 25 37.5 41t26 41.5t12.5 49.5q0 40 -28.5 65t-72.5 25q-48 0 -75.5 -28t-27.5 -69v-5zM435 1397h930
q103 0 175.5 -71.5t72.5 -172.5v-938q0 -101 -72.5 -172.5t-175.5 -71.5h-930q-103 0 -175.5 71.5t-72.5 172.5v938q0 101 72.5 172.5t175.5 71.5zM1485 1148q0 55 -39.5 93t-96.5 38h-898q-57 0 -96.5 -38t-39.5 -93v-928q0 -54 40 -93t96 -39h898q56 0 96 39t40 93v928z
" />
    <glyph glyph-name="three.whitesquare" unicode="&#x33;&#x25a1;" 
d="M826 652v102h71q46 0 75.5 25.5t29.5 65.5q-1 38 -30 62t-75 24t-75.5 -24t-31.5 -57h-126q2 80 64.5 131t171.5 52q105 0 169 -47.5t66 -122.5q1 -62 -40 -102.5t-87 -47.5v-7q55 -5 100.5 -45.5t46.5 -110.5q1 -89 -72.5 -142t-186.5 -53q-111 0 -177 52.5t-68 131.5
h124q4 -35 38 -58t84 -23q56 0 90 27.5t34 69.5q-1 43 -34 70t-87 27h-74zM435 1397h930q103 0 175.5 -71.5t72.5 -172.5v-938q0 -101 -72.5 -172.5t-175.5 -71.5h-930q-103 0 -175.5 71.5t-72.5 172.5v938q0 101 72.5 172.5t175.5 71.5zM1485 1148q0 55 -39.5 93t-96.5 38
h-898q-57 0 -96.5 -38t-39.5 -93v-928q0 -54 40 -93t96 -39h898q56 0 96 39t40 93v928z" />
    <glyph glyph-name="four.whitesquare" unicode="&#x34;&#x25a1;" 
d="M884 1020h196v-426h84v-107h-84v-120h-128v120h-330v108l73.5 126l104 166zM744 594h208v326h-7q-132 -201 -201 -322v-4zM435 1397h930q103 0 175.5 -71.5t72.5 -172.5v-938q0 -101 -72.5 -172.5t-175.5 -71.5h-930q-103 0 -175.5 71.5t-72.5 172.5v938
q0 101 72.5 172.5t175.5 71.5zM1485 1148q0 55 -39.5 93t-96.5 38h-898q-57 0 -96.5 -38t-39.5 -93v-928q0 -54 40 -93t96 -39h898q56 0 96 39t40 93v928z" />
    <glyph glyph-name="five.whitesquare" unicode="&#x35;&#x25a1;" 
d="M663 536h126q7 -37 41 -57t78 -20q50 0 86.5 33.5t36.5 90.5q0 52 -35.5 84t-87.5 32q-41 0 -70 -18t-42 -42h-119l29 381h419v-104h-312l-15 -175h7q14 21 50.5 39t88.5 18q93 0 156 -57t63 -154q0 -105 -71 -168.5t-187 -63.5q-104 0 -171 51.5t-71 129.5zM435 1397
h930q103 0 175.5 -71.5t72.5 -172.5v-938q0 -101 -72.5 -172.5t-175.5 -71.5h-930q-103 0 -175.5 71.5t-72.5 172.5v938q0 101 72.5 172.5t175.5 71.5zM1485 1148q0 55 -39.5 93t-96.5 38h-898q-57 0 -96.5 -38t-39.5 -93v-928q0 -54 40 -93t96 -39h898q56 0 96 39t40 93
v928z" />
    <glyph glyph-name="six.whitesquare" unicode="&#x36;&#x25a1;" 
d="M1150 585q0 -103 -69 -167t-180 -64q-113 0 -182.5 66t-69.5 172q0 112 93 244q8 13 66 91.5t71 92.5h156q-13 -13 -88 -109t-92 -120q-20 -30 -23 -35l8 -2q41 41 110 41q87 0 143.5 -59.5t56.5 -150.5zM778 580q0 -51 34.5 -85.5t86.5 -34.5t86.5 34.5t34.5 85.5
t-34.5 85.5t-86.5 34.5t-86.5 -34.5t-34.5 -85.5zM435 1397h930q103 0 175.5 -71.5t72.5 -172.5v-938q0 -101 -72.5 -172.5t-175.5 -71.5h-930q-103 0 -175.5 71.5t-72.5 172.5v938q0 101 72.5 172.5t175.5 71.5zM1485 1148q0 55 -39.5 93t-96.5 38h-898q-57 0 -96.5 -38
t-39.5 -93v-928q0 -54 40 -93t96 -39h898q56 0 96 39t40 93v928z" />
    <glyph glyph-name="seven.whitesquare" unicode="&#x37;&#x25a1;" 
d="M671 1020h473v-109l-276 -544h-143l280 540v6h-334v107zM435 1397h930q103 0 175.5 -71.5t72.5 -172.5v-938q0 -101 -72.5 -172.5t-175.5 -71.5h-930q-103 0 -175.5 71.5t-72.5 172.5v938q0 101 72.5 172.5t175.5 71.5zM1485 1148q0 55 -39.5 93t-96.5 38h-898
q-57 0 -96.5 -38t-39.5 -93v-928q0 -54 40 -93t96 -39h898q56 0 96 39t40 93v928z" />
    <glyph glyph-name="eight.whitesquare" unicode="&#x38;&#x25a1;" 
d="M900 450q56 0 92.5 30t36.5 76q0 47 -36.5 77t-92.5 30t-93 -30.5t-37 -76.5t37 -76t93 -30zM900 753q47 0 77 26t30 67q0 40 -30 65.5t-77 25.5t-77 -25.5t-30 -65.5q0 -41 30 -67t77 -26zM898 355q-118 0 -190.5 53t-72.5 139q0 61 39.5 105.5t103.5 56.5v6
q-55 17 -85.5 54.5t-30.5 89.5q0 77 66.5 125.5t171.5 48.5t171.5 -48.5t66.5 -125.5q0 -52 -31 -90t-85 -54v-6q64 -12 103.5 -56t39.5 -105q0 -87 -73.5 -140t-193.5 -53zM435 1397h930q103 0 175.5 -71.5t72.5 -172.5v-938q0 -101 -72.5 -172.5t-175.5 -71.5h-930
q-103 0 -175.5 71.5t-72.5 172.5v938q0 101 72.5 172.5t175.5 71.5zM1485 1148q0 55 -39.5 93t-96.5 38h-898q-57 0 -96.5 -38t-39.5 -93v-928q0 -54 40 -93t96 -39h898q56 0 96 39t40 93v928z" />
    <glyph glyph-name="nine.whitesquare" unicode="&#x39;&#x25a1;" 
d="M652 802q0 103 68.5 166.5t179.5 63.5q113 0 182.5 -65t69.5 -172q0 -111 -93 -243q-8 -13 -66.5 -92t-70.5 -93h-155q13 14 89 110.5t90 117.5l12 18.5l11 17.5l-8 2q-38 -40 -110 -40q-86 0 -142.5 59.5t-56.5 149.5zM1023 806q0 52 -34.5 85.5t-86.5 33.5
q-53 0 -87 -33.5t-34 -85.5q0 -51 34.5 -84.5t86.5 -33.5t86.5 33.5t34.5 84.5zM435 1397h930q103 0 175.5 -71.5t72.5 -172.5v-938q0 -101 -72.5 -172.5t-175.5 -71.5h-930q-103 0 -175.5 71.5t-72.5 172.5v938q0 101 72.5 172.5t175.5 71.5zM1485 1148q0 55 -39.5 93
t-96.5 38h-898q-57 0 -96.5 -38t-39.5 -93v-928q0 -54 40 -93t96 -39h898q56 0 96 39t40 93v928z" />
    <glyph glyph-name="plus.uc.whitesquare" unicode="&#x2b;&#x25a1;" 
d="M957 637v-202h-114v202h-197v109h197v194h114v-194h197v-109h-197zM435 1397h930q103 0 175.5 -71.5t72.5 -172.5v-938q0 -101 -72.5 -172.5t-175.5 -71.5h-930q-103 0 -175.5 71.5t-72.5 172.5v938q0 101 72.5 172.5t175.5 71.5zM1485 1148q0 55 -39.5 93t-96.5 38h-898
q-57 0 -96.5 -38t-39.5 -93v-928q0 -54 40 -93t96 -39h898q56 0 96 39t40 93v928z" />
    <glyph glyph-name="minus.uc.whitesquare" unicode="&#x2212;&#x25a1;" 
d="M1141 632h-482v112h482v-112zM435 1397h930q103 0 175.5 -71.5t72.5 -172.5v-938q0 -101 -72.5 -172.5t-175.5 -71.5h-930q-103 0 -175.5 71.5t-72.5 172.5v938q0 101 72.5 172.5t175.5 71.5zM1485 1148q0 55 -39.5 93t-96.5 38h-898q-57 0 -96.5 -38t-39.5 -93v-928
q0 -54 40 -93t96 -39h898q56 0 96 39t40 93v928z" />
    <glyph glyph-name="multiply.uc.whitesquare" unicode="&#xd7;&#x25a1;" 
d="M900 767l152 145l80 -79l-151 -145l151 -146l-80 -78l-152 145l-152 -145l-80 78l151 146l-151 145l80 79zM435 1397h930q103 0 175.5 -71.5t72.5 -172.5v-938q0 -101 -72.5 -172.5t-175.5 -71.5h-930q-103 0 -175.5 71.5t-72.5 172.5v938q0 101 72.5 172.5t175.5 71.5z
M1485 1148q0 55 -39.5 93t-96.5 38h-898q-57 0 -96.5 -38t-39.5 -93v-928q0 -54 40 -93t96 -39h898q56 0 96 39t40 93v928z" />
    <glyph glyph-name="divide.uc.whitesquare" unicode="&#xf7;&#x25a1;" 
d="M1141 640h-482v96h482v-96zM822 885q0 33 22 53.5t55 20.5q35 0 57.5 -20.5t22.5 -53.5q0 -31 -23 -52t-57 -21q-33 0 -55 20.5t-22 52.5zM822 494q0 33 22.5 53.5t55.5 20.5q34 0 56.5 -20.5t22.5 -53.5q0 -31 -22.5 -52t-56.5 -21q-33 0 -55.5 21t-22.5 52zM435 1397
h930q103 0 175.5 -71.5t72.5 -172.5v-938q0 -101 -72.5 -172.5t-175.5 -71.5h-930q-103 0 -175.5 71.5t-72.5 172.5v938q0 101 72.5 172.5t175.5 71.5zM1485 1148q0 55 -39.5 93t-96.5 38h-898q-57 0 -96.5 -38t-39.5 -93v-928q0 -54 40 -93t96 -39h898q56 0 96 39t40 93
v928z" />
    <glyph glyph-name="equal.uc.whitesquare" unicode="&#x3d;&#x25a1;" 
d="M1133 526h-466v101h466v-101zM1133 747h-466v103h466v-103zM435 1397h930q103 0 175.5 -71.5t72.5 -172.5v-938q0 -101 -72.5 -172.5t-175.5 -71.5h-930q-103 0 -175.5 71.5t-72.5 172.5v938q0 101 72.5 172.5t175.5 71.5zM1485 1148q0 55 -39.5 93t-96.5 38h-898
q-57 0 -96.5 -38t-39.5 -93v-928q0 -54 40 -93t96 -39h898q56 0 96 39t40 93v928z" />
    <glyph glyph-name="greater.uc.whitesquare" unicode="&#x3e;&#x25a1;" 
d="M1156 724v-84l-461 -233v127l308 148v6l-308 152v130zM435 1397h930q103 0 175.5 -71.5t72.5 -172.5v-938q0 -101 -72.5 -172.5t-175.5 -71.5h-930q-103 0 -175.5 71.5t-72.5 172.5v938q0 101 72.5 172.5t175.5 71.5zM1485 1148q0 55 -39.5 93t-96.5 38h-898
q-57 0 -96.5 -38t-39.5 -93v-928q0 -54 40 -93t96 -39h898q56 0 96 39t40 93v928z" />
    <glyph glyph-name="less.uc.whitesquare" unicode="&#x3c;&#x25a1;" 
d="M645 640v84l460 246v-130l-308 -152v-6l308 -148v-127zM435 1397h930q103 0 175.5 -71.5t72.5 -172.5v-938q0 -101 -72.5 -172.5t-175.5 -71.5h-930q-103 0 -175.5 71.5t-72.5 172.5v938q0 101 72.5 172.5t175.5 71.5zM1485 1148q0 55 -39.5 93t-96.5 38h-898
q-57 0 -96.5 -38t-39.5 -93v-928q0 -54 40 -93t96 -39h898q56 0 96 39t40 93v928z" />
    <glyph glyph-name="numbersign.whitesquare" unicode="&#x23;&#x25a1;" 
d="M1172 755h-103l-27 -122h100l-19 -94h-100l-37 -175h-100l37 175h-116l-37 -175h-99l36 175h-98l19 94h98l27 122h-95l18 93h96l35 169h100l-35 -169h116l35 169h100l-35 -169h103zM847 760l-30 -139h132l29 139h-131zM435 1397h930q103 0 175.5 -71.5t72.5 -172.5v-938
q0 -101 -72.5 -172.5t-175.5 -71.5h-930q-103 0 -175.5 71.5t-72.5 172.5v938q0 101 72.5 172.5t175.5 71.5zM1485 1148q0 55 -39.5 93t-96.5 38h-898q-57 0 -96.5 -38t-39.5 -93v-928q0 -54 40 -93t96 -39h898q56 0 96 39t40 93v928z" />
    <glyph glyph-name="uni25BC.whitesquare" unicode="&#x25bc;&#x25a1;" 
d="M1200 893l-299 -518l-299 518h598zM435 1397h930q103 0 175.5 -71.5t72.5 -172.5v-938q0 -101 -72.5 -172.5t-175.5 -71.5h-930q-103 0 -175.5 71.5t-72.5 172.5v938q0 101 72.5 172.5t175.5 71.5zM1485 1148q0 55 -39.5 93t-96.5 38h-898q-57 0 -96.5 -38t-39.5 -93
v-928q0 -54 40 -93t96 -39h898q56 0 96 39t40 93v928z" />
    <glyph glyph-name="uni25B2.whitesquare" unicode="&#x25b2;&#x25a1;" 
d="M1199 483h-597l298 518zM435 1397h930q103 0 175.5 -71.5t72.5 -172.5v-938q0 -101 -72.5 -172.5t-175.5 -71.5h-930q-103 0 -175.5 71.5t-72.5 172.5v938q0 101 72.5 172.5t175.5 71.5zM1485 1148q0 55 -39.5 93t-96.5 38h-898q-57 0 -96.5 -38t-39.5 -93v-928
q0 -54 40 -93t96 -39h898q56 0 96 39t40 93v928z" />
    <glyph glyph-name="uni25C0.whitesquare" unicode="&#x25c0;&#x25a1;" 
d="M1101 389l-517 299l517 298v-597zM435 1397h930q103 0 175.5 -71.5t72.5 -172.5v-938q0 -101 -72.5 -172.5t-175.5 -71.5h-930q-103 0 -175.5 71.5t-72.5 172.5v938q0 101 72.5 172.5t175.5 71.5zM1485 1148q0 55 -39.5 93t-96.5 38h-898q-57 0 -96.5 -38t-39.5 -93v-928
q0 -54 40 -93t96 -39h898q56 0 96 39t40 93v928z" />
    <glyph glyph-name="uni25B6.whitesquare" unicode="&#x25b6;&#x25a1;" 
d="M699 389v597l517 -298zM435 1397h930q103 0 175.5 -71.5t72.5 -172.5v-938q0 -101 -72.5 -172.5t-175.5 -71.5h-930q-103 0 -175.5 71.5t-72.5 172.5v938q0 101 72.5 172.5t175.5 71.5zM1485 1148q0 55 -39.5 93t-96.5 38h-898q-57 0 -96.5 -38t-39.5 -93v-928
q0 -54 40 -93t96 -39h898q56 0 96 39t40 93v928z" />
    <glyph glyph-name="question.whitesquare" unicode="&#x3f;&#x25a1;" 
d="M799 431q0 34 25 55t63 21q40 0 65 -21t25 -55q0 -33 -25 -53.5t-65 -20.5q-38 0 -63 21t-25 53zM677 838q-2 99 63.5 147t162.5 48q94 0 157 -46t63 -129q0 -39 -16.5 -70.5t-34 -47t-48.5 -36.5l-38.5 -28t-22.5 -21t-17.5 -28t-3.5 -33v-23h-119q-1 1 -1 33
q-4 88 90 150q30 21 42 30.5t23 27.5t11 39q0 40 -26.5 59.5t-66.5 19.5q-45 0 -70 -26t-25 -66h-123zM435 1397h930q103 0 175.5 -71.5t72.5 -172.5v-938q0 -101 -72.5 -172.5t-175.5 -71.5h-930q-103 0 -175.5 71.5t-72.5 172.5v938q0 101 72.5 172.5t175.5 71.5z
M1485 1148q0 55 -39.5 93t-96.5 38h-898q-57 0 -96.5 -38t-39.5 -93v-928q0 -54 40 -93t96 -39h898q56 0 96 39t40 93v928z" />
    <glyph glyph-name="exclam.whitesquare" unicode="&#x21;&#x25a1;" 
d="M812 431q0 34 24.5 55t64.5 21t64 -21t24 -55q0 -33 -24.5 -53.5t-63.5 -20.5q-40 0 -64.5 20.5t-24.5 53.5zM828 1019h146l-15 -428h-116zM435 1397h930q103 0 175.5 -71.5t72.5 -172.5v-938q0 -101 -72.5 -172.5t-175.5 -71.5h-930q-103 0 -175.5 71.5t-72.5 172.5v938
q0 101 72.5 172.5t175.5 71.5zM1485 1148q0 55 -39.5 93t-96.5 38h-898q-57 0 -96.5 -38t-39.5 -93v-928q0 -54 40 -93t96 -39h898q56 0 96 39t40 93v928z" />
    <glyph glyph-name="uni2717.whitesquare" unicode="&#x2717;&#x25a1;" 
d="M904 768l238 237l85 -84l-238 -237l238 -238l-85 -86l-238 237l-238 -237l-86 86l238 238l-238 238l84 85zM435 1397h930q103 0 175.5 -71.5t72.5 -172.5v-938q0 -101 -72.5 -172.5t-175.5 -71.5h-930q-103 0 -175.5 71.5t-72.5 172.5v938q0 101 72.5 172.5t175.5 71.5z
M1485 1148q0 55 -39.5 93t-96.5 38h-898q-57 0 -96.5 -38t-39.5 -93v-928q0 -54 40 -93t96 -39h898q56 0 96 39t40 93v928z" />
    <glyph glyph-name="uni2713.whitesquare" unicode="&#x2713;&#x25a1;" 
d="M1300 891l-515 -511l-275 273l90 89l185 -184l426 423zM435 1397h930q103 0 175.5 -71.5t72.5 -172.5v-938q0 -101 -72.5 -172.5t-175.5 -71.5h-930q-103 0 -175.5 71.5t-72.5 172.5v938q0 101 72.5 172.5t175.5 71.5zM1485 1148q0 55 -39.5 93t-96.5 38h-898
q-57 0 -96.5 -38t-39.5 -93v-928q0 -54 40 -93t96 -39h898q56 0 96 39t40 93v928z" />
    <glyph glyph-name="plus.uc.blackcircle" unicode="&#x2b;&#x25cb;&#x25cf;" 
d="M967 627h214v127h-214v211h-134v-211h-214v-127h214v-219h134v219zM900 -50q-149 0 -285 58.5t-234 156.5t-156.5 234t-58.5 285t58.5 285t156.5 234t234 156.5t285 58.5t285 -58.5t234 -156.5t156.5 -234t58.5 -285t-58.5 -285t-156.5 -234t-234 -156.5t-285 -58.5z" />
    <glyph glyph-name="minus.uc.blackcircle" unicode="&#x2212;&#x25cb;&#x25cf;" 
d="M1167 622v130h-534v-130h534zM900 -50q-149 0 -285 58.5t-234 156.5t-156.5 234t-58.5 285t58.5 285t156.5 234t234 156.5t285 58.5t285 -58.5t234 -156.5t156.5 -234t58.5 -285t-58.5 -285t-156.5 -234t-234 -156.5t-285 -58.5z" />
    <glyph glyph-name="multiply.uc.blackcircle" unicode="&#xd7;&#x25cb;&#x25cf;" 
d="M900 779l-165 158l-94 -92l165 -159l-165 -157l94 -92l165 158l165 -158l94 92l-165 157l165 159l-94 92zM900 -50q-149 0 -285 58.5t-234 156.5t-156.5 234t-58.5 285t58.5 285t156.5 234t234 156.5t285 58.5t285 -58.5t234 -156.5t156.5 -234t58.5 -285t-58.5 -285
t-156.5 -234t-234 -156.5t-285 -58.5z" />
    <glyph glyph-name="divide.uc.blackcircle" unicode="&#xf7;&#x25cb;&#x25cf;" 
d="M810 902q0 -36 25.5 -60t63.5 -24q39 0 65.5 24t26.5 60q0 37 -26.5 61t-65.5 24q-38 0 -63.5 -24t-25.5 -61zM1167 630v113h-534v-113h534zM810 474q0 -36 26 -59.5t64 -23.5q39 0 65 23.5t26 59.5q0 38 -26 62t-65 24t-64.5 -24t-25.5 -62zM900 -50q-149 0 -285 58.5
t-234 156.5t-156.5 234t-58.5 285t58.5 285t156.5 234t234 156.5t285 58.5t285 -58.5t234 -156.5t156.5 -234t58.5 -285t-58.5 -285t-156.5 -234t-234 -156.5t-285 -58.5z" />
    <glyph glyph-name="equal.uc.blackcircle" unicode="&#x3d;&#x25cb;&#x25cf;" 
d="M1157 748v119h-514v-119h514zM1157 507v118h-514v-118h514zM900 -50q-149 0 -285 58.5t-234 156.5t-156.5 234t-58.5 285t58.5 285t156.5 234t234 156.5t285 58.5t285 -58.5t234 -156.5t156.5 -234t58.5 -285t-58.5 -285t-156.5 -234t-234 -156.5t-285 -58.5z" />
    <glyph glyph-name="greater.uc.blackcircle" unicode="&#x3e;&#x25cb;&#x25cf;" 
d="M1176 728l-510 272v-148l335 -169l1 -1l-336 -161v-147l510 259v95zM900 -50q-149 0 -285 58.5t-234 156.5t-156.5 234t-58.5 285t58.5 285t156.5 234t234 156.5t285 58.5t285 -58.5t234 -156.5t156.5 -234t58.5 -285t-58.5 -285t-156.5 -234t-234 -156.5t-285 -58.5z
" />
    <glyph glyph-name="less.uc.blackcircle" unicode="&#x3c;&#x25cb;&#x25cf;" 
d="M617 633l509 -259v147l-335 161v1l335 169v148l-509 -272v-95zM900 -50q-149 0 -285 58.5t-234 156.5t-156.5 234t-58.5 285t58.5 285t156.5 234t234 156.5t285 58.5t285 -58.5t234 -156.5t156.5 -234t58.5 -285t-58.5 -285t-156.5 -234t-234 -156.5t-285 -58.5z" />
    <glyph glyph-name="numbersign.blackcircle" unicode="&#x23;&#x25cb;&#x25cf;" 
d="M844 760h136l-31 -145h-136zM1199 753l22 110h-113l38 184h-117l-38 -184h-116l38 184h-118l-37 -184h-105l-22 -110h104l-27 -124h-107l-22 -110h105l-39 -190h117l40 190h118l-41 -190h117l40 190h108l24 110h-108q0 1 13 62t13 62h113zM900 -50q-149 0 -285 58.5
t-234 156.5t-156.5 234t-58.5 285t58.5 285t156.5 234t234 156.5t285 58.5t285 -58.5t234 -156.5t156.5 -234t58.5 -285t-58.5 -285t-156.5 -234t-234 -156.5t-285 -58.5z" />
    <glyph glyph-name="uni25BC.blackcircle" unicode="&#x25bc;&#x25cb;&#x25cf;" 
d="M1226 921h-651l325 -564zM900 -50q-149 0 -285 58.5t-234 156.5t-156.5 234t-58.5 285t58.5 285t156.5 234t234 156.5t285 58.5t285 -58.5t234 -156.5t156.5 -234t58.5 -285t-58.5 -285t-156.5 -234t-234 -156.5t-285 -58.5z" />
    <glyph glyph-name="uni25B2.blackcircle" unicode="&#x25b2;&#x25cb;&#x25cf;" 
d="M1226 468l-326 564l-325 -564h651zM900 -50q-149 0 -285 58.5t-234 156.5t-156.5 234t-58.5 285t58.5 285t156.5 234t234 156.5t285 58.5t285 -58.5t234 -156.5t156.5 -234t58.5 -285t-58.5 -285t-156.5 -234t-234 -156.5t-285 -58.5z" />
    <glyph glyph-name="uni25C0.blackcircle" unicode="&#x25c0;&#x25cb;&#x25cf;" 
d="M1125 369v650l-565 -324zM900 -50q-149 0 -285 58.5t-234 156.5t-156.5 234t-58.5 285t58.5 285t156.5 234t234 156.5t285 58.5t285 -58.5t234 -156.5t156.5 -234t58.5 -285t-58.5 -285t-156.5 -234t-234 -156.5t-285 -58.5z" />
    <glyph glyph-name="uni25B6.blackcircle" unicode="&#x25b6;&#x25cb;&#x25cf;" 
d="M675 369l565 326l-565 324v-650zM900 -50q-149 0 -285 58.5t-234 156.5t-156.5 234t-58.5 285t58.5 285t156.5 234t234 156.5t285 58.5t285 -58.5t234 -156.5t156.5 -234t58.5 -285t-58.5 -285t-156.5 -234t-234 -156.5t-285 -58.5z" />
    <glyph glyph-name="question.blackcircle" unicode="&#x3f;&#x25cb;&#x25cf;" 
d="M783 405q0 -38 28 -61.5t72 -23.5q45 0 73 23.5t28 61.5q0 39 -27.5 63t-73.5 24q-45 0 -72.5 -24t-27.5 -63zM650 849v-4h142q0 45 26.5 73.5t74.5 28.5q41 0 69 -21t28 -61q0 -10 -2 -19t-7.5 -18l-9 -14.5t-14.5 -15t-15.5 -13t-19 -14t-19.5 -14.5q-100 -70 -94 -162
v-38h138v28q0 38 16.5 57.5t68.5 55.5q36 26 56 44t37.5 52t17.5 77q0 92 -69.5 143t-173.5 51q-106 0 -178 -53t-72 -163zM898 -44q-149 0 -285 58.5t-234 156.5t-156.5 234t-58.5 285t58.5 285t156.5 234t234 156.5t285 58.5t285 -58.5t234 -156.5t156.5 -234t58.5 -285
t-58.5 -285t-156.5 -234t-234 -156.5t-285 -58.5z" />
    <glyph glyph-name="exclam.blackcircle" unicode="&#x21;&#x25cb;&#x25cf;" 
d="M816 1051l17 -475h134l18 475h-169zM800 406q0 -38 27.5 -61.5t72.5 -23.5t73 23.5t28 61.5t-27.5 62t-73.5 24q-45 0 -72.5 -23.5t-27.5 -62.5zM900 -50q-149 0 -285 58.5t-234 156.5t-156.5 234t-58.5 285t58.5 285t156.5 234t234 156.5t285 58.5t285 -58.5t234 -156.5
t156.5 -234t58.5 -285t-58.5 -285t-156.5 -234t-234 -156.5t-285 -58.5z" />
    <glyph glyph-name="uni2717.blackcircle" unicode="&#x2717;&#x25cb;&#x25cf;" 
d="M903 776l-262 261l-92 -92l261 -261l-261 -260l94 -94l260 259l262 -259l92 94l-261 260l261 259l-92 93zM900 -50q-149 0 -285 58.5t-234 156.5t-156.5 234t-58.5 285t58.5 285t156.5 234t234 156.5t285 58.5t285 -58.5t234 -156.5t156.5 -234t58.5 -285t-58.5 -285
t-156.5 -234t-234 -156.5t-285 -58.5z" />
    <glyph glyph-name="uni2713.blackcircle" unicode="&#x2713;&#x25cb;&#x25cf;" 
d="M774 352l562 560l-97 99l-466 -463l-203 201l-97 -98zM900 -50q-149 0 -285 58.5t-234 156.5t-156.5 234t-58.5 285t58.5 285t156.5 234t234 156.5t285 58.5t285 -58.5t234 -156.5t156.5 -234t58.5 -285t-58.5 -285t-156.5 -234t-234 -156.5t-285 -58.5z" />
    <glyph glyph-name="zero.blacksquare" unicode="&#x30;&#x25a1;&#x25a0;" 
d="M896 443q-62 0 -97 62t-35 172v30q0 111 35 172t97 61q63 0 97.5 -61t34.5 -172v-30q0 -111 -34.5 -172.5t-97.5 -61.5zM896 319q133 0 210.5 97t77.5 261v30q0 165 -77 261t-210 96t-210.5 -96t-77.5 -261v-30q0 -165 77 -261.5t210 -96.5zM435 1397h930
q103 0 175.5 -71.5t72.5 -172.5v-938q0 -101 -72.5 -172.5t-175.5 -71.5h-930q-103 0 -175.5 71.5t-72.5 172.5v938q0 101 72.5 172.5t175.5 71.5z" />
    <glyph glyph-name="one.blacksquare" unicode="&#x31;&#x25a1;&#x25a0;" 
d="M1018 333v718h-152l-178 -123v-143l174 119h1v-571h155zM435 1397h930q103 0 175.5 -71.5t72.5 -172.5v-938q0 -101 -72.5 -172.5t-175.5 -71.5h-930q-103 0 -175.5 71.5t-72.5 172.5v938q0 101 72.5 172.5t175.5 71.5z" />
    <glyph glyph-name="two.blacksquare" unicode="&#x32;&#x25a1;&#x25a0;" 
d="M785 829v10q0 44 29 74t79 30q46 0 76 -26.5t30 -67.5q0 -38 -21 -70t-63 -75l-271 -275v-95h521v125h-313v1l179 184q61 62 91 109t30 108q0 88 -71 146t-184 58q-122 0 -190.5 -66.5t-68.5 -159.5v-10h147zM435 1397h930q103 0 175.5 -71.5t72.5 -172.5v-938
q0 -101 -72.5 -172.5t-175.5 -71.5h-930q-103 0 -175.5 71.5t-72.5 172.5v938q0 101 72.5 172.5t175.5 71.5z" />
    <glyph glyph-name="three.blacksquare" unicode="&#x33;&#x25a1;&#x25a0;" 
d="M811 644h85q57 0 91.5 -28t35.5 -73q0 -46 -36 -74.5t-95 -28.5q-53 1 -88.5 26t-39.5 63h-144q4 -90 76.5 -149.5t194.5 -59.5q124 0 205.5 59t80.5 158q-2 77 -50 122t-107 52q49 10 92.5 54.5t42.5 110.5q-2 83 -73 136t-186 53q-121 0 -190 -58t-71 -149h145
q2 37 32.5 62.5t79.5 25.5q48 0 79 -25t31 -65q0 -41 -31 -67.5t-80 -26.5h-80v-118zM435 1397h930q103 0 175.5 -71.5t72.5 -172.5v-938q0 -101 -72.5 -172.5t-175.5 -71.5h-930q-103 0 -175.5 71.5t-72.5 172.5v938q0 101 72.5 172.5t175.5 71.5z" />
    <glyph glyph-name="four.blacksquare" unicode="&#x34;&#x25a1;&#x25a0;" 
d="M876 1052q-214 -335 -286 -466v-120h358v-132h145v132h94v122h-94v464h-217zM733 589q62 110 214 343h1v-344h-215v1zM435 1397h930q103 0 175.5 -71.5t72.5 -172.5v-938q0 -101 -72.5 -172.5t-175.5 -71.5h-930q-103 0 -175.5 71.5t-72.5 172.5v938q0 101 72.5 172.5
t175.5 71.5z" />
    <glyph glyph-name="five.blacksquare" unicode="&#x35;&#x25a1;&#x25a0;" 
d="M632 526q5 -90 78.5 -147.5t189.5 -57.5q128 0 206.5 70.5t78.5 186.5q0 107 -70 170t-173 63q-54 0 -93.5 -18.5t-57.5 -41.5h-1q10 132 15 180h338v121h-463l-32 -423h134q15 27 46 47t75 20q55 0 93 -34t38 -89q0 -60 -38.5 -96t-90.5 -36q-48 0 -84 22t-45 63h-144z
M435 1397h930q103 0 175.5 -71.5t72.5 -172.5v-938q0 -101 -72.5 -172.5t-175.5 -71.5h-930q-103 0 -175.5 71.5t-72.5 172.5v938q0 101 72.5 172.5t175.5 71.5z" />
    <glyph glyph-name="six.blacksquare" unicode="&#x36;&#x25a1;&#x25a0;" 
d="M1177 574q0 100 -61.5 165t-155.5 65q-79 0 -123 -44l-8 2q2 5 33 50q86 118 188 240h-170q-15 -19 -78 -104t-71 -98q-102 -144 -102 -267q0 -118 76 -190t199 -72q122 0 197.5 70t75.5 183zM771 570q0 56 37.5 94t94.5 38t94.5 -38t37.5 -94t-37.5 -94t-94.5 -38
t-94.5 38t-37.5 94zM435 1397h930q103 0 175.5 -71.5t72.5 -172.5v-938q0 -101 -72.5 -172.5t-175.5 -71.5h-930q-103 0 -175.5 71.5t-72.5 172.5v938q0 101 72.5 172.5t175.5 71.5z" />
    <glyph glyph-name="seven.blacksquare" unicode="&#x37;&#x25a1;&#x25a0;" 
d="M642 1052v-126h365v-2l-309 -590h164l301 594v124h-521zM435 1397h930q103 0 175.5 -71.5t72.5 -172.5v-938q0 -101 -72.5 -172.5t-175.5 -71.5h-930q-103 0 -175.5 71.5t-72.5 172.5v938q0 101 72.5 172.5t175.5 71.5z" />
    <glyph glyph-name="eight.blacksquare" unicode="&#x38;&#x25a1;&#x25a0;" 
d="M896 760q-50 0 -81 27t-31 70t31 70t81 27t81.5 -27t31.5 -70t-31.5 -70t-81.5 -27zM896 431q-59 0 -98 32t-39 80q0 49 39 81t98 32q60 0 99 -32t39 -81q0 -48 -39 -80t-99 -32zM896 320q131 0 211.5 58.5t80.5 155.5q0 66 -42 114t-113 63q60 20 92.5 62t32.5 100
q0 86 -72.5 139t-189.5 53q-116 0 -188.5 -53t-72.5 -139q0 -58 32.5 -100t92.5 -62q-71 -15 -113 -63t-42 -114q0 -97 80 -155.5t211 -58.5zM435 1397h930q103 0 175.5 -71.5t72.5 -172.5v-938q0 -101 -72.5 -172.5t-175.5 -71.5h-930q-103 0 -175.5 71.5t-72.5 172.5v938
q0 101 72.5 172.5t175.5 71.5z" />
    <glyph glyph-name="nine.blacksquare" unicode="&#x39;&#x25a1;&#x25a0;" 
d="M615 811q0 -100 61.5 -164.5t155.5 -64.5q78 0 124 43l7 -2q-5 -11 -32 -48q-91 -126 -188 -241h169l79.5 105t72.5 100q100 143 100 263q0 118 -76 190.5t-200 72.5q-122 0 -197.5 -70.5t-75.5 -183.5zM1022 816q0 -56 -38 -94t-95 -38t-94.5 38t-37.5 94t37.5 94
t94.5 38t95 -38t38 -94zM435 1397h930q103 0 175.5 -71.5t72.5 -172.5v-938q0 -101 -72.5 -172.5t-175.5 -71.5h-930q-103 0 -175.5 71.5t-72.5 172.5v938q0 101 72.5 172.5t175.5 71.5z" />
    <glyph glyph-name="plus.uc.blacksquare" unicode="&#x2b;&#x25a1;&#x25a0;" 
d="M967 627h214v127h-214v211h-134v-211h-214v-127h214v-219h134v219zM435 1397h930q103 0 175.5 -71.5t72.5 -172.5v-938q0 -101 -72.5 -172.5t-175.5 -71.5h-930q-103 0 -175.5 71.5t-72.5 172.5v938q0 101 72.5 172.5t175.5 71.5z" />
    <glyph glyph-name="minus.uc.blacksquare" unicode="&#x2212;&#x25a1;&#x25a0;" 
d="M1167 622v130h-534v-130h534zM435 1397h930q103 0 175.5 -71.5t72.5 -172.5v-938q0 -101 -72.5 -172.5t-175.5 -71.5h-930q-103 0 -175.5 71.5t-72.5 172.5v938q0 101 72.5 172.5t175.5 71.5z" />
    <glyph glyph-name="multiply.uc.blacksquare" unicode="&#xd7;&#x25a1;&#x25a0;" 
d="M900 779l-165 158l-94 -92l165 -159l-165 -157l94 -92l165 158l165 -158l94 92l-165 157l165 159l-94 92zM435 1397h930q103 0 175.5 -71.5t72.5 -172.5v-938q0 -101 -72.5 -172.5t-175.5 -71.5h-930q-103 0 -175.5 71.5t-72.5 172.5v938q0 101 72.5 172.5t175.5 71.5z
" />
    <glyph glyph-name="divide.uc.blacksquare" unicode="&#xf7;&#x25a1;&#x25a0;" 
d="M810 902q0 -36 25.5 -60t63.5 -24q39 0 65.5 24t26.5 60q0 37 -26.5 61t-65.5 24q-38 0 -63.5 -24t-25.5 -61zM1167 630v113h-534v-113h534zM810 474q0 -36 26 -59.5t64 -23.5q39 0 65 23.5t26 59.5q0 38 -26 62t-65 24t-64.5 -24t-25.5 -62zM435 1397h930
q103 0 175.5 -71.5t72.5 -172.5v-938q0 -101 -72.5 -172.5t-175.5 -71.5h-930q-103 0 -175.5 71.5t-72.5 172.5v938q0 101 72.5 172.5t175.5 71.5z" />
    <glyph glyph-name="equal.uc.blacksquare" unicode="&#x3d;&#x25a1;&#x25a0;" 
d="M1157 748v119h-514v-119h514zM1157 507v118h-514v-118h514zM435 1397h930q103 0 175.5 -71.5t72.5 -172.5v-938q0 -101 -72.5 -172.5t-175.5 -71.5h-930q-103 0 -175.5 71.5t-72.5 172.5v938q0 101 72.5 172.5t175.5 71.5z" />
    <glyph glyph-name="greater.uc.blacksquare" unicode="&#x3e;&#x25a1;&#x25a0;" 
d="M1176 728l-510 272v-148l335 -169l1 -1l-336 -161v-147l510 259v95zM435 1397h930q103 0 175.5 -71.5t72.5 -172.5v-938q0 -101 -72.5 -172.5t-175.5 -71.5h-930q-103 0 -175.5 71.5t-72.5 172.5v938q0 101 72.5 172.5t175.5 71.5z" />
    <glyph glyph-name="less.uc.blacksquare" unicode="&#x3c;&#x25a1;&#x25a0;" 
d="M617 633l509 -259v147l-335 161v1l335 169v148l-509 -272v-95zM435 1397h930q103 0 175.5 -71.5t72.5 -172.5v-938q0 -101 -72.5 -172.5t-175.5 -71.5h-930q-103 0 -175.5 71.5t-72.5 172.5v938q0 101 72.5 172.5t175.5 71.5z" />
    <glyph glyph-name="numbersign.blacksquare" unicode="&#x23;&#x25a1;&#x25a0;" 
d="M844 761h136l-31 -145h-136zM1199 754l22 110h-113l38 184h-117l-38 -184h-116l38 184h-118l-37 -184h-105l-22 -110h104l-27 -123h-107l-22 -111h105l-39 -190h117l40 190h118l-41 -190h117l40 190h108l24 111h-108q1 1 13.5 61.5t12.5 61.5h113zM435 1397h930
q103 0 175.5 -71.5t72.5 -172.5v-938q0 -101 -72.5 -172.5t-175.5 -71.5h-930q-103 0 -175.5 71.5t-72.5 172.5v938q0 101 72.5 172.5t175.5 71.5z" />
    <glyph glyph-name="uni25BC.blacksquare" unicode="&#x25bc;&#x25a1;&#x25a0;" 
d="M1226 917h-651l325 -565zM435 1397h930q103 0 175.5 -71.5t72.5 -172.5v-938q0 -101 -72.5 -172.5t-175.5 -71.5h-930q-103 0 -175.5 71.5t-72.5 172.5v938q0 101 72.5 172.5t175.5 71.5z" />
    <glyph glyph-name="uni25B2.blacksquare" unicode="&#x25b2;&#x25a1;&#x25a0;" 
d="M1226 468l-326 564l-325 -564h651zM435 1397h930q103 0 175.5 -71.5t72.5 -172.5v-938q0 -101 -72.5 -172.5t-175.5 -71.5h-930q-103 0 -175.5 71.5t-72.5 172.5v938q0 101 72.5 172.5t175.5 71.5z" />
    <glyph glyph-name="uni25C0.blacksquare" unicode="&#x25c0;&#x25a1;&#x25a0;" 
d="M1125 369v650l-565 -324zM435 1397h930q103 0 175.5 -71.5t72.5 -172.5v-938q0 -101 -72.5 -172.5t-175.5 -71.5h-930q-103 0 -175.5 71.5t-72.5 172.5v938q0 101 72.5 172.5t175.5 71.5z" />
    <glyph glyph-name="uni25B6.blacksquare" unicode="&#x25b6;&#x25a1;&#x25a0;" 
d="M675 369l565 326l-565 324v-650zM435 1397h930q103 0 175.5 -71.5t72.5 -172.5v-938q0 -101 -72.5 -172.5t-175.5 -71.5h-930q-103 0 -175.5 71.5t-72.5 172.5v938q0 101 72.5 172.5t175.5 71.5z" />
    <glyph glyph-name="question.blacksquare" unicode="&#x3f;&#x25a1;&#x25a0;" 
d="M650 847l142 1q0 44 26.5 73t74.5 29q41 0 69 -21.5t28 -61.5q0 -10 -2 -19t-7.5 -18l-9 -14.5t-14.5 -15t-15.5 -13t-19 -14t-19.5 -14.5q-100 -70 -94 -162v-38h138v28q0 38 16 57.5t69 55.5q36 26 56 44t37.5 52.5t17.5 77.5q0 91 -69.5 142t-173.5 51
q-106 0 -178 -53t-72 -163v-4zM783 407q0 -37 28 -61t72 -24q45 0 73 24t28 61q0 40 -27.5 63.5t-73.5 23.5q-45 0 -72.5 -24t-27.5 -63zM435 1397h930q103 0 175.5 -71.5t72.5 -172.5v-938q0 -101 -72.5 -172.5t-175.5 -71.5h-930q-103 0 -175.5 71.5t-72.5 172.5v938
q0 101 72.5 172.5t175.5 71.5z" />
    <glyph glyph-name="exclam.blacksquare" unicode="&#x21;&#x25a1;&#x25a0;" 
d="M816 1053l17 -475h134l18 475h-169zM800 408q0 -37 27.5 -61t72.5 -24t73 24t28 61q0 39 -27.5 62.5t-73.5 23.5q-45 0 -72.5 -23.5t-27.5 -62.5zM435 1397h930q103 0 175.5 -71.5t72.5 -172.5v-938q0 -101 -72.5 -172.5t-175.5 -71.5h-930q-103 0 -175.5 71.5
t-72.5 172.5v938q0 101 72.5 172.5t175.5 71.5z" />
    <glyph glyph-name="uni2717.blacksquare" unicode="&#x2717;&#x25a1;&#x25a0;" 
d="M549 945l261 -261l-261 -260l94 -94l260 259l262 -259l92 94l-261 260l261 259l-92 93l-262 -260l-262 261zM435 1397h930q103 0 175.5 -71.5t72.5 -172.5v-938q0 -101 -72.5 -172.5t-175.5 -71.5h-930q-103 0 -175.5 71.5t-72.5 172.5v938q0 101 72.5 172.5t175.5 71.5z
" />
    <glyph glyph-name="uni2713.blacksquare" unicode="&#x2713;&#x25a1;&#x25a0;" 
d="M774 353l562 560l-97 99l-466 -463l-203 201l-97 -97zM435 1397h930q103 0 175.5 -71.5t72.5 -172.5v-938q0 -101 -72.5 -172.5t-175.5 -71.5h-930q-103 0 -175.5 71.5t-72.5 172.5v938q0 101 72.5 172.5t175.5 71.5z" />
    <glyph glyph-name=".notdef" horiz-adv-x="2048" 
d="M100 -494v277h1848v-277h-1848zM100 -61v278h1848v-278h-1848zM100 373v277h1848v-277h-1848zM100 806v277h1848v-277h-1848zM100 1239v278h1848v-278h-1848zM100 1673v277h1848v-277h-1848z" />
    <glyph glyph-name=".null" horiz-adv-x="0" 
 />
    <glyph glyph-name="nonmarkingreturn" horiz-adv-x="0" 
 />
    <glyph glyph-name="space" unicode=" " horiz-adv-x="463" 
 />
    <glyph glyph-name="exclam" unicode="!" horiz-adv-x="575" 
d="M143 121q0 61 41 101t101 40q64 0 105.5 -39.5t41.5 -101.5q0 -60 -41.5 -99.5t-105.5 -39.5q-60 0 -101 40t-41 99zM186 1365h204l-23 -880h-159z" />
    <glyph glyph-name="quotedbl" unicode="&#x22;" horiz-adv-x="886" 
d="M133 1365h210l-29 -581h-153zM543 1365h210l-28 -581h-154z" />
    <glyph glyph-name="numbersign" unicode="#" horiz-adv-x="1248" 
d="M1178 849h-227l-67 -321h224l-27 -141h-225l-78 -387h-144l79 387h-312l-79 -387h-144l78 387h-213l28 141h215l66 321h-212l27 140h213l76 376h145l-77 -376h312l77 376h143l-76 -376h226zM494 854l-69 -331h318l68 331h-317z" />
    <glyph glyph-name="dollar" unicode="$" horiz-adv-x="1149" 
d="M647 593v-432q116 10 182 69t66 152q0 78 -50.5 126t-161.5 76zM509 811l19 -5v398q-93 -17 -147.5 -72.5t-54.5 -135.5q0 -139 183 -185zM647 775l85 -22q174 -46 257.5 -131t83.5 -226q0 -165 -114 -269.5t-312 -120.5v-143h-119v143q-181 13 -292 110t-124 246h176
q16 -79 79 -131t161 -67v460l-72 18q-148 39 -228 127.5t-80 217.5q0 149 105 251.5t275 122.5v145h119v-142q174 -12 285 -106t125 -236h-177q-16 78 -77 127t-156 59v-433z" />
    <glyph glyph-name="percent" unicode="%" horiz-adv-x="1533" 
d="M368 859q60 0 96.5 54.5t36.5 144.5q0 92 -35.5 145.5t-97.5 53.5q-61 0 -97.5 -54t-36.5 -145q0 -90 36.5 -144.5t97.5 -54.5zM368 726q-131 0 -214 93t-83 239t83 238.5t214 92.5t213 -92t82 -239q0 -146 -82.5 -239t-212.5 -93zM1166 -20q-130 0 -212.5 92.5
t-82.5 239.5q0 146 82.5 238.5t212.5 92.5q131 0 213.5 -92.5t82.5 -238.5q0 -147 -82.5 -239.5t-213.5 -92.5zM1166 113q60 0 96.5 54.5t36.5 144.5q0 92 -35.5 145t-97.5 53q-61 0 -97 -53.5t-36 -144.5t36.5 -145t96.5 -54zM189 0l512 711l459 654h190l-521 -722
l-448 -643h-192z" />
    <glyph glyph-name="ampersand" unicode="&#x26;" horiz-adv-x="1358" 
d="M1119 0l-122 131q-94 -82 -207 -119.5t-224 -37.5q-197 0 -327.5 104.5t-130.5 280.5q0 126 69.5 215.5t195.5 158.5q27 16 52 27q-82 86 -125 157t-43 156q0 129 98 216.5t250 87.5q149 0 248.5 -85.5t99.5 -220.5q0 -61 -22 -112.5t-65 -93.5t-89.5 -73.5t-112.5 -66.5
l326 -353q61 115 61 360v45h165v-47q0 -311 -110 -478l237 -252h-224zM477 630q-94 -50 -142.5 -111t-48.5 -148q0 -119 86.5 -183.5t209.5 -64.5q84 0 169 30t143 91l-373 409zM569 824q109 56 163 109t54 132q0 77 -51 125t-129 48q-80 0 -129.5 -49.5t-49.5 -125.5
q0 -54 31 -106.5t111 -132.5z" />
    <glyph glyph-name="quotesingle" unicode="'" horiz-adv-x="475" 
d="M133 1365h210l-29 -581h-153z" />
    <glyph glyph-name="parenleft" unicode="(" horiz-adv-x="712" 
d="M496 1437h157q-115 -171 -183.5 -390t-68.5 -465q0 -526 252 -891h-158q-129 153 -202.5 386t-73.5 503q0 513 277 857z" />
    <glyph glyph-name="parenright" unicode=")" horiz-adv-x="712" 
d="M59 1437h157q277 -344 277 -857q0 -270 -73.5 -503t-202.5 -386h-158q252 365 252 891q0 246 -68.5 465t-183.5 390z" />
    <glyph glyph-name="asterisk" unicode="*" horiz-adv-x="984" 
d="M560 579h-140l21 325l-271 -182l-69 123l293 144l-293 143l69 123l272 -184l-22 327h140l-22 -327l272 184l69 -123l-294 -143l294 -144l-69 -123l-272 182z" />
    <glyph glyph-name="plus" unicode="+" horiz-adv-x="1149" 
d="M649 467v-444h-149v444h-407v153h407v420h149v-420h408v-153h-408z" />
    <glyph glyph-name="comma" unicode="," horiz-adv-x="511" 
d="M267 -357h-163l90 581h212z" />
    <glyph glyph-name="hyphen" unicode="&#x2011;" horiz-adv-x="840" 
d="M735 478h-630v164h630v-164z" />
    <glyph glyph-name="hyphen" unicode="-" horiz-adv-x="840" 
d="M735 478h-630v164h630v-164z" />
    <glyph glyph-name="period" unicode="." horiz-adv-x="600" 
d="M155 124q0 64 41.5 105t101.5 41q63 0 104.5 -41t41.5 -105q0 -61 -42 -101.5t-104 -40.5q-60 0 -101.5 40.5t-41.5 101.5z" />
    <glyph glyph-name="slash" unicode="/" horiz-adv-x="712" 
d="M193 -309h-167l492 1746h168z" />
    <glyph glyph-name="zero" unicode="0" horiz-adv-x="1248" 
d="M319 706v-48q0 -244 82 -384.5t223 -140.5t223 140t82 385v48q0 244 -82 385t-223 141t-223 -141t-82 -385zM136 656v51q0 314 130 500t360 186q229 0 357.5 -185.5t128.5 -500.5v-51q0 -314 -129 -499t-359 -185q-229 0 -358.5 185t-129.5 499z" />
    <glyph glyph-name="one" unicode="1" horiz-adv-x="934" 
d="M666 0h-182v1165h-9l-316 -228v188l325 240h182v-1365z" />
    <glyph glyph-name="two" unicode="2" horiz-adv-x="1149" 
d="M324 984h-179v7q0 79 28.5 150.5t81.5 128t137 90t187 33.5q191 0 309 -105.5t118 -268.5q0 -50 -13.5 -99t-29.5 -83.5t-54 -86.5t-60 -77.5l-75 -86.5l-363 -412v-12h621v-162h-882v118l514 584q49 54 76.5 90.5t53.5 95.5t26 117q0 103 -69 166t-176 63
q-115 0 -183 -70.5t-68 -171.5v-8z" />
    <glyph glyph-name="three" unicode="3" horiz-adv-x="1171" 
d="M423 624v159h141q108 0 178.5 65.5t69.5 165.5q0 98 -69 160t-179 62q-104 0 -172.5 -55.5t-75.5 -133.5h-175q2 67 30.5 128t80 110t133 78t180.5 30q191 1 309.5 -98t122.5 -251q2 -69 -22 -129.5t-63.5 -100t-82.5 -64.5t-84 -32v-10q47 -5 95.5 -26.5t94.5 -59
t76.5 -101.5t31.5 -142q4 -179 -133.5 -293.5t-350.5 -114.5q-198 0 -320.5 100t-130.5 250h172q9 -81 88 -136t195 -56q133 -1 214.5 70t79.5 182q-1 109 -80.5 176t-204.5 67h-149z" />
    <glyph glyph-name="four" unicode="4" horiz-adv-x="1204" 
d="M670 1365h272v-924h177v-162h-177v-279h-176v279h-663v164l137.5 237l132.5 217l154.5 244zM285 441h481v764h-10q-264 -393 -471 -754v-10z" />
    <glyph glyph-name="five" unicode="5" horiz-adv-x="1198" 
d="M152 319h176q19 -95 98 -141.5t182 -46.5q72 0 136.5 34.5t108 107t43.5 169.5q0 130 -85.5 208.5t-205.5 78.5q-96 0 -165.5 -44.5t-102.5 -103.5h-156l61 784h771v-162h-615l-37 -433h10q27 42 99.5 79t174.5 37q89 0 168.5 -30t139 -85.5t94 -139t34.5 -184.5
q0 -212 -134 -343.5t-350 -131.5q-188 0 -311.5 98t-133.5 249z" />
    <glyph glyph-name="six" unicode="6" horiz-adv-x="1228" 
d="M1072 1081h-184q-14 57 -75.5 104t-166.5 47q-148 0 -239 -142.5t-91 -414.5h10q33 83 121.5 143.5t225.5 60.5q81 0 156.5 -28.5t136.5 -82t98 -138t37 -187.5q0 -219 -132 -344.5t-339 -125.5q-266 0 -393 206q-101 165 -101 451q0 381 139 571t377 190
q182 0 296.5 -94t123.5 -216zM341 434q0 -139 84 -221t206 -82q127 0 208 77.5t81 224.5q0 139 -84.5 214.5t-203.5 75.5q-127 0 -209 -81t-82 -208z" />
    <glyph glyph-name="seven" unicode="7" horiz-adv-x="1098" 
d="M117 1365h874v-169l-559 -1196h-193l565 1192v11h-687v162z" />
    <glyph glyph-name="eight" unicode="8" horiz-adv-x="1226" 
d="M614 124q132 0 218.5 72t86.5 184q0 114 -86.5 186t-218.5 72t-219.5 -72t-87.5 -186q0 -112 87.5 -184t219.5 -72zM614 787q111 0 182.5 63.5t71.5 164.5q0 100 -71 162t-183 62q-111 0 -183.5 -62t-72.5 -162q0 -101 72.5 -164.5t183.5 -63.5zM609 -28
q-213 0 -347.5 111t-134.5 289q0 77 26.5 140t69.5 103t88 64.5t92 36.5v9q-39 13 -75.5 36.5t-71 59.5t-55 90t-20.5 118q0 158 122.5 261t310.5 103t310.5 -103t122.5 -261q0 -65 -21.5 -119.5t-56.5 -90.5t-71.5 -59t-74.5 -35v-9q47 -11 92.5 -36t88.5 -65t69 -103
t26 -138q0 -178 -137.5 -290t-352.5 -112z" />
    <glyph glyph-name="nine" unicode="9" horiz-adv-x="1226" 
d="M163 264h185q16 -53 76 -92t153 -39q92 0 159.5 43t106 120.5t55.5 175t14 214.5h-10q-35 -92 -121.5 -151.5t-217.5 -59.5q-188 0 -312 124t-124 335q0 212 134.5 336.5t340.5 124.5q76 0 142.5 -18t131.5 -65t111 -121.5t74.5 -196.5t28.5 -280q0 -370 -127.5 -555
t-389.5 -185q-180 0 -288 84t-122 206zM881 926q0 145 -81.5 227.5t-208.5 82.5q-119 0 -200.5 -82.5t-81.5 -223.5q0 -143 82 -220t205 -77q118 0 201.5 76.5t83.5 216.5z" />
    <glyph glyph-name="colon" unicode=":" horiz-adv-x="634" 
d="M172 801q0 64 41.5 105t101.5 41q63 0 105 -41.5t42 -104.5q0 -61 -42 -101.5t-105 -40.5q-59 0 -101 40.5t-42 101.5zM172 124q0 64 41.5 105t101.5 41q63 0 105 -41t42 -105q0 -61 -42 -101.5t-105 -40.5q-59 0 -101 40.5t-42 101.5z" />
    <glyph glyph-name="semicolon" unicode=";" horiz-adv-x="634" 
d="M173 801q0 64 41.5 105t101.5 41q63 0 104.5 -41.5t41.5 -104.5q0 -61 -42 -101.5t-104 -40.5q-60 0 -101.5 40.5t-41.5 101.5zM284 -357h-163l90 581h212z" />
    <glyph glyph-name="less" unicode="&#x3c;" horiz-adv-x="1149" 
d="M143 440v145l862 515v-195l-669 -381v-10l669 -361v-194z" />
    <glyph glyph-name="equal" unicode="=" horiz-adv-x="1149" 
d="M997 285h-845v148h845v-148zM997 659h-845v149h845v-149z" />
    <glyph glyph-name="greater" unicode="&#x3e;" horiz-adv-x="1149" 
d="M1005 585v-145l-861 -481v194l669 361v10l-669 381v195z" />
    <glyph glyph-name="question" unicode="?" horiz-adv-x="1003" 
d="M339 121q0 61 41 101t101 40q64 0 105.5 -40t41.5 -101q0 -60 -41.5 -99.5t-105.5 -39.5q-60 0 -101 40t-41 99zM91 1004q-1 86 24 155t66 112.5t96.5 72.5t112.5 41t118 12q63 0 121.5 -13t110 -41t90 -68t60.5 -97.5t22 -125.5q0 -59 -15.5 -108t-47.5 -89.5
t-58.5 -65.5t-72.5 -61q-44 -35 -62 -50.5t-42 -40t-32 -43t-14.5 -45t-6.5 -61.5v-60h-175l-1 83q-1 52 13.5 96.5t45 82.5t58.5 65t73 62q43 34 64 52.5t45 47t33.5 58t9.5 67.5q0 100 -65.5 149.5t-161.5 49.5q-115 0 -175.5 -66t-61.5 -171h-172z" />
    <glyph glyph-name="at" unicode="@" horiz-adv-x="1726" 
d="M1274 133q-99 0 -159 41t-72 98h-10q-14 -53 -75.5 -96t-144.5 -43q-123 0 -192.5 89.5t-69.5 238.5v93q0 146 71.5 234.5t199.5 88.5q79 0 130.5 -39t67.5 -89h8v114h145v-488q0 -57 34 -88t87 -31q79 0 133 86.5t54 253.5v35q0 110 -39.5 209t-112.5 175t-186.5 121
t-250.5 45h-8q-132 0 -245.5 -45t-197 -127.5t-131 -204.5t-47.5 -269v-46q0 -155 49 -277t134 -198t195 -115.5t237 -39.5h9q207 0 322 50v-130q-102 -48 -324 -48h-9q-126 0 -238.5 30t-207.5 91.5t-164 149.5t-107.5 211t-38.5 270v58q0 173 58 317.5t159.5 243.5
t242.5 153.5t304 54.5h8q138 0 256.5 -36.5t204 -100.5t146.5 -149.5t91 -184t30 -203.5v-51q0 -203 -97 -327.5t-249 -124.5zM702 481q0 -110 43 -162.5t118 -52.5t118 50.5t43 156.5v80q0 96 -46 148.5t-117 52.5t-115 -53.5t-44 -157.5v-62z" />
    <glyph glyph-name="A" unicode="A" horiz-adv-x="1259" 
d="M242 0h-191l483 1365h191l482 -1365h-194l-134 402h-503zM631 1152h-7l-200 -601h408z" />
    <glyph glyph-name="B" unicode="B" horiz-adv-x="1279" 
d="M189 0v1365h518q175 0 278 -90.5t103 -245.5q0 -116 -57 -192.5t-163 -108.5v-8q138 -18 217.5 -106.5t79.5 -230.5q0 -179 -128 -281t-348 -102h-500zM372 1205v-425h206q168 0 246.5 53t78.5 164q0 98 -60 153t-168 55h-303zM372 625v-465h234q197 0 284 53t87 171
q0 114 -74 177.5t-209 63.5h-322z" />
    <glyph glyph-name="C" unicode="C" horiz-adv-x="1305" 
d="M320 774v-192q0 -212 93.5 -328t264.5 -116q131 0 217.5 67t100.5 177h182v-6q-15 -176 -156 -290t-345 -114q-259 0 -400.5 159.5t-141.5 449.5v196q0 289 143.5 452.5t398.5 163.5q206 0 346.5 -119t154.5 -305v-7h-182q-14 117 -101.5 191t-216.5 74
q-169 0 -263.5 -119.5t-94.5 -333.5z" />
    <glyph glyph-name="D" unicode="D" horiz-adv-x="1348" 
d="M189 1365h444q297 0 449 -173.5t152 -508.5t-152 -509t-449 -174h-444v1365zM373 1201v-1036h247q213 0 318 128.5t105 388.5q0 519 -423 519h-247z" />
    <glyph glyph-name="E" unicode="E" horiz-adv-x="1154" 
d="M1014 165v-165h-825v1365h825v-165h-642v-424h606v-160h-606v-451h642z" />
    <glyph glyph-name="F" unicode="F" horiz-adv-x="1087" 
d="M373 0h-184v1365h813v-165h-629v-453h576v-164h-576v-583z" />
    <glyph glyph-name="G" unicode="G" horiz-adv-x="1330" 
d="M1186 991h-184q-27 110 -112 173t-209 63q-170 0 -266 -119t-96 -330v-184q0 -216 96.5 -336t271.5 -120q159 0 244 80.5t85 211.5v126h-345v159h524v-281q0 -204 -134.5 -333t-372.5 -129q-264 0 -408.5 163.5t-144.5 457.5v186q0 283 147 448.5t403 165.5
q204 0 339 -111t162 -291z" />
    <glyph glyph-name="H" unicode="H" horiz-adv-x="1422" 
d="M1233 0h-184v623h-676v-623h-184v1365h184v-577h676v577h184v-1365z" />
    <glyph glyph-name="I" unicode="I" horiz-adv-x="562" 
d="M373 0h-184v1365h184v-1365z" />
    <glyph glyph-name="J" unicode="J" horiz-adv-x="1028" 
d="M51 324h180q3 -81 60.5 -132t144.5 -51q109 0 166.5 63t57.5 182v979h185v-963q0 -205 -107.5 -317.5t-301.5 -112.5q-175 0 -280 98.5t-105 253.5z" />
    <glyph glyph-name="K" unicode="K" horiz-adv-x="1246" 
d="M1182 1365l-507 -582l533 -783h-232l-438 654l-165 -180v-474h-184v1365h184v-653h8l586 653h215z" />
    <glyph glyph-name="L" unicode="L" horiz-adv-x="1045" 
d="M997 167v-167h-808v1365h184v-1198h624z" />
    <glyph glyph-name="M" unicode="M" horiz-adv-x="1643" 
d="M360 0h-167v1365h181l445 -1040h6l444 1040h180v-1365h-167v989h-10l-376 -867h-150l-377 867h-9v-989z" />
    <glyph glyph-name="N" unicode="N" horiz-adv-x="1417" 
d="M370 0h-181v1365h174l675 -1044h9v1044h181v-1365h-174l-677 1046h-7v-1046z" />
    <glyph glyph-name="O" unicode="O" horiz-adv-x="1369" 
d="M1050 781q0 217 -101 332t-264 115t-264 -114.5t-101 -332.5v-198q0 -217 101 -331.5t264 -114.5t264 114.5t101 331.5v198zM1235 584q0 -288 -148 -450t-402 -162t-402 162t-148 450v197q0 288 148 450t402 162t402 -162t148 -450v-197z" />
    <glyph glyph-name="P" unicode="P" horiz-adv-x="1207" 
d="M691 1365q197 0 317 -119.5t120 -309.5q0 -191 -120 -309.5t-318 -118.5h-317v-508h-184v1365h502zM939 936q0 127 -69.5 196.5t-195.5 69.5h-301v-532h301q126 0 195.5 70t69.5 196z" />
    <glyph glyph-name="Q" unicode="Q" horiz-adv-x="1372" 
d="M1245 -152h-203l-123 169q-105 -45 -234 -45q-255 0 -402.5 164.5t-147.5 447.5v196q0 284 147 448.5t403 164.5t403 -164.5t147 -448.5v-196q0 -313 -176 -477zM318 583q0 -210 97.5 -329.5t268.5 -120.5q76 0 135 25l-182 250h202l113 -153q100 117 100 328v198
q0 208 -98.5 327.5t-268.5 119.5t-268.5 -119.5t-98.5 -327.5v-198z" />
    <glyph glyph-name="R" unicode="R" horiz-adv-x="1271" 
d="M687 1365q203 0 323 -111.5t120 -298.5q0 -138 -69 -239t-185 -142l278 -574h-209l-251 539h-322v-539h-183v1365h498zM372 699h284q138 0 211 62.5t73 183.5q0 123 -73 190.5t-204 67.5h-291v-504z" />
    <glyph glyph-name="S" unicode="S" horiz-adv-x="1213" 
d="M89 347h186q20 -97 107 -154.5t220 -57.5q142 0 224.5 63t82.5 170q0 81 -53.5 131.5t-168.5 79.5l-237 61q-155 40 -239 132.5t-84 228.5q0 174 134 285t343 111q200 0 329 -100.5t145 -258.5h-185q-19 91 -96.5 143.5t-195.5 52.5q-129 0 -208 -62t-79 -162
q0 -145 192 -193l233 -61q182 -47 269 -136.5t87 -236.5q0 -187 -138.5 -299t-373.5 -112q-214 0 -347 103.5t-147 271.5z" />
    <glyph glyph-name="T" unicode="T" horiz-adv-x="1101" 
d="M643 0h-184v1200h-412v165h1007v-165h-411v-1200z" />
    <glyph glyph-name="U" unicode="U" horiz-adv-x="1388" 
d="M694 139q154 0 245 90.5t91 248.5v887h185v-894q0 -224 -143 -361.5t-378 -137.5t-378 137t-143 362v894h184v-887q0 -158 91 -248.5t246 -90.5z" />
    <glyph glyph-name="V" unicode="V" horiz-adv-x="1257" 
d="M532 0l-489 1365h210l372 -1146h10l371 1146h208l-489 -1365h-193z" />
    <glyph glyph-name="W" unicode="W" horiz-adv-x="1734" 
d="M579 0h-164l-375 1365h212l248 -1082h10l267 1082h180l268 -1082h10l248 1082h211l-374 -1365h-165l-284 1063h-8z" />
    <glyph glyph-name="X" unicode="X" horiz-adv-x="1184" 
d="M1153 1365l-451 -689l442 -676h-221l-335 532h-10l-338 -532h-207l444 688l-438 677h221l337 -534h10l335 534h211z" />
    <glyph glyph-name="Y" unicode="Y" horiz-adv-x="1148" 
d="M666 0h-184v578l-456 787h209l335 -602h9l336 602h207l-456 -785v-580z" />
    <glyph glyph-name="Z" unicode="Z" horiz-adv-x="1203" 
d="M110 0v129l723 1061v11h-698v164h926v-129l-719 -1061v-11h736v-164h-968z" />
    <glyph glyph-name="bracketleft" unicode="[" horiz-adv-x="712" 
d="M199 1437h454v-138h-281v-1470h281v-138h-454v1746z" />
    <glyph glyph-name="backslash" unicode="\" horiz-adv-x="712" 
d="M686 -309h-168l-492 1746h167z" />
    <glyph glyph-name="bracketright" unicode="]" horiz-adv-x="712" 
d="M59 1437h454v-1746h-454v138h282v1470h-282v138z" />
    <glyph glyph-name="asciicircum" unicode="^" horiz-adv-x="822" 
d="M749 795h-155l-180 421h-6l-180 -421h-155l253 570h171z" />
    <glyph glyph-name="underscore" unicode="_" horiz-adv-x="897" 
d="M898 -248h-899v145h899v-145z" />
    <glyph glyph-name="grave" unicode="`" horiz-adv-x="1000" 
d="M667 1223h-138l-278 356h178z" />
    <glyph glyph-name="a" unicode="a" horiz-adv-x="1117" 
d="M462 -17q-154 0 -249 88.5t-95 234.5q0 141 96 225t274 84h275v104q0 98 -58 146.5t-162 48.5q-174 0 -210 -124h-175q12 134 113.5 206.5t277.5 72.5q85 0 154 -19t124.5 -59t86.5 -109.5t31 -163.5v-718h-174v139h-8q-95 -156 -301 -156zM512 136q107 0 179 64t72 159
v118h-260q-102 0 -151 -45t-49 -120q0 -85 60.5 -130.5t148.5 -45.5z" />
    <glyph glyph-name="b" unicode="b" horiz-adv-x="1209" 
d="M674 -16q-111 0 -194 45.5t-118 126.5h-9v-156h-174v1437h181v-551h9q25 82 110.5 132t199.5 50q186 0 294.5 -121.5t108.5 -330.5v-179q0 -210 -110 -331.5t-298 -121.5zM639 141q124 0 192.5 86t68.5 241v111q0 158 -69.5 245t-196.5 87q-126 0 -200 -83.5t-74 -225.5
v-172q0 -127 78.5 -208t200.5 -81z" />
    <glyph glyph-name="c" unicode="c" horiz-adv-x="1085" 
d="M127 443v171q0 208 118.5 332t320.5 124q95 0 172.5 -28t126.5 -74t76 -103t29 -119h-177q-5 27 -17.5 52.5t-36.5 52t-68 42.5t-102 16q-127 0 -194 -80.5t-67 -221.5v-165q0 -138 70 -218.5t191 -80.5q197 0 232 151h176q-2 -48 -18 -92.5t-49.5 -84.5t-80.5 -69.5
t-114.5 -47t-148.5 -17.5q-203 0 -321 124t-118 336z" />
    <glyph glyph-name="d" unicode="d" horiz-adv-x="1211" 
d="M535 1068q111 0 192 -46t113 -126h9v541h181v-1437h-174v168h-9q-23 -80 -112 -131.5t-204 -51.5q-184 0 -294 119.5t-110 320.5v202q0 201 112 321t296 120zM572 911q-123 0 -193 -85t-70 -235v-127q0 -152 71 -237t197 -85q124 0 198 82.5t74 222.5v180
q0 125 -78 204.5t-199 79.5z" />
    <glyph glyph-name="e" unicode="e" horiz-adv-x="1121" 
d="M577 -17q-211 0 -330.5 124.5t-119.5 339.5v158q0 213 122 339t314 126q193 0 315 -127t122 -338v-126h-693v-53q0 -127 71 -207.5t198 -80.5q88 0 149 36t75 88h186q-6 -45 -34 -92t-76 -90t-126 -70t-173 -27zM307 610h513v17q0 130 -70 209t-186 79t-186.5 -79
t-70.5 -209v-17z" />
    <glyph glyph-name="f" unicode="f" horiz-adv-x="802" 
d="M268 0v900h-177v149h177v106q0 153 77.5 223.5t252.5 70.5q57 0 120 -6v-147q-32 4 -94 4q-95 0 -136 -35t-41 -125v-91h244v-149h-242v-900h-181z" />
    <glyph glyph-name="g" unicode="g" horiz-adv-x="1175" 
d="M558 -232q136 0 206 69t70 195v152h-10q-32 -72 -111 -118.5t-184 -46.5q-180 0 -297.5 120t-117.5 323v161q0 204 117.5 324.5t296.5 120.5q111 0 193.5 -52t111.5 -122h9v158h173v-1021q0 -209 -125.5 -312.5t-337.5 -103.5q-191 0 -297.5 82.5t-117.5 206.5h184
q11 -58 74 -97t163 -39zM573 911q-127 0 -202 -88t-75 -233v-98q0 -142 78 -230.5t201 -88.5q120 0 189.5 84.5t69.5 203.5v157q0 121 -71 207t-190 86z" />
    <glyph glyph-name="h" unicode="h" horiz-adv-x="1222" 
d="M181 0v1437h181v-576h9q7 25 20.5 50t40.5 54.5t61.5 51.5t87.5 37t116 15q158 0 255.5 -91t97.5 -262v-716h-181v658q0 122 -62 186.5t-171 64.5q-131 0 -202.5 -90.5t-71.5 -232.5v-586h-181z" />
    <glyph glyph-name="i" unicode="i" horiz-adv-x="587" 
d="M203 0v1052h181v-1052h-181zM165 1376q0 54 36.5 90t90.5 36q57 0 94 -35.5t37 -90.5q0 -54 -37 -89.5t-94 -35.5q-54 0 -90.5 35.5t-36.5 89.5z" />
    <glyph glyph-name="j" unicode="j" horiz-adv-x="587" 
d="M165 1376q0 54 36.5 90t90.5 36q57 0 94 -35.5t37 -90.5q0 -54 -37 -89.5t-94 -35.5q-54 0 -90.5 35.5t-36.5 89.5zM384 1052v-1077q0 -344 -291 -344q-65 0 -101 9v143q32 -4 65 -4q80 0 113 47t33 151v1075h181z" />
    <glyph glyph-name="k" unicode="k" horiz-adv-x="1074" 
d="M362 386v-386h-181v1437h181v-856h7l424 471h209l-412 -456l439 -596h-216l-356 483z" />
    <glyph glyph-name="l" unicode="l" horiz-adv-x="549" 
d="M184 0v1437h181v-1437h-181z" />
    <glyph glyph-name="m" unicode="m" horiz-adv-x="1792" 
d="M178 0v1052h179v-167h10q11 32 28.5 60.5t49.5 58.5t85 47.5t122 17.5q115 0 190.5 -54.5t101.5 -143.5h8q36 86 116.5 142t204.5 56q163 0 254.5 -86t91.5 -243v-740h-181v688q0 102 -56.5 162t-161.5 60q-99 0 -165.5 -68.5t-66.5 -175.5v-666h-179v681
q0 104 -60 166.5t-163 62.5q-100 0 -163.5 -67.5t-63.5 -174.5v-668h-181z" />
    <glyph glyph-name="n" unicode="n" horiz-adv-x="1216" 
d="M178 0v1052h179v-191h10q11 37 30.5 68.5t55 65.5t95.5 54t138 20q164 0 260.5 -89.5t96.5 -261.5v-718h-181v660q0 122 -59.5 185.5t-168.5 63.5q-133 0 -204 -90t-71 -233v-586h-181z" />
    <glyph glyph-name="o" unicode="o" horiz-adv-x="1162" 
d="M582 1070q200 0 327 -125t127 -341v-154q0 -218 -126.5 -342.5t-327.5 -124.5q-204 0 -329.5 123.5t-125.5 343.5v154q0 210 127.5 338t327.5 128zM583 914q-125 0 -200 -90.5t-75 -234.5v-126q0 -148 72.5 -236.5t202.5 -88.5q128 0 199.5 88.5t71.5 236.5v126
q0 145 -73 235t-198 90z" />
    <glyph glyph-name="p" unicode="p" horiz-adv-x="1208" 
d="M671 -16q-109 0 -187 44.5t-115 127.5h-9v-505h-181v1402h174v-167h9q32 85 116.5 133.5t198.5 48.5q185 0 293.5 -122t108.5 -330v-179q0 -210 -110 -331.5t-298 -121.5zM634 141q125 0 194 86t69 243v110q0 158 -70 244.5t-198 86.5q-125 0 -197 -81.5t-72 -223.5v-181
q0 -126 76 -205t198 -79z" />
    <glyph glyph-name="q" unicode="q" horiz-adv-x="1206" 
d="M530 1068q111 0 194.5 -48t120.5 -133h9v165h173v-1401h-181v508h-9q-34 -82 -116.5 -128.5t-193.5 -46.5q-184 0 -292 121t-108 328v185q0 205 110 327.5t293 122.5zM572 910q-122 0 -192.5 -85.5t-70.5 -234.5v-128q0 -152 70.5 -237t196.5 -85q125 0 197.5 82
t72.5 223v181q0 125 -76.5 204.5t-197.5 79.5z" />
    <glyph glyph-name="r" unicode="r" horiz-adv-x="802" 
d="M194 0v1052h181v-162h9q11 30 30.5 58t52.5 56.5t86 46t119 17.5q31 0 66 -5v-167q-25 6 -85 6q-134 0 -205.5 -70.5t-71.5 -182.5v-649h-182z" />
    <glyph glyph-name="s" unicode="s" horiz-adv-x="1041" 
d="M128 750q0 81 32 144t87.5 100.5t124.5 56.5t148 19q170 0 273.5 -81t103.5 -215h-168q-5 62 -60.5 107t-154.5 45q-94 0 -152.5 -41.5t-58.5 -115.5q0 -93 112 -131q37 -12 149 -32q66 -12 114 -24.5t97 -35.5t79.5 -52.5t50 -76t19.5 -105.5q0 -155 -114 -242t-306 -87
q-179 0 -287 77.5t-108 216.5h177q23 -151 226 -151q118 0 176 45.5t58 118.5q0 17 -3 32t-11 27.5l-14.5 22.5t-22.5 19t-25 15t-32 13.5l-33 11t-39 9.5t-39.5 8t-43.5 9q-49 10 -82 18t-73.5 21.5t-67 27.5t-54 36t-43 48.5t-25.5 62.5t-10 79z" />
    <glyph glyph-name="t" unicode="t" horiz-adv-x="771" 
d="M237 1049v264h179v-264h238v-149h-238v-602q0 -91 36.5 -123t133.5 -32q49 0 83 4v-147q-45 -9 -129 -9q-93 0 -153 17.5t-93 57.5t-45.5 93t-12.5 136v605h-161v149h162z" />
    <glyph glyph-name="u" unicode="u" horiz-adv-x="1210" 
d="M1032 1052v-1052h-179v175h-10q-27 -76 -107 -134t-206 -58q-168 0 -264 82t-96 258v729h181v-680q0 -122 62.5 -175.5t166.5 -53.5q114 0 192.5 72.5t78.5 174.5v662h181z" />
    <glyph glyph-name="v" unicode="v" horiz-adv-x="1041" 
d="M422 0l-370 1052h200l259 -863h7l279 863h193l-381 -1052h-187z" />
    <glyph glyph-name="w" unicode="w" horiz-adv-x="1523" 
d="M1466 1052l-280 -1052h-180l-237 803h-5l-231 -803h-181l-295 1052h201l186 -825h7l230 825h170l237 -825h7l190 825h181z" />
    <glyph glyph-name="x" unicode="x" horiz-adv-x="1072" 
d="M781 0l-246 389h-7l-247 -389h-202l350 520l-354 532h216l240 -387h8l247 387h206l-356 -516l359 -536h-214z" />
    <glyph glyph-name="y" unicode="y" horiz-adv-x="1094" 
d="M1019 1052q-7 -27 -100.5 -290l-182.5 -513l-89 -250l-22 -57q-63 -168 -149 -239.5t-224 -71.5q-65 0 -104 9v148q32 -6 77 -6q88 0 137.5 38.5t73.5 127.5l11 39l-386 1065h201l278 -873h8l279 873h192z" />
    <glyph glyph-name="z" unicode="z" horiz-adv-x="1023" 
d="M121 0v121l556 764v10h-558v157h783v-125l-553 -760v-10h559v-157h-787z" />
    <glyph glyph-name="braceleft" unicode="{" horiz-adv-x="712" 
d="M223 594v-23q172 -15 172 -225v-302q0 -111 49.5 -160.5t169.5 -49.5h39v-143h-59q-181 0 -274.5 80t-93.5 258v257q0 109 -34.5 155t-132.5 46v190q98 0 132.5 46t34.5 155v230q0 175 92.5 252t274.5 77h60v-143h-39q-120 0 -169.5 -49t-49.5 -160v-269
q0 -205 -172 -222z" />
    <glyph glyph-name="bar" unicode="|" horiz-adv-x="712" 
d="M435 -309h-159v1746h159v-1746z" />
    <glyph glyph-name="braceright" unicode="}" horiz-adv-x="712" 
d="M489 571v23q-172 17 -172 222v269q0 111 -49.5 160t-169.5 49h-39v143h60q182 0 274.5 -77t92.5 -252v-230q0 -109 34.5 -155t132.5 -46v-190q-98 0 -132.5 -46t-34.5 -155v-257q0 -177 -93.5 -257.5t-273.5 -80.5h-60v143h39q120 0 169.5 49.5t49.5 160.5v302
q0 104 44 160.5t128 64.5z" />
    <glyph glyph-name="asciitilde" unicode="~" horiz-adv-x="1167" 
d="M792 491q-60 0 -111.5 22t-88 53.5t-69 63.5t-68.5 54t-72 22q-58 0 -91 -49t-36 -124h-157q-1 66 16 124.5t50 106t88 75t124 27.5q61 0 113 -22t88 -54t67.5 -63.5t67 -53.5t71.5 -22q58 0 90.5 49.5t35.5 124.5h157q1 -140 -71 -237t-204 -97z" />
    <glyph glyph-name="nonbreakingspace" unicode="&#xa0;" horiz-adv-x="463" 
 />
    <glyph glyph-name="exclamdown" unicode="&#xa1;" horiz-adv-x="575" 
d="M389 -277h-204l23 880h159zM432 968q0 -62 -40.5 -102t-101.5 -40q-64 0 -105.5 40t-41.5 102q0 60 41.5 99t105.5 39q60 0 101 -39.5t41 -98.5z" />
    <glyph glyph-name="cent" unicode="&#xa2;" horiz-adv-x="1149" 
d="M327 722v-61q0 -131 54 -218t148 -112v720q-96 -23 -149 -109.5t-53 -219.5zM827 477h173q-24 -132 -113 -214t-239 -96v-187h-119v187q-179 21 -279.5 156.5t-100.5 338.5v66q0 201 101 332.5t279 152.5v172h119v-172q151 -17 244.5 -111.5t99.5 -214.5h-172
q-15 60 -61.5 106.5t-110.5 60.5v-729q73 11 119.5 52.5t59.5 99.5z" />
    <glyph glyph-name="sterling" unicode="&#xa3;" horiz-adv-x="1149" 
d="M414 153h618v-153h-900v148q111 23 173 109.5t62 208.5q0 69 -21 162h-223v116h194q-44 159 -44 257q0 181 123 286.5t335 105.5q133 0 246 -51v-159q-113 52 -237 52q-129 0 -208 -63.5t-79 -171.5q0 -90 42 -256h396v-116h-368q18 -80 18 -152q0 -226 -127 -308v-15z
" />
    <glyph glyph-name="currency" unicode="&#xa4;" horiz-adv-x="1149" 
d="M955 165l-174 174q-92 -59 -201 -59q-112 0 -206 62l-177 -177l-101 103l175 176q-65 97 -65 211q0 112 61 204l-171 170l102 104l169 -170q93 67 213 67q115 0 208 -63l167 166l102 -104l-167 -166q64 -94 64 -208q0 -118 -69 -216l172 -171zM336 655q0 -100 71.5 -171
t172.5 -71q100 0 172 71t72 171t-72 171.5t-172 71.5q-101 0 -172.5 -71t-71.5 -172z" />
    <glyph glyph-name="yen" unicode="&#xa5;" horiz-adv-x="1149" 
d="M1106 1365l-393 -704h240v-110h-285v-148h285v-110h-285v-293h-184v293h-288v110h288v148h-288v110h242l-392 704h209l317 -602h9l317 602h208z" />
    <glyph glyph-name="brokenbar" unicode="&#xa6;" horiz-adv-x="712" 
d="M435 791h-159v646h159v-646zM435 -309h-159v672h159v-672z" />
    <glyph glyph-name="section" unicode="&#xa7;" horiz-adv-x="984" 
d="M706 72q0 87 -91 131q-41 19 -169 51q-60 15 -105.5 30.5t-89.5 40.5t-72.5 56t-46 76t-17.5 100q0 159 168 245v7q-163 92 -163 256q0 105 54 181t138 112t186 36q164 0 266 -88.5t102 -224.5h-164q-3 61 -58.5 112t-151.5 51q-88 0 -142.5 -47.5t-54.5 -123.5
q0 -30 9 -54.5t29 -42t39.5 -30t54 -24t57.5 -17.5t64 -15q61 -14 101.5 -26.5t90 -36.5t79 -54t50 -78t20.5 -109q0 -83 -43.5 -147.5t-107.5 -105.5v-8q66 -42 105.5 -96t39.5 -140q0 -154 -111.5 -247.5t-286.5 -93.5q-165 0 -276.5 84t-112.5 227h170q12 -75 68 -117
t153 -42q111 0 165 49t54 123zM598 374q50 19 83.5 72.5t33.5 112.5q0 77 -55.5 119.5t-164.5 65.5q-37 6 -78 16q-47 -13 -88.5 -65t-41.5 -116q0 -76 54.5 -116t162.5 -67z" />
    <glyph glyph-name="dieresis" unicode="&#xa8;" horiz-adv-x="1000" 
d="M684 1227q-47 0 -79 30.5t-32 76.5t32 76.5t79 30.5t79 -30.5t32 -76.5t-32 -76.5t-79 -30.5zM316 1227q-47 0 -79 30.5t-32 76.5t32 76.5t79 30.5t79 -30.5t32 -76.5t-32 -76.5t-79 -30.5z" />
    <glyph glyph-name="copyright" unicode="&#xa9;" horiz-adv-x="1693" 
d="M532 632v99q0 157 88 244.5t238 87.5q136 0 216.5 -75t82.5 -174h-129q-8 50 -47.5 90t-121.5 40q-198 0 -198 -219v-94q0 -104 52.5 -156t145.5 -52q149 0 175 111h129q-4 -96 -82.5 -166.5t-222.5 -70.5q-151 0 -238.5 87t-87.5 248zM256 640q0 -168 73.5 -300.5
t210 -208t312.5 -75.5t313 75.5t211.5 208t74.5 300.5v107q0 155 -75 283.5t-212.5 204t-311.5 75.5t-311 -75.5t-211 -203.5t-74 -284v-107zM852 -64q-209 0 -374 92t-255.5 253.5t-90.5 362.5v103q0 142 54 268t148 218t229 145.5t289 53.5q155 0 290 -54t228.5 -146.5
t147.5 -218.5t54 -266v-103q0 -151 -53 -282t-146.5 -224.5t-228.5 -147.5t-292 -54z" />
    <glyph glyph-name="ordfeminine" unicode="&#xaa;" horiz-adv-x="918" 
d="M374 490q-127 0 -204 72.5t-77 191.5t81 187.5t222 68.5h221v84q0 74 -43.5 112.5t-126.5 38.5q-136 0 -163 -99h-158q8 113 93 174.5t233 61.5q159 0 245 -75t86 -214v-589h-158v113h-8q-36 -61 -99 -94t-144 -33zM423 625q83 0 138.5 49.5t55.5 122.5v96h-200
q-74 0 -115 -34.5t-41 -96.5t44 -99.5t118 -37.5z" />
    <glyph glyph-name="guillemotleft" unicode="&#xab;" horiz-adv-x="1320" 
d="M614 565l344 404h200l-339 -403v-6l339 -405h-209l-335 402v8zM136 565l344 404h199l-339 -403v-6l339 -405h-208l-335 402v8z" />
    <glyph glyph-name="logicalnot" unicode="&#xac;" horiz-adv-x="1149" 
d="M1056 97h-159v372h-804v150h963v-522z" />
    <glyph glyph-name="registered" unicode="&#xae;" horiz-adv-x="1211" 
d="M608 414q-211 0 -349 133t-138 335v69q0 190 140 321.5t347 131.5q206 0 346.5 -132t140.5 -321v-69q0 -202 -137.5 -335t-349.5 -133zM608 510q170 0 280.5 106t110.5 267v68q0 151 -111.5 255t-279.5 104t-279 -104t-111 -255v-68q0 -161 110 -267t280 -106zM530 1086
v-152h77q101 0 101 76q0 37 -24 56.5t-64 19.5h-90zM530 680h-96v479h221q66 0 108.5 -41.5t42.5 -103.5q0 -52 -26.5 -90.5t-67.5 -50.5l109 -193h-112l-95 182h-84v-182z" />
    <glyph glyph-name="macron" unicode="&#xaf;" horiz-adv-x="1000" 
d="M792 1249h-597v119h597v-119z" />
    <glyph glyph-name="degree" unicode="&#xb0;" horiz-adv-x="726" 
d="M364 815q-119 0 -202 82.5t-83 201.5t82.5 201t202.5 82q119 0 201.5 -82.5t82.5 -200.5t-83 -201t-201 -83zM363 945q61 0 105 45t44 108q0 64 -43.5 109t-105.5 45q-61 0 -104.5 -45.5t-43.5 -108.5q0 -62 44 -107.5t104 -45.5z" />
    <glyph glyph-name="plusminus" unicode="&#xb1;" horiz-adv-x="1149" 
d="M647 655v-283h-150v283h-400v148h400v269h150v-269h403v-148h-403zM1052 113h-953v149h953v-149z" />
    <glyph glyph-name="two.sups" unicode="&#xb2;" horiz-adv-x="760" 
d="M253 1484h-173v10q0 118 84.5 193t215.5 75q130 0 212 -67.5t82 -174.5q0 -67 -35.5 -131t-125.5 -160l-177 -187v-8h356v-150h-603v116l312 332q53 54 74.5 93t21.5 83q0 47 -33 77t-85 30q-56 0 -91.5 -34t-35.5 -86q0 -2 0.5 -6t0.5 -5z" />
    <glyph glyph-name="three.sups" unicode="&#xb3;" horiz-adv-x="778" 
d="M284 1255v142h91q56 0 92 32t35 81q0 48 -35.5 79t-90.5 31q-54 0 -91 -29t-38 -75h-170q3 112 85.5 179t218.5 67q133 0 216 -62.5t85 -163.5q1 -71 -46 -129t-114 -68v-10q79 -6 131 -64t54 -140q1 -115 -91 -187t-240 -72q-138 0 -225 68.5t-89 180.5h167
q3 -46 45 -75.5t103 -29.5q66 -1 107.5 33.5t41.5 91.5q-1 54 -41 87t-105 33h-96z" />
    <glyph glyph-name="acute" unicode="&#xb4;" horiz-adv-x="1000" 
d="M315 1223l239 356h177l-278 -356h-138z" />
    <glyph glyph-name="mugreek" unicode="&#x3bc;" horiz-adv-x="1279" 
d="M181 -349v1401h180v-658q0 -116 59.5 -183.5t167.5 -67.5q118 0 191.5 73.5t73.5 175.5v660h181v-785q0 -74 19 -99.5t71 -25.5q24 0 51 5v-147q-35 -10 -89 -10q-193 0 -216 161l-2 16h-11q-37 -88 -105.5 -136t-162.5 -48q-149 0 -218 110h-9v-442h-181z" />
    <glyph glyph-name="mugreek" unicode="&#xb5;" horiz-adv-x="1279" 
d="M181 -349v1401h180v-658q0 -116 59.5 -183.5t167.5 -67.5q118 0 191.5 73.5t73.5 175.5v660h181v-785q0 -74 19 -99.5t71 -25.5q24 0 51 5v-147q-35 -10 -89 -10q-193 0 -216 161l-2 16h-11q-37 -88 -105.5 -136t-162.5 -48q-149 0 -218 110h-9v-442h-181z" />
    <glyph glyph-name="paragraph" unicode="&#xb6;" horiz-adv-x="1311" 
d="M765 -210h-178v726h-20q-52 0 -108.5 13t-117 45t-107.5 79t-77.5 121.5t-30.5 164.5q0 98 30.5 175.5t77.5 123.5t108 75.5t116.5 40.5t109.5 11h197v-1575zM924 -210v1575h178v-1575h-178z" />
    <glyph glyph-name="periodcentered" unicode="&#xb7;" horiz-adv-x="659" 
d="M182 745q0 65 42 107t103 42q65 0 107.5 -41.5t42.5 -107.5q0 -63 -42.5 -104t-107.5 -41q-61 0 -103 41.5t-42 103.5z" />
    <glyph glyph-name="cedilla" unicode="&#xb8;" horiz-adv-x="1000" 
d="M386 -234v81l61 162h123l-53 -144q97 0 153.5 -41t56.5 -121q0 -91 -62 -138t-162 -51q-83 -4 -150 15v107q47 -14 116 -14q48 0 82.5 18t34.5 59q0 16 -5 28t-17 19t-23.5 11.5t-31 6t-33 2t-37.5 0.5h-53z" />
    <glyph glyph-name="one.sups" unicode="&#xb9;" horiz-adv-x="619" 
d="M468 884h-177v690h-8l-200 -142v168l202 145h183v-861z" />
    <glyph glyph-name="ordmasculine" unicode="&#xba;" horiz-adv-x="954" 
d="M477 1382q171 0 274 -105.5t103 -279.5v-107q0 -177 -102.5 -282t-274.5 -105q-175 0 -276.5 104t-101.5 283v107q0 171 104.5 278t273.5 107zM478 1244q-97 0 -154.5 -71t-57.5 -186v-90q0 -117 56.5 -187t155.5 -70q98 0 154 69.5t56 187.5v90q0 116 -57 186.5
t-153 70.5z" />
    <glyph glyph-name="guillemotright" unicode="&#xbb;" horiz-adv-x="1320" 
d="M1184 565v-8l-335 -402h-208l339 405v6l-339 403h199zM706 565v-8l-335 -402h-209l339 405v6l-339 403h200z" />
    <glyph glyph-name="onequarter" unicode="&#xbc;" horiz-adv-x="1825" 
d="M468 504h-177v690h-8l-200 -142v168l202 145h183v-861zM514 0l282 715l244 650h176l-271 -686l-254 -679h-177zM1406 861h254v-561h115v-146h-115v-154h-162v154h-417v151l79.5 144l76.5 131.5l88 146.5zM1246 298h253v424h-8q-133 -207 -245 -420v-4z" />
    <glyph glyph-name="onehalf" unicode="&#xbd;" horiz-adv-x="1786" 
d="M468 504h-177v690h-8l-200 -142v168l202 145h183v-861zM514 0l282 715l244 650h176l-271 -686l-254 -679h-177zM1316 600h-173v10q0 118 84.5 193t215.5 75q130 0 212 -67.5t82 -174.5q0 -67 -35.5 -131t-125.5 -160l-177 -187v-8h356v-150h-603v116l312 332
q53 54 74.5 93t21.5 83q0 47 -33 77t-85 30q-56 0 -91.5 -34t-35.5 -86q0 -2 0.5 -6t0.5 -5z" />
    <glyph glyph-name="threequarters" unicode="&#xbe;" horiz-adv-x="1939" 
d="M284 875v142h91q56 0 92 32t35 81q0 48 -35.5 79t-90.5 31q-54 0 -91 -29t-38 -75h-170q3 112 85.5 179t218.5 67q133 0 216 -62.5t85 -163.5q1 -71 -46 -129t-114 -68v-10q79 -6 131 -64t54 -140q1 -115 -91 -187t-240 -72q-138 0 -225 68.5t-89 180.5h167
q3 -46 45 -75.5t103 -29.5q66 -1 107.5 33.5t41.5 91.5q-1 54 -41 87t-105 33h-96zM628 0l282 715l244 650h176l-271 -686l-254 -679h-177zM1520 861h254v-561h115v-146h-115v-154h-162v154h-417v151l79.5 144l76.5 131.5l88 146.5zM1360 298h253v424h-8
q-133 -207 -245 -420v-4z" />
    <glyph glyph-name="questiondown" unicode="&#xbf;" horiz-adv-x="1002" 
d="M664 952q0 -62 -41 -102t-102 -40q-64 0 -105.5 40t-41.5 102q0 59 41.5 98.5t105.5 39.5q60 0 101.5 -39.5t41.5 -98.5zM912 68q1 -86 -24 -154.5t-66 -112t-97 -72.5t-112.5 -41t-117.5 -12q-80 0 -151.5 21.5t-128.5 62.5t-90.5 108t-33.5 152q0 48 12 91t28 72.5
t45.5 62t50.5 51t57 47.5q44 35 62 50.5t42 40t32 43t14.5 45.5t6.5 62v59h176v-83q1 -97 -48 -165t-142 -141q-43 -34 -64.5 -53t-45 -47t-32.5 -57.5t-9 -67.5q0 -99 65 -149t162 -50q114 0 175 66t61 171h173z" />
    <glyph glyph-name="Agrave" unicode="&#xc0;" horiz-adv-x="1259" 
d="M242 0h-191l483 1365h191l482 -1365h-194l-134 402h-503zM631 1152h-7l-200 -601h408zM700 1512h-136l-279 323h177z" />
    <glyph glyph-name="Aacute" unicode="&#xc1;" horiz-adv-x="1259" 
d="M242 0h-191l483 1365h191l482 -1365h-194l-134 402h-503zM631 1152h-7l-200 -601h408zM560 1512l238 323h177l-279 -323h-136z" />
    <glyph glyph-name="Acircumflex" unicode="&#xc2;" horiz-adv-x="1259" 
d="M242 0h-191l483 1365h191l482 -1365h-194l-134 402h-503zM631 1152h-7l-200 -601h408zM691 1745l269 -245h-175l-153 140h-5l-162 -140h-171l280 245h117z" />
    <glyph glyph-name="Atilde" unicode="&#xc3;" horiz-adv-x="1259" 
d="M242 0h-191l483 1365h191l482 -1365h-194l-134 402h-503zM631 1152h-7l-200 -601h408zM751 1462q-44 0 -82 19t-59.5 41t-48 41t-50.5 19q-37 0 -53.5 -33t-18.5 -73h-112q0 87 46.5 150t131.5 63q35 0 66.5 -12.5t54 -30t42.5 -35t41 -30t41 -12.5q35 0 55 31.5t22 72.5
h112q0 -84 -50 -147.5t-138 -63.5z" />
    <glyph glyph-name="Adieresis" unicode="&#xc4;" horiz-adv-x="1259" 
d="M242 0h-191l483 1365h191l482 -1365h-194l-134 402h-503zM631 1152h-7l-200 -601h408zM803 1474q-45 0 -75.5 30.5t-30.5 74.5q0 43 30.5 73.5t75.5 30.5t76 -30.5t31 -73.5q0 -44 -31 -74.5t-76 -30.5zM455 1474q-45 0 -76 30.5t-31 74.5q0 43 31 73.5t76 30.5
t75.5 -30.5t30.5 -73.5q0 -44 -30.5 -74.5t-75.5 -30.5z" />
    <glyph glyph-name="Aring" unicode="&#xc5;" horiz-adv-x="1259" 
d="M242 0h-191l483 1365h191l482 -1365h-194l-134 402h-503zM631 1152h-7l-200 -601h408zM630 1483q-81 0 -136.5 54t-55.5 135q0 80 55.5 134t136.5 54t137 -54t56 -134t-56 -134.5t-137 -54.5zM529 1671q0 -43 29 -72.5t72 -29.5t71.5 29.5t28.5 72.5t-28.5 72.5
t-71.5 29.5t-72 -29.5t-29 -72.5z" />
    <glyph glyph-name="AE" unicode="&#xc6;" horiz-adv-x="1908" 
d="M879 1201l-338 -651h410v651h-72zM951 400h-485l-218 -400h-208l736 1365h991v-164h-633v-425h597v-160h-597v-451h633v-165h-816v400z" />
    <glyph glyph-name="Ccedilla" unicode="&#xc7;" horiz-adv-x="1305" 
d="M644 -487q-71 0 -130 16v107q50 -14 116 -14q54 0 85.5 20.5t31.5 56.5t-33 51.5t-113 15.5h-53v81l48 129q-221 23 -341 181t-120 424v196q0 286 143.5 451t395.5 165q218 0 362 -131t144 -332v-6h-181q0 129 -93 216t-232 87q-167 0 -260.5 -119.5t-93.5 -333.5v-192
q0 -215 92.5 -329t266.5 -114q143 0 231.5 77.5t88.5 202.5h181v-7q0 -177 -131 -301t-330 -138l-41 -108q100 0 155.5 -42.5t55.5 -119.5q0 -90 -64.5 -140t-180.5 -50z" />
    <glyph glyph-name="Egrave" unicode="&#xc8;" horiz-adv-x="1154" 
d="M1014 165v-165h-825v1365h825v-165h-642v-424h606v-160h-606v-451h642zM667 1512h-136l-279 323h177z" />
    <glyph glyph-name="Eacute" unicode="&#xc9;" horiz-adv-x="1154" 
d="M1014 165v-165h-825v1365h825v-165h-642v-424h606v-160h-606v-451h642zM527 1512l238 323h177l-279 -323h-136z" />
    <glyph glyph-name="Ecircumflex" unicode="&#xca;" horiz-adv-x="1154" 
d="M1014 165v-165h-825v1365h825v-165h-642v-424h606v-160h-606v-451h642zM658 1745l269 -245h-175l-153 140h-5l-162 -140h-171l280 245h117z" />
    <glyph glyph-name="Edieresis" unicode="&#xcb;" horiz-adv-x="1154" 
d="M1014 165v-165h-825v1365h825v-165h-642v-424h606v-160h-606v-451h642zM771 1474q-45 0 -75.5 30.5t-30.5 74.5q0 43 30.5 73.5t75.5 30.5t76 -30.5t31 -73.5q0 -44 -31 -74.5t-76 -30.5zM423 1474q-45 0 -76 30.5t-31 74.5q0 43 31 73.5t76 30.5t75.5 -30.5t30.5 -73.5
q0 -44 -30.5 -74.5t-75.5 -30.5z" />
    <glyph glyph-name="Igrave" unicode="&#xcc;" horiz-adv-x="562" 
d="M373 0h-184v1365h184v-1365zM351 1512h-136l-279 323h177z" />
    <glyph glyph-name="Iacute" unicode="&#xcd;" horiz-adv-x="562" 
d="M373 0h-184v1365h184v-1365zM211 1512l238 323h177l-279 -323h-136z" />
    <glyph glyph-name="Icircumflex" unicode="&#xce;" horiz-adv-x="562" 
d="M373 0h-184v1365h184v-1365zM342 1745l269 -245h-175l-153 140h-5l-162 -140h-171l280 245h117z" />
    <glyph glyph-name="Idieresis" unicode="&#xcf;" horiz-adv-x="562" 
d="M373 0h-184v1365h184v-1365zM454 1474q-45 0 -75.5 30.5t-30.5 74.5q0 43 30.5 73.5t75.5 30.5t76 -30.5t31 -73.5q0 -44 -31 -74.5t-76 -30.5zM106 1474q-45 0 -76 30.5t-31 74.5q0 43 31 73.5t76 30.5t75.5 -30.5t30.5 -73.5q0 -44 -30.5 -74.5t-75.5 -30.5z" />
    <glyph glyph-name="Eth" unicode="&#xd0;" horiz-adv-x="1427" 
d="M711 0h-444v614h-161v167h161v584h444q298 0 449.5 -173.5t151.5 -508.5t-152 -509t-449 -174zM452 166h246q213 0 318 128t105 389q0 262 -105 390.5t-318 128.5h-246v-421h301v-167h-301v-448z" />
    <glyph glyph-name="Ntilde" unicode="&#xd1;" horiz-adv-x="1417" 
d="M370 0h-181v1365h174l675 -1044h9v1044h181v-1365h-174l-677 1046h-7v-1046zM829 1462q-44 0 -82 19t-59.5 41t-48 41t-50.5 19q-37 0 -53.5 -33t-18.5 -73h-112q0 87 46.5 150t131.5 63q35 0 66.5 -12.5t54 -30t42.5 -35t41 -30t41 -12.5q35 0 55 31.5t22 72.5h112
q0 -84 -50 -147.5t-138 -63.5z" />
    <glyph glyph-name="Ograve" unicode="&#xd2;" horiz-adv-x="1369" 
d="M1050 781q0 217 -101 332t-264 115t-264 -114.5t-101 -332.5v-198q0 -217 101 -331.5t264 -114.5t264 114.5t101 331.5v198zM1235 584q0 -288 -148 -450t-402 -162t-402 162t-148 450v197q0 288 148 450t402 162t402 -162t148 -450v-197zM755 1512h-136l-279 323h177z
" />
    <glyph glyph-name="Oacute" unicode="&#xd3;" horiz-adv-x="1369" 
d="M1050 781q0 217 -101 332t-264 115t-264 -114.5t-101 -332.5v-198q0 -217 101 -331.5t264 -114.5t264 114.5t101 331.5v198zM1235 584q0 -288 -148 -450t-402 -162t-402 162t-148 450v197q0 288 148 450t402 162t402 -162t148 -450v-197zM615 1512l238 323h177l-279 -323
h-136z" />
    <glyph glyph-name="Ocircumflex" unicode="&#xd4;" horiz-adv-x="1369" 
d="M1050 781q0 217 -101 332t-264 115t-264 -114.5t-101 -332.5v-198q0 -217 101 -331.5t264 -114.5t264 114.5t101 331.5v198zM1235 584q0 -288 -148 -450t-402 -162t-402 162t-148 450v197q0 288 148 450t402 162t402 -162t148 -450v-197zM746 1745l269 -245h-175
l-153 140h-5l-162 -140h-171l280 245h117z" />
    <glyph glyph-name="Otilde" unicode="&#xd5;" horiz-adv-x="1369" 
d="M1050 781q0 217 -101 332t-264 115t-264 -114.5t-101 -332.5v-198q0 -217 101 -331.5t264 -114.5t264 114.5t101 331.5v198zM1235 584q0 -288 -148 -450t-402 -162t-402 162t-148 450v197q0 288 148 450t402 162t402 -162t148 -450v-197zM806 1462q-44 0 -82 19t-59.5 41
t-48 41t-50.5 19q-37 0 -53.5 -33t-18.5 -73h-112q0 87 46.5 150t131.5 63q35 0 66.5 -12.5t54 -30t42.5 -35t41 -30t41 -12.5q35 0 55 31.5t22 72.5h112q0 -84 -50 -147.5t-138 -63.5z" />
    <glyph glyph-name="Odieresis" unicode="&#xd6;" horiz-adv-x="1369" 
d="M1050 781q0 217 -101 332t-264 115t-264 -114.5t-101 -332.5v-198q0 -217 101 -331.5t264 -114.5t264 114.5t101 331.5v198zM1235 584q0 -288 -148 -450t-402 -162t-402 162t-148 450v197q0 288 148 450t402 162t402 -162t148 -450v-197zM858 1474q-45 0 -75.5 30.5
t-30.5 74.5q0 43 30.5 73.5t75.5 30.5t76 -30.5t31 -73.5q0 -44 -31 -74.5t-76 -30.5zM510 1474q-45 0 -76 30.5t-31 74.5q0 43 31 73.5t76 30.5t75.5 -30.5t30.5 -73.5q0 -44 -30.5 -74.5t-75.5 -30.5z" />
    <glyph glyph-name="multiply" unicode="&#xd7;" horiz-adv-x="1149" 
d="M886 74l-311 312l-313 -312l-107 110l312 311l-312 313l107 109l313 -313l311 313l107 -109l-312 -313l312 -311z" />
    <glyph glyph-name="Oslash" unicode="&#xd8;" horiz-adv-x="1369" 
d="M682 -28q-238 0 -380 140l-101 -125l-100 82l118 147q-84 148 -84 361v198q0 289 149 453.5t402 164.5q228 0 372 -136l97 120l104 -76l-118 -146q94 -154 94 -380v-198q0 -286 -149 -445.5t-404 -159.5zM317 577q0 -114 31 -199l598 737q-100 114 -262 114
q-163 0 -265 -118t-102 -336v-198zM684 136q164 0 265.5 112t101.5 329v198q0 121 -37 218l-600 -740q98 -117 270 -117z" />
    <glyph glyph-name="Ugrave" unicode="&#xd9;" horiz-adv-x="1388" 
d="M694 139q154 0 245 90.5t91 248.5v887h185v-894q0 -224 -143 -361.5t-378 -137.5t-378 137t-143 362v894h184v-887q0 -158 91 -248.5t246 -90.5zM764 1512h-136l-279 323h177z" />
    <glyph glyph-name="Uacute" unicode="&#xda;" horiz-adv-x="1388" 
d="M694 139q154 0 245 90.5t91 248.5v887h185v-894q0 -224 -143 -361.5t-378 -137.5t-378 137t-143 362v894h184v-887q0 -158 91 -248.5t246 -90.5zM624 1512l238 323h177l-279 -323h-136z" />
    <glyph glyph-name="Ucircumflex" unicode="&#xdb;" horiz-adv-x="1388" 
d="M694 139q154 0 245 90.5t91 248.5v887h185v-894q0 -224 -143 -361.5t-378 -137.5t-378 137t-143 362v894h184v-887q0 -158 91 -248.5t246 -90.5zM755 1745l269 -245h-175l-153 140h-5l-162 -140h-171l280 245h117z" />
    <glyph glyph-name="Udieresis" unicode="&#xdc;" horiz-adv-x="1388" 
d="M694 139q154 0 245 90.5t91 248.5v887h185v-894q0 -224 -143 -361.5t-378 -137.5t-378 137t-143 362v894h184v-887q0 -158 91 -248.5t246 -90.5zM867 1474q-45 0 -75.5 30.5t-30.5 74.5q0 43 30.5 73.5t75.5 30.5t76 -30.5t31 -73.5q0 -44 -31 -74.5t-76 -30.5zM519 1474
q-45 0 -76 30.5t-31 74.5q0 43 31 73.5t76 30.5t75.5 -30.5t30.5 -73.5q0 -44 -30.5 -74.5t-75.5 -30.5z" />
    <glyph glyph-name="Yacute" unicode="&#xdd;" horiz-adv-x="1148" 
d="M666 0h-184v578l-456 787h209l335 -602h9l336 602h207l-456 -785v-580zM504 1512l238 323h177l-279 -323h-136z" />
    <glyph glyph-name="Thorn" unicode="&#xde;" horiz-adv-x="1204" 
d="M921 714q0 230 -265 230h-283v-460h283q265 0 265 230zM1110 714q0 -183 -115.5 -287.5t-322.5 -104.5h-299v-322h-184v1365h184v-258h300q207 0 322 -105.5t115 -287.5z" />
    <glyph glyph-name="germandbls" unicode="&#xdf;" horiz-adv-x="1287" 
d="M371 0h-183v1045q0 184 116 288.5t312 105.5q192 1 310 -97t117 -256q0 -75 -27 -137.5t-68 -101t-84 -60.5t-81 -26v-13q71 0 139 -23t124.5 -66.5t90.5 -114.5t34 -158q0 -98 -40.5 -176.5t-108.5 -127t-152.5 -74t-177.5 -25.5q-89 0 -150 19v152q52 -20 142 -20
q56 0 107.5 13.5t96.5 41.5t72 78.5t27 118.5q0 120 -92.5 190t-248.5 70h-77v178h47q92 0 169 69t77 175q0 96 -65 156t-177 60q-249 0 -249 -265v-1019z" />
    <glyph glyph-name="agrave" unicode="&#xe0;" horiz-adv-x="1117" 
d="M462 -17q-154 0 -249 88.5t-95 234.5q0 141 96 225t274 84h275v104q0 98 -58 146.5t-162 48.5q-174 0 -210 -124h-175q12 134 113.5 206.5t277.5 72.5q85 0 154 -19t124.5 -59t86.5 -109.5t31 -163.5v-718h-174v139h-8q-95 -156 -301 -156zM512 136q107 0 179 64t72 159
v118h-260q-102 0 -151 -45t-49 -120q0 -85 60.5 -130.5t148.5 -45.5zM649 1223h-138l-278 356h178z" />
    <glyph glyph-name="aacute" unicode="&#xe1;" horiz-adv-x="1117" 
d="M462 -17q-154 0 -249 88.5t-95 234.5q0 141 96 225t274 84h275v104q0 98 -58 146.5t-162 48.5q-174 0 -210 -124h-175q12 134 113.5 206.5t277.5 72.5q85 0 154 -19t124.5 -59t86.5 -109.5t31 -163.5v-718h-174v139h-8q-95 -156 -301 -156zM512 136q107 0 179 64t72 159
v118h-260q-102 0 -151 -45t-49 -120q0 -85 60.5 -130.5t148.5 -45.5zM471 1223l239 356h177l-278 -356h-138z" />
    <glyph glyph-name="acircumflex" unicode="&#xe2;" horiz-adv-x="1117" 
d="M462 -17q-154 0 -249 88.5t-95 234.5q0 141 96 225t274 84h275v104q0 98 -58 146.5t-162 48.5q-174 0 -210 -124h-175q12 134 113.5 206.5t277.5 72.5q85 0 154 -19t124.5 -59t86.5 -109.5t31 -163.5v-718h-174v139h-8q-95 -156 -301 -156zM512 136q107 0 179 64t72 159
v118h-260q-102 0 -151 -45t-49 -120q0 -85 60.5 -130.5t148.5 -45.5zM250 1223l249 376h120l249 -376h-153l-154 252h-5l-153 -252h-153z" />
    <glyph glyph-name="atilde" unicode="&#xe3;" horiz-adv-x="1117" 
d="M462 -17q-154 0 -249 88.5t-95 234.5q0 141 96 225t274 84h275v104q0 98 -58 146.5t-162 48.5q-174 0 -210 -124h-175q12 134 113.5 206.5t277.5 72.5q85 0 154 -19t124.5 -59t86.5 -109.5t31 -163.5v-718h-174v139h-8q-95 -156 -301 -156zM512 136q107 0 179 64t72 159
v118h-260q-102 0 -151 -45t-49 -120q0 -85 60.5 -130.5t148.5 -45.5zM684 1215q-38 0 -68.5 15t-50.5 37t-37 44t-37.5 37t-44.5 15q-34 0 -51.5 -31t-22.5 -99h-118q0 116 50 183.5t138 67.5q41 0 73.5 -15t53 -37t37.5 -44t36 -37t39 -15q61 0 70 130h118q0 -111 -51 -181
t-134 -70z" />
    <glyph glyph-name="adieresis" unicode="&#xe4;" horiz-adv-x="1117" 
d="M462 -17q-154 0 -249 88.5t-95 234.5q0 141 96 225t274 84h275v104q0 98 -58 146.5t-162 48.5q-174 0 -210 -124h-175q12 134 113.5 206.5t277.5 72.5q85 0 154 -19t124.5 -59t86.5 -109.5t31 -163.5v-718h-174v139h-8q-95 -156 -301 -156zM512 136q107 0 179 64t72 159
v118h-260q-102 0 -151 -45t-49 -120q0 -85 60.5 -130.5t148.5 -45.5zM743 1223q-47 0 -79 30.5t-32 76.5t32 76.5t79 30.5t79 -30.5t32 -76.5t-32 -76.5t-79 -30.5zM375 1223q-47 0 -79 30.5t-32 76.5t32 76.5t79 30.5t79 -30.5t32 -76.5t-32 -76.5t-79 -30.5z" />
    <glyph glyph-name="aring" unicode="&#xe5;" horiz-adv-x="1117" 
d="M462 -17q-154 0 -249 88.5t-95 234.5q0 141 96 225t274 84h275v104q0 98 -58 146.5t-162 48.5q-174 0 -210 -124h-175q12 134 113.5 206.5t277.5 72.5q85 0 154 -19t124.5 -59t86.5 -109.5t31 -163.5v-718h-174v139h-8q-95 -156 -301 -156zM512 136q107 0 179 64t72 159
v118h-260q-102 0 -151 -45t-49 -120q0 -85 60.5 -130.5t148.5 -45.5zM559 1228q-81 0 -136.5 54t-55.5 135q0 80 55.5 134t136.5 54t137 -54t56 -134t-56 -134.5t-137 -54.5zM458 1416q0 -43 29 -72.5t72 -29.5t71.5 29.5t28.5 72.5t-28.5 72.5t-71.5 29.5t-72 -29.5
t-29 -72.5z" />
    <glyph glyph-name="ae" unicode="&#xe6;" horiz-adv-x="1758" 
d="M1219 -17q-148 0 -246.5 58t-134.5 146h-13q-42 -87 -131.5 -145.5t-222.5 -58.5q-159 0 -257 86t-98 234q0 145 98.5 228.5t278.5 83.5h273v104q0 98 -58 145.5t-163 47.5q-181 0 -216 -122h-175q12 133 116.5 206t281.5 73q108 0 193.5 -35t128.5 -104h12
q45 67 131 103t189 36q193 0 310.5 -126t117.5 -338v-126h-683v-79q0 -114 73 -187.5t194 -73.5q88 0 145 35.5t71 87.5h186q-5 -36 -21.5 -73t-49.5 -74.5t-77.5 -66.5t-110 -47t-142.5 -18zM1206 916q-110 0 -182.5 -76t-72.5 -195v-35h503v25q0 130 -66.5 205.5
t-181.5 75.5zM514 134q107 0 179.5 64t72.5 160v119h-258q-103 0 -157 -45.5t-54 -119.5q0 -86 63.5 -132t153.5 -46z" />
    <glyph glyph-name="ccedilla" unicode="&#xe7;" horiz-adv-x="1085" 
d="M557 -487q-71 0 -130 16v107q48 -14 116 -14q54 0 85.5 20.5t31.5 56.5t-33 51.5t-114 15.5h-52v81l52 138q-180 17 -283 138.5t-103 319.5v171q0 207 118.5 331.5t320.5 124.5q95 0 173 -28t126.5 -74.5t75.5 -103.5t29 -118h-177q-5 27 -17 53t-36.5 53.5t-68.5 44.5
t-102 17q-126 0 -194 -83t-68 -224v-165q0 -137 70 -216t192 -79q196 0 232 147h176q-4 -117 -91.5 -204t-248.5 -104l-46 -121q100 0 155.5 -42.5t55.5 -119.5q0 -90 -64.5 -140t-180.5 -50z" />
    <glyph glyph-name="egrave" unicode="&#xe8;" horiz-adv-x="1121" 
d="M577 -17q-211 0 -330.5 124.5t-119.5 339.5v158q0 213 122 339t314 126q193 0 315 -127t122 -338v-126h-693v-53q0 -127 71 -207.5t198 -80.5q88 0 149 36t75 88h186q-6 -45 -34 -92t-76 -90t-126 -70t-173 -27zM307 610h513v17q0 130 -70 209t-186 79t-186.5 -79
t-70.5 -209v-17zM650 1223h-138l-278 356h178z" />
    <glyph glyph-name="eacute" unicode="&#xe9;" horiz-adv-x="1121" 
d="M577 -17q-211 0 -330.5 124.5t-119.5 339.5v158q0 213 122 339t314 126q193 0 315 -127t122 -338v-126h-693v-53q0 -127 71 -207.5t198 -80.5q88 0 149 36t75 88h186q-6 -45 -34 -92t-76 -90t-126 -70t-173 -27zM307 610h513v17q0 130 -70 209t-186 79t-186.5 -79
t-70.5 -209v-17zM472 1223l239 356h177l-278 -356h-138z" />
    <glyph glyph-name="ecircumflex" unicode="&#xea;" horiz-adv-x="1121" 
d="M577 -17q-211 0 -330.5 124.5t-119.5 339.5v158q0 213 122 339t314 126q193 0 315 -127t122 -338v-126h-693v-53q0 -127 71 -207.5t198 -80.5q88 0 149 36t75 88h186q-6 -45 -34 -92t-76 -90t-126 -70t-173 -27zM307 610h513v17q0 130 -70 209t-186 79t-186.5 -79
t-70.5 -209v-17zM251 1223l249 376h120l249 -376h-153l-154 252h-5l-153 -252h-153z" />
    <glyph glyph-name="edieresis" unicode="&#xeb;" horiz-adv-x="1121" 
d="M577 -17q-211 0 -330.5 124.5t-119.5 339.5v158q0 213 122 339t314 126q193 0 315 -127t122 -338v-126h-693v-53q0 -127 71 -207.5t198 -80.5q88 0 149 36t75 88h186q-6 -45 -34 -92t-76 -90t-126 -70t-173 -27zM307 610h513v17q0 130 -70 209t-186 79t-186.5 -79
t-70.5 -209v-17zM744 1223q-47 0 -79 30.5t-32 76.5t32 76.5t79 30.5t79 -30.5t32 -76.5t-32 -76.5t-79 -30.5zM376 1223q-47 0 -79 30.5t-32 76.5t32 76.5t79 30.5t79 -30.5t32 -76.5t-32 -76.5t-79 -30.5z" />
    <glyph glyph-name="igrave" unicode="&#xec;" horiz-adv-x="587" 
d="M203 0v1052h181v-1052h-181zM383 1223h-138l-278 356h178z" />
    <glyph glyph-name="iacute" unicode="&#xed;" horiz-adv-x="587" 
d="M203 0v1052h181v-1052h-181zM205 1223l239 356h177l-278 -356h-138z" />
    <glyph glyph-name="icircumflex" unicode="&#xee;" horiz-adv-x="587" 
d="M203 0v1052h181v-1052h-181zM-16 1223l249 376h120l249 -376h-153l-154 252h-5l-153 -252h-153z" />
    <glyph glyph-name="idieresis" unicode="&#xef;" horiz-adv-x="587" 
d="M203 0v1052h181v-1052h-181zM477 1223q-47 0 -79 30.5t-32 76.5t32 76.5t79 30.5t79 -30.5t32 -76.5t-32 -76.5t-79 -30.5zM109 1223q-47 0 -79 30.5t-32 76.5t32 76.5t79 30.5t79 -30.5t32 -76.5t-32 -76.5t-79 -30.5z" />
    <glyph glyph-name="eth" unicode="&#xf0;" horiz-adv-x="1162" 
d="M583 -17q-219 0 -337.5 132t-118.5 354v64q0 215 115 347.5t312 132.5q180 0 268 -127h10q-3 10 -10.5 32.5l-10.5 31.5q-57 154 -137 256l-252 -90l-43 103l220 76q-110 121 -177 181l-49 43h226q83 -68 161 -164l276 97l38 -97l-241 -88q203 -304 203 -688v-107
q0 -222 -116 -355.5t-337 -133.5zM582 858q-132 0 -203.5 -84t-71.5 -244v-57q0 -160 71.5 -246t203.5 -86q131 0 202.5 88t71.5 248v51q0 160 -71 245t-203 85z" />
    <glyph glyph-name="ntilde" unicode="&#xf1;" horiz-adv-x="1216" 
d="M178 0v1052h179v-191h10q11 37 30.5 68.5t55 65.5t95.5 54t138 20q164 0 260.5 -89.5t96.5 -261.5v-718h-181v660q0 122 -59.5 185.5t-168.5 63.5q-133 0 -204 -90t-71 -233v-586h-181zM733 1215q-38 0 -68.5 15t-50.5 37t-37 44t-37.5 37t-44.5 15q-34 0 -51.5 -31
t-22.5 -99h-118q0 116 50 183.5t138 67.5q41 0 73.5 -15t53 -37t37.5 -44t36 -37t39 -15q61 0 70 130h118q0 -111 -51 -181t-134 -70z" />
    <glyph glyph-name="ograve" unicode="&#xf2;" horiz-adv-x="1162" 
d="M582 1070q200 0 327 -125t127 -341v-154q0 -218 -126.5 -342.5t-327.5 -124.5q-204 0 -329.5 123.5t-125.5 343.5v154q0 210 127.5 338t327.5 128zM583 914q-125 0 -200 -90.5t-75 -234.5v-126q0 -148 72.5 -236.5t202.5 -88.5q128 0 199.5 88.5t71.5 236.5v126
q0 145 -73 235t-198 90zM671 1223h-138l-278 356h178z" />
    <glyph glyph-name="oacute" unicode="&#xf3;" horiz-adv-x="1162" 
d="M582 1070q200 0 327 -125t127 -341v-154q0 -218 -126.5 -342.5t-327.5 -124.5q-204 0 -329.5 123.5t-125.5 343.5v154q0 210 127.5 338t327.5 128zM583 914q-125 0 -200 -90.5t-75 -234.5v-126q0 -148 72.5 -236.5t202.5 -88.5q128 0 199.5 88.5t71.5 236.5v126
q0 145 -73 235t-198 90zM493 1223l239 356h177l-278 -356h-138z" />
    <glyph glyph-name="ocircumflex" unicode="&#xf4;" horiz-adv-x="1162" 
d="M582 1070q200 0 327 -125t127 -341v-154q0 -218 -126.5 -342.5t-327.5 -124.5q-204 0 -329.5 123.5t-125.5 343.5v154q0 210 127.5 338t327.5 128zM583 914q-125 0 -200 -90.5t-75 -234.5v-126q0 -148 72.5 -236.5t202.5 -88.5q128 0 199.5 88.5t71.5 236.5v126
q0 145 -73 235t-198 90zM272 1223l249 376h120l249 -376h-153l-154 252h-5l-153 -252h-153z" />
    <glyph glyph-name="otilde" unicode="&#xf5;" horiz-adv-x="1162" 
d="M582 1070q200 0 327 -125t127 -341v-154q0 -218 -126.5 -342.5t-327.5 -124.5q-204 0 -329.5 123.5t-125.5 343.5v154q0 210 127.5 338t327.5 128zM583 914q-125 0 -200 -90.5t-75 -234.5v-126q0 -148 72.5 -236.5t202.5 -88.5q128 0 199.5 88.5t71.5 236.5v126
q0 145 -73 235t-198 90zM706 1215q-38 0 -68.5 15t-50.5 37t-37 44t-37.5 37t-44.5 15q-34 0 -51.5 -31t-22.5 -99h-118q0 116 50 183.5t138 67.5q41 0 73.5 -15t53 -37t37.5 -44t36 -37t39 -15q61 0 70 130h118q0 -111 -51 -181t-134 -70z" />
    <glyph glyph-name="odieresis" unicode="&#xf6;" horiz-adv-x="1162" 
d="M582 1070q200 0 327 -125t127 -341v-154q0 -218 -126.5 -342.5t-327.5 -124.5q-204 0 -329.5 123.5t-125.5 343.5v154q0 210 127.5 338t327.5 128zM583 914q-125 0 -200 -90.5t-75 -234.5v-126q0 -148 72.5 -236.5t202.5 -88.5q128 0 199.5 88.5t71.5 236.5v126
q0 145 -73 235t-198 90zM765 1223q-47 0 -79 30.5t-32 76.5t32 76.5t79 30.5t79 -30.5t32 -76.5t-32 -76.5t-79 -30.5zM397 1223q-47 0 -79 30.5t-32 76.5t32 76.5t79 30.5t79 -30.5t32 -76.5t-32 -76.5t-79 -30.5z" />
    <glyph glyph-name="divide" unicode="&#xf7;" horiz-adv-x="1149" 
d="M1051 478h-952v146h952v-146zM441 944q0 58 38.5 96.5t93.5 38.5q58 0 97 -38.5t39 -96.5q0 -56 -39 -93.5t-97 -37.5q-55 0 -93.5 37.5t-38.5 93.5zM441 167q0 58 38.5 96.5t93.5 38.5q58 0 97 -38.5t39 -96.5q0 -57 -39 -94.5t-97 -37.5q-55 0 -93.5 38t-38.5 94z" />
    <glyph glyph-name="oslash" unicode="&#xf8;" horiz-adv-x="1162" 
d="M408 190q69 -55 174 -55q129 0 202.5 90t73.5 239v153q0 84 -33 148zM303 437q0 -90 32 -151l418 577q-68 57 -171 57q-126 0 -202.5 -92.5t-76.5 -237.5v-153zM582 -17q-151 0 -266 78l-101 -138l-97 72l109 149q-100 124 -100 306v154q0 210 127.5 338t327.5 128
q145 0 263 -80l100 138l96 -74l-107 -147q102 -124 102 -303v-154q0 -218 -126.5 -342.5t-327.5 -124.5z" />
    <glyph glyph-name="ugrave" unicode="&#xf9;" horiz-adv-x="1210" 
d="M1032 1052v-1052h-179v175h-10q-27 -76 -107 -134t-206 -58q-168 0 -264 82t-96 258v729h181v-680q0 -122 62.5 -175.5t166.5 -53.5q114 0 192.5 72.5t78.5 174.5v662h181zM695 1223h-138l-278 356h178z" />
    <glyph glyph-name="uacute" unicode="&#xfa;" horiz-adv-x="1210" 
d="M1032 1052v-1052h-179v175h-10q-27 -76 -107 -134t-206 -58q-168 0 -264 82t-96 258v729h181v-680q0 -122 62.5 -175.5t166.5 -53.5q114 0 192.5 72.5t78.5 174.5v662h181zM517 1223l239 356h177l-278 -356h-138z" />
    <glyph glyph-name="ucircumflex" unicode="&#xfb;" horiz-adv-x="1210" 
d="M1032 1052v-1052h-179v175h-10q-27 -76 -107 -134t-206 -58q-168 0 -264 82t-96 258v729h181v-680q0 -122 62.5 -175.5t166.5 -53.5q114 0 192.5 72.5t78.5 174.5v662h181zM296 1223l249 376h120l249 -376h-153l-154 252h-5l-153 -252h-153z" />
    <glyph glyph-name="udieresis" unicode="&#xfc;" horiz-adv-x="1210" 
d="M1032 1052v-1052h-179v175h-10q-27 -76 -107 -134t-206 -58q-168 0 -264 82t-96 258v729h181v-680q0 -122 62.5 -175.5t166.5 -53.5q114 0 192.5 72.5t78.5 174.5v662h181zM789 1223q-47 0 -79 30.5t-32 76.5t32 76.5t79 30.5t79 -30.5t32 -76.5t-32 -76.5t-79 -30.5z
M421 1223q-47 0 -79 30.5t-32 76.5t32 76.5t79 30.5t79 -30.5t32 -76.5t-32 -76.5t-79 -30.5z" />
    <glyph glyph-name="yacute" unicode="&#xfd;" horiz-adv-x="1094" 
d="M1019 1052q-7 -27 -100.5 -290l-182.5 -513l-89 -250l-22 -57q-63 -168 -149 -239.5t-224 -71.5q-65 0 -104 9v148q32 -6 77 -6q88 0 137.5 38.5t73.5 127.5l11 39l-386 1065h201l278 -873h8l279 873h192zM459 1223l239 356h177l-278 -356h-138z" />
    <glyph glyph-name="thorn" unicode="&#xfe;" horiz-adv-x="1208" 
d="M671 -16q-109 0 -187 44.5t-115 127.5h-9v-505h-181v1786h181v-551h9q32 86 114 134t194 48q185 0 293.5 -122t108.5 -330v-179q0 -210 -110 -331.5t-298 -121.5zM634 141q125 0 194 86t69 243v110q0 158 -70 244.5t-198 86.5q-125 0 -197 -81.5t-72 -223.5v-181
q0 -126 76 -205t198 -79z" />
    <glyph glyph-name="ydieresis" unicode="&#xff;" horiz-adv-x="1094" 
d="M1019 1052q-7 -27 -100.5 -290l-182.5 -513l-89 -250l-22 -57q-63 -168 -149 -239.5t-224 -71.5q-65 0 -104 9v148q32 -6 77 -6q88 0 137.5 38.5t73.5 127.5l11 39l-386 1065h201l278 -873h8l279 873h192zM731 1223q-47 0 -79 30.5t-32 76.5t32 76.5t79 30.5t79 -30.5
t32 -76.5t-32 -76.5t-79 -30.5zM363 1223q-47 0 -79 30.5t-32 76.5t32 76.5t79 30.5t79 -30.5t32 -76.5t-32 -76.5t-79 -30.5z" />
    <glyph glyph-name="Amacron" unicode="&#x100;" horiz-adv-x="1259" 
d="M242 0h-191l483 1365h191l482 -1365h-194l-134 402h-503zM631 1152h-7l-200 -601h408zM925 1511h-590v112h590v-112z" />
    <glyph glyph-name="amacron" unicode="&#x101;" horiz-adv-x="1117" 
d="M462 -17q-154 0 -249 88.5t-95 234.5q0 141 96 225t274 84h275v104q0 98 -58 146.5t-162 48.5q-174 0 -210 -124h-175q12 134 113.5 206.5t277.5 72.5q85 0 154 -19t124.5 -59t86.5 -109.5t31 -163.5v-718h-174v139h-8q-95 -156 -301 -156zM512 136q107 0 179 64t72 159
v118h-260q-102 0 -151 -45t-49 -120q0 -85 60.5 -130.5t148.5 -45.5zM857 1251h-597v119h597v-119z" />
    <glyph glyph-name="Abreve" unicode="&#x102;" horiz-adv-x="1259" 
d="M242 0h-191l483 1365h191l482 -1365h-194l-134 402h-503zM631 1152h-7l-200 -601h408zM306 1750h134q0 -67 50 -109.5t140 -42.5t140 42.5t50 109.5h133q0 -111 -91.5 -189t-231.5 -78t-232 78t-92 189z" />
    <glyph glyph-name="abreve" unicode="&#x103;" horiz-adv-x="1117" 
d="M462 -17q-154 0 -249 88.5t-95 234.5q0 141 96 225t274 84h275v104q0 98 -58 146.5t-162 48.5q-174 0 -210 -124h-175q12 134 113.5 206.5t277.5 72.5q85 0 154 -19t124.5 -59t86.5 -109.5t31 -163.5v-718h-174v139h-8q-95 -156 -301 -156zM512 136q107 0 179 64t72 159
v118h-260q-102 0 -151 -45t-49 -120q0 -85 60.5 -130.5t148.5 -45.5zM267 1495h124q0 -73 45.5 -118.5t122.5 -45.5t122.5 45.5t45.5 118.5h123q-1 -121 -83 -199t-208 -78q-127 0 -209.5 78t-82.5 199z" />
    <glyph glyph-name="Aogonek" unicode="&#x104;" horiz-adv-x="1259" 
d="M1092 -386q-107 0 -171 52.5t-64 142.5q0 143 153 229v2h-11l-120 362h-503l-134 -402h-191l483 1365h191l477 -1348q-88 -28 -136.5 -74.5t-48.5 -100.5q0 -45 30.5 -71.5t85.5 -26.5q40 0 80 8v-119q-46 -19 -121 -19zM631 1152h-7l-200 -601h408z" />
    <glyph glyph-name="aogonek" unicode="&#x105;" horiz-adv-x="1117" 
d="M959 -365q-57 -21 -126 -21q-91 0 -154.5 48.5t-63.5 143.5q0 42 13 77t38 63.5t49 48.5t59 43v101h-9q-95 -156 -303 -156q-153 0 -248.5 89t-95.5 233q0 142 96.5 226t272.5 84h276v104q0 97 -58 145t-164 48q-172 0 -208 -122h-175q11 134 114 206.5t278 72.5
q84 0 153 -19t124.5 -59t86.5 -109t31 -163v-711q-40 -14 -76.5 -34t-69.5 -57t-33 -77q0 -44 31 -67.5t80 -23.5q44 0 82 8v-122zM512 134q106 0 178.5 65t72.5 160v118h-259q-102 0 -151.5 -45t-49.5 -120q0 -86 60.5 -132t148.5 -46z" />
    <glyph glyph-name="Cacute" unicode="&#x106;" horiz-adv-x="1305" 
d="M320 774v-192q0 -212 93.5 -328t264.5 -116q131 0 217.5 67t100.5 177h182v-6q-15 -176 -156 -290t-345 -114q-259 0 -400.5 159.5t-141.5 449.5v196q0 289 143.5 452.5t398.5 163.5q206 0 346.5 -119t154.5 -305v-7h-182q-14 117 -101.5 191t-216.5 74
q-169 0 -263.5 -119.5t-94.5 -333.5zM602 1512l238 323h177l-279 -323h-136z" />
    <glyph glyph-name="cacute" unicode="&#x107;" horiz-adv-x="1085" 
d="M127 443v171q0 208 118.5 332t320.5 124q95 0 172.5 -28t126.5 -74t76 -103t29 -119h-177q-5 27 -17.5 52.5t-36.5 52t-68 42.5t-102 16q-127 0 -194 -80.5t-67 -221.5v-165q0 -138 70 -218.5t191 -80.5q197 0 232 151h176q-2 -48 -18 -92.5t-49.5 -84.5t-80.5 -69.5
t-114.5 -47t-148.5 -17.5q-203 0 -321 124t-118 336zM455 1223l239 356h177l-278 -356h-138z" />
    <glyph glyph-name="Ccircumflex" unicode="&#x108;" horiz-adv-x="1305" 
d="M320 774v-192q0 -212 93.5 -328t264.5 -116q131 0 217.5 67t100.5 177h182v-6q-15 -176 -156 -290t-345 -114q-259 0 -400.5 159.5t-141.5 449.5v196q0 289 143.5 452.5t398.5 163.5q206 0 346.5 -119t154.5 -305v-7h-182q-14 117 -101.5 191t-216.5 74
q-169 0 -263.5 -119.5t-94.5 -333.5zM733 1745l269 -245h-175l-153 140h-5l-162 -140h-171l280 245h117z" />
    <glyph glyph-name="ccircumflex" unicode="&#x109;" horiz-adv-x="1085" 
d="M127 443v171q0 208 118.5 332t320.5 124q95 0 172.5 -28t126.5 -74t76 -103t29 -119h-177q-5 27 -17.5 52.5t-36.5 52t-68 42.5t-102 16q-127 0 -194 -80.5t-67 -221.5v-165q0 -138 70 -218.5t191 -80.5q197 0 232 151h176q-2 -48 -18 -92.5t-49.5 -84.5t-80.5 -69.5
t-114.5 -47t-148.5 -17.5q-203 0 -321 124t-118 336zM234 1223l249 376h120l249 -376h-153l-154 252h-5l-153 -252h-153z" />
    <glyph glyph-name="Cdotaccent" unicode="&#x10a;" horiz-adv-x="1305" 
d="M320 774v-192q0 -212 93.5 -328t264.5 -116q131 0 217.5 67t100.5 177h182v-6q-15 -176 -156 -290t-345 -114q-259 0 -400.5 159.5t-141.5 449.5v196q0 289 143.5 452.5t398.5 163.5q206 0 346.5 -119t154.5 -305v-7h-182q-14 117 -101.5 191t-216.5 74
q-169 0 -263.5 -119.5t-94.5 -333.5zM564 1597q0 45 31.5 77t76.5 32t76.5 -32t31.5 -77t-31.5 -77t-76.5 -32t-76.5 32t-31.5 77z" />
    <glyph glyph-name="cdotaccent" unicode="&#x10b;" horiz-adv-x="1085" 
d="M127 443v171q0 208 118.5 332t320.5 124q95 0 172.5 -28t126.5 -74t76 -103t29 -119h-177q-5 27 -17.5 52.5t-36.5 52t-68 42.5t-102 16q-127 0 -194 -80.5t-67 -221.5v-165q0 -138 70 -218.5t191 -80.5q197 0 232 151h176q-2 -48 -18 -92.5t-49.5 -84.5t-80.5 -69.5
t-114.5 -47t-148.5 -17.5q-203 0 -321 124t-118 336zM430 1350q0 46 32.5 77.5t78.5 31.5t79 -31.5t33 -77.5q0 -45 -33 -76.5t-79 -31.5t-78.5 31.5t-32.5 76.5z" />
    <glyph glyph-name="Ccaron" unicode="&#x10c;" horiz-adv-x="1305" 
d="M320 774v-192q0 -212 93.5 -328t264.5 -116q131 0 217.5 67t100.5 177h182v-6q-15 -176 -156 -290t-345 -114q-259 0 -400.5 159.5t-141.5 449.5v196q0 289 143.5 452.5t398.5 163.5q206 0 346.5 -119t154.5 -305v-7h-182q-14 117 -101.5 191t-216.5 74
q-169 0 -263.5 -119.5t-94.5 -333.5zM336 1746h175l153 -140h7l160 140h171l-278 -245h-118z" />
    <glyph glyph-name="ccaron" unicode="&#x10d;" horiz-adv-x="1085" 
d="M127 443v171q0 208 118.5 332t320.5 124q95 0 172.5 -28t126.5 -74t76 -103t29 -119h-177q-5 27 -17.5 52.5t-36.5 52t-68 42.5t-102 16q-127 0 -194 -80.5t-67 -221.5v-165q0 -138 70 -218.5t191 -80.5q197 0 232 151h176q-2 -48 -18 -92.5t-49.5 -84.5t-80.5 -69.5
t-114.5 -47t-148.5 -17.5q-203 0 -321 124t-118 336zM234 1595h153l154 -261h5l146 261h152l-239 -376h-121z" />
    <glyph glyph-name="Dcaron" unicode="&#x10e;" horiz-adv-x="1348" 
d="M189 1365h444q297 0 449 -173.5t152 -508.5t-152 -509t-449 -174h-444v1365zM373 1201v-1036h247q213 0 318 128.5t105 388.5q0 519 -423 519h-247zM287 1746h175l153 -140h7l160 140h171l-278 -245h-118z" />
    <glyph glyph-name="dcaron" unicode="&#x10f;" horiz-adv-x="1386" 
d="M1224 1437h162l-44 -488h-118v488zM535 1068q111 0 192 -46t113 -126h9v541h181v-1437h-174v168h-9q-23 -80 -112 -131.5t-204 -51.5q-184 0 -294 119.5t-110 320.5v202q0 201 112 321t296 120zM572 911q-123 0 -193 -85t-70 -235v-127q0 -152 71 -237t197 -85
q124 0 198 82.5t74 222.5v180q0 125 -78 204.5t-199 79.5z" />
    <glyph glyph-name="Dcroat" unicode="&#x110;" horiz-adv-x="1427" 
d="M711 0h-444v614h-161v167h161v584h444q298 0 449.5 -173.5t151.5 -508.5t-152 -509t-449 -174zM452 166h246q213 0 318 128t105 389q0 262 -105 390.5t-318 128.5h-246v-421h301v-167h-301v-448z" />
    <glyph glyph-name="dcroat" unicode="&#x111;" horiz-adv-x="1211" 
d="M572 910q-122 0 -192 -84.5t-70 -235.5v-127q0 -153 71.5 -237.5t196.5 -84.5q124 0 198 82.5t74 222.5v180q0 124 -78 204t-200 80zM848 168q-21 -74 -105 -128.5t-211 -54.5q-183 0 -293.5 119t-110.5 321v202q0 199 111 320t297 121q121 0 199 -49t106 -123h9v278
h-260v133h262v130h177v-130h132v-133h-130v-1174h-174v168h-9z" />
    <glyph glyph-name="Emacron" unicode="&#x112;" horiz-adv-x="1154" 
d="M1014 165v-165h-825v1365h825v-165h-642v-424h606v-160h-606v-451h642zM892 1511h-590v112h590v-112z" />
    <glyph glyph-name="emacron" unicode="&#x113;" horiz-adv-x="1121" 
d="M577 -17q-211 0 -330.5 124.5t-119.5 339.5v158q0 213 122 339t314 126q193 0 315 -127t122 -338v-126h-693v-53q0 -127 71 -207.5t198 -80.5q88 0 149 36t75 88h186q-6 -45 -34 -92t-76 -90t-126 -70t-173 -27zM307 610h513v17q0 130 -70 209t-186 79t-186.5 -79
t-70.5 -209v-17zM858 1251h-597v119h597v-119z" />
    <glyph glyph-name="Ebreve" unicode="&#x114;" horiz-adv-x="1154" 
d="M1014 165v-165h-825v1365h825v-165h-642v-424h606v-160h-606v-451h642zM273 1750h134q0 -67 50 -109.5t140 -42.5t140 42.5t50 109.5h133q0 -111 -91.5 -189t-231.5 -78t-232 78t-92 189z" />
    <glyph glyph-name="ebreve" unicode="&#x115;" horiz-adv-x="1121" 
d="M577 -17q-211 0 -330.5 124.5t-119.5 339.5v158q0 213 122 339t314 126q193 0 315 -127t122 -338v-126h-693v-53q0 -127 71 -207.5t198 -80.5q88 0 149 36t75 88h186q-6 -45 -34 -92t-76 -90t-126 -70t-173 -27zM307 610h513v17q0 130 -70 209t-186 79t-186.5 -79
t-70.5 -209v-17zM268 1495h124q0 -73 45.5 -118.5t122.5 -45.5t122.5 45.5t45.5 118.5h123q-1 -121 -83 -199t-208 -78q-127 0 -209.5 78t-82.5 199z" />
    <glyph glyph-name="Edotaccent" unicode="&#x116;" horiz-adv-x="1154" 
d="M1014 165v-165h-825v1365h825v-165h-642v-424h606v-160h-606v-451h642zM489 1597q0 45 31.5 77t76.5 32t76.5 -32t31.5 -77t-31.5 -77t-76.5 -32t-76.5 32t-31.5 77z" />
    <glyph glyph-name="edotaccent" unicode="&#x117;" horiz-adv-x="1121" 
d="M577 -17q-211 0 -330.5 124.5t-119.5 339.5v158q0 213 122 339t314 126q193 0 315 -127t122 -338v-126h-693v-53q0 -127 71 -207.5t198 -80.5q88 0 149 36t75 88h186q-6 -45 -34 -92t-76 -90t-126 -70t-173 -27zM307 610h513v17q0 130 -70 209t-186 79t-186.5 -79
t-70.5 -209v-17zM447 1350q0 46 32.5 77.5t78.5 31.5t79 -31.5t33 -77.5q0 -45 -33 -76.5t-79 -31.5t-78.5 31.5t-32.5 76.5z" />
    <glyph glyph-name="Eogonek" unicode="&#x118;" horiz-adv-x="1154" 
d="M1015 -367q-51 -19 -118 -19q-98 0 -162 48.5t-64 145.5q0 60 29 110t73 80v2h-584v1365h825v-165h-642v-424h606v-160h-606v-451h642v-143q-47 -11 -88 -31.5t-73.5 -59.5t-33.5 -87q0 -49 31.5 -75t87.5 -26q43 0 77 9v-119z" />
    <glyph glyph-name="eogonek" unicode="&#x119;" horiz-adv-x="1121" 
d="M925 -242v-126q-42 -18 -119 -18q-92 0 -157 51t-65 142q0 119 104 203l-4 9q-53 -35 -137 -35q-184 0 -302 126t-118 336v158q0 214 121.5 340t315.5 126q193 0 314.5 -127t121.5 -339v-125h-693v-52q0 -127 71 -207.5t200 -80.5q87 0 147 35.5t75 87.5h186
q-13 -44 -40.5 -88t-45.5 -64.5l-60 -65.5q-36 -38 -55 -61t-35.5 -58t-16.5 -70q0 -50 34 -78t83 -28q39 0 75 9zM307 610h513v18q0 130 -70.5 209.5t-185.5 79.5q-116 0 -186.5 -79.5t-70.5 -209.5v-18z" />
    <glyph glyph-name="Ecaron" unicode="&#x11a;" horiz-adv-x="1154" 
d="M1014 165v-165h-825v1365h825v-165h-642v-424h606v-160h-606v-451h642zM261 1746h175l153 -140h7l160 140h171l-278 -245h-118z" />
    <glyph glyph-name="ecaron" unicode="&#x11b;" horiz-adv-x="1121" 
d="M577 -17q-211 0 -330.5 124.5t-119.5 339.5v158q0 213 122 339t314 126q193 0 315 -127t122 -338v-126h-693v-53q0 -127 71 -207.5t198 -80.5q88 0 149 36t75 88h186q-6 -45 -34 -92t-76 -90t-126 -70t-173 -27zM307 610h513v17q0 130 -70 209t-186 79t-186.5 -79
t-70.5 -209v-17zM251 1595h153l154 -261h5l146 261h152l-239 -376h-121z" />
    <glyph glyph-name="Gcircumflex" unicode="&#x11c;" horiz-adv-x="1330" 
d="M1186 991h-184q-27 110 -112 173t-209 63q-170 0 -266 -119t-96 -330v-184q0 -216 96.5 -336t271.5 -120q159 0 244 80.5t85 211.5v126h-345v159h524v-281q0 -204 -134.5 -333t-372.5 -129q-264 0 -408.5 163.5t-144.5 457.5v186q0 283 147 448.5t403 165.5
q204 0 339 -111t162 -291zM744 1745l269 -245h-175l-153 140h-5l-162 -140h-171l280 245h117z" />
    <glyph glyph-name="gcircumflex" unicode="&#x11d;" horiz-adv-x="1175" 
d="M558 -232q136 0 206 69t70 195v152h-10q-32 -72 -111 -118.5t-184 -46.5q-180 0 -297.5 120t-117.5 323v161q0 204 117.5 324.5t296.5 120.5q111 0 193.5 -52t111.5 -122h9v158h173v-1021q0 -209 -125.5 -312.5t-337.5 -103.5q-191 0 -297.5 82.5t-117.5 206.5h184
q11 -58 74 -97t163 -39zM573 911q-127 0 -202 -88t-75 -233v-98q0 -142 78 -230.5t201 -88.5q120 0 189.5 84.5t69.5 203.5v157q0 121 -71 207t-190 86zM279 1223l249 376h120l249 -376h-153l-154 252h-5l-153 -252h-153z" />
    <glyph glyph-name="Gbreve" unicode="&#x11e;" horiz-adv-x="1330" 
d="M1186 991h-184q-27 110 -112 173t-209 63q-170 0 -266 -119t-96 -330v-184q0 -216 96.5 -336t271.5 -120q159 0 244 80.5t85 211.5v126h-345v159h524v-281q0 -204 -134.5 -333t-372.5 -129q-264 0 -408.5 163.5t-144.5 457.5v186q0 283 147 448.5t403 165.5
q204 0 339 -111t162 -291zM359 1750h134q0 -67 50 -109.5t140 -42.5t140 42.5t50 109.5h133q0 -111 -91.5 -189t-231.5 -78t-232 78t-92 189z" />
    <glyph glyph-name="gbreve" unicode="&#x11f;" horiz-adv-x="1175" 
d="M558 -232q136 0 206 69t70 195v152h-10q-32 -72 -111 -118.5t-184 -46.5q-180 0 -297.5 120t-117.5 323v161q0 204 117.5 324.5t296.5 120.5q111 0 193.5 -52t111.5 -122h9v158h173v-1021q0 -209 -125.5 -312.5t-337.5 -103.5q-191 0 -297.5 82.5t-117.5 206.5h184
q11 -58 74 -97t163 -39zM573 911q-127 0 -202 -88t-75 -233v-98q0 -142 78 -230.5t201 -88.5q120 0 189.5 84.5t69.5 203.5v157q0 121 -71 207t-190 86zM296 1495h124q0 -73 45.5 -118.5t122.5 -45.5t122.5 45.5t45.5 118.5h123q-1 -121 -83 -199t-208 -78q-127 0 -209.5 78
t-82.5 199z" />
    <glyph glyph-name="Gdotaccent" unicode="&#x120;" horiz-adv-x="1330" 
d="M1186 991h-184q-27 110 -112 173t-209 63q-170 0 -266 -119t-96 -330v-184q0 -216 96.5 -336t271.5 -120q159 0 244 80.5t85 211.5v126h-345v159h524v-281q0 -204 -134.5 -333t-372.5 -129q-264 0 -408.5 163.5t-144.5 457.5v186q0 283 147 448.5t403 165.5
q204 0 339 -111t162 -291zM575 1597q0 45 31.5 77t76.5 32t76.5 -32t31.5 -77t-31.5 -77t-76.5 -32t-76.5 32t-31.5 77z" />
    <glyph glyph-name="gdotaccent" unicode="&#x121;" horiz-adv-x="1175" 
d="M558 -232q136 0 206 69t70 195v152h-10q-32 -72 -111 -118.5t-184 -46.5q-180 0 -297.5 120t-117.5 323v161q0 204 117.5 324.5t296.5 120.5q111 0 193.5 -52t111.5 -122h9v158h173v-1021q0 -209 -125.5 -312.5t-337.5 -103.5q-191 0 -297.5 82.5t-117.5 206.5h184
q11 -58 74 -97t163 -39zM573 911q-127 0 -202 -88t-75 -233v-98q0 -142 78 -230.5t201 -88.5q120 0 189.5 84.5t69.5 203.5v157q0 121 -71 207t-190 86zM475 1350q0 46 32.5 77.5t78.5 31.5t79 -31.5t33 -77.5q0 -45 -33 -76.5t-79 -31.5t-78.5 31.5t-32.5 76.5z" />
    <glyph glyph-name="Gcommaaccent" unicode="&#x122;" horiz-adv-x="1330" 
d="M1186 991h-184q-27 110 -112 173t-209 63q-170 0 -266 -119t-96 -330v-184q0 -216 96.5 -336t271.5 -120q159 0 244 80.5t85 211.5v126h-345v159h524v-281q0 -204 -134.5 -333t-372.5 -129q-264 0 -408.5 163.5t-144.5 457.5v186q0 283 147 448.5t403 165.5
q204 0 339 -111t162 -291zM670 -467h-132l81 313h158z" />
    <glyph glyph-name="gcommaaccent" unicode="&#x123;" horiz-adv-x="1175" 
d="M572 1588h140l-85 -335h-169zM558 -232q136 0 206 69t70 195v152h-10q-32 -72 -111 -118.5t-184 -46.5q-180 0 -297.5 120t-117.5 323v161q0 204 117.5 324.5t296.5 120.5q111 0 193.5 -52t111.5 -122h9v158h173v-1021q0 -209 -125.5 -312.5t-337.5 -103.5
q-191 0 -297.5 82.5t-117.5 206.5h184q11 -58 74 -97t163 -39zM573 911q-127 0 -202 -88t-75 -233v-98q0 -142 78 -230.5t201 -88.5q120 0 189.5 84.5t69.5 203.5v157q0 121 -71 207t-190 86z" />
    <glyph glyph-name="Hcircumflex" unicode="&#x124;" horiz-adv-x="1422" 
d="M1233 0h-184v623h-676v-623h-184v1365h184v-577h676v577h184v-1365zM772 1745l269 -245h-175l-153 140h-5l-162 -140h-171l280 245h117z" />
    <glyph glyph-name="hcircumflex" unicode="&#x125;" horiz-adv-x="1222" 
d="M181 0v1437h181v-576h9q7 25 20.5 50t40.5 54.5t61.5 51.5t87.5 37t116 15q158 0 255.5 -91t97.5 -262v-716h-181v658q0 122 -62 186.5t-171 64.5q-131 0 -202.5 -90.5t-71.5 -232.5v-586h-181zM330 1817l269 -245h-175l-153 140h-5l-162 -140h-171l280 245h117z" />
    <glyph glyph-name="Hbar" unicode="&#x126;" horiz-adv-x="1422" 
d="M373 761h676v239h-676v-239zM373 596v-596h-184v1000h-109v138h109v227h184v-227h676v227h184v-227h110v-138h-110v-1000h-184v596h-676z" />
    <glyph glyph-name="hbar" unicode="&#x127;" horiz-adv-x="1222" 
d="M362 586v-586h-181v1174h-121v133h123v130h177v-130h270v-133h-268v-313h9q7 25 21.5 51t41.5 55t61.5 51t87 36.5t114.5 14.5q159 0 256 -91t97 -262v-716h-181v658q0 120 -61.5 185.5t-171.5 65.5q-131 0 -202.5 -91t-71.5 -232z" />
    <glyph glyph-name="Itilde" unicode="&#x128;" horiz-adv-x="562" 
d="M373 0h-184v1365h184v-1365zM402 1462q-44 0 -82 19t-59.5 41t-48 41t-50.5 19q-37 0 -53.5 -33t-18.5 -73h-112q0 87 46.5 150t131.5 63q35 0 66.5 -12.5t54 -30t42.5 -35t41 -30t41 -12.5q35 0 55 31.5t22 72.5h112q0 -84 -50 -147.5t-138 -63.5z" />
    <glyph glyph-name="itilde" unicode="&#x129;" horiz-adv-x="587" 
d="M203 0v1052h181v-1052h-181zM418 1215q-38 0 -68.5 15t-50.5 37t-37 44t-37.5 37t-44.5 15q-34 0 -51.5 -31t-22.5 -99h-118q0 116 50 183.5t138 67.5q41 0 73.5 -15t53 -37t37.5 -44t36 -37t39 -15q61 0 70 130h118q0 -111 -51 -181t-134 -70z" />
    <glyph glyph-name="Imacron" unicode="&#x12a;" horiz-adv-x="562" 
d="M373 0h-184v1365h184v-1365zM576 1511h-590v112h590v-112z" />
    <glyph glyph-name="imacron" unicode="&#x12b;" horiz-adv-x="587" 
d="M203 0v1052h181v-1052h-181zM591 1251h-597v119h597v-119z" />
    <glyph glyph-name="Ibreve" unicode="&#x12c;" horiz-adv-x="562" 
d="M373 0h-184v1365h184v-1365zM-43 1750h134q0 -67 50 -109.5t140 -42.5t140 42.5t50 109.5h133q0 -111 -91.5 -189t-231.5 -78t-232 78t-92 189z" />
    <glyph glyph-name="ibreve" unicode="&#x12d;" horiz-adv-x="587" 
d="M203 0v1052h181v-1052h-181zM2 1495h124q0 -73 45.5 -118.5t122.5 -45.5t122.5 45.5t45.5 118.5h123q-1 -121 -83 -199t-208 -78q-127 0 -209.5 78t-82.5 199z" />
    <glyph glyph-name="Iogonek" unicode="&#x12e;" horiz-adv-x="562" 
d="M397 -366q-38 -20 -120 -20q-107 0 -166.5 52t-59.5 143q0 71 38.5 128.5t107.5 91.5v2h-8v1334h184v-1356q-84 -27 -127 -70t-43 -96q0 -47 30.5 -73.5t84.5 -26.5q47 0 79 9v-118z" />
    <glyph glyph-name="iogonek" unicode="&#x12f;" horiz-adv-x="587" 
d="M407 -248v-119q-43 -19 -119 -19q-106 0 -169.5 50t-63.5 146q0 145 148 221v1021h181v-1040q-32 -10 -60 -23.5t-55 -34t-43 -49t-16 -61.5q0 -49 31.5 -74.5t85.5 -25.5q43 0 80 8zM165 1376q0 55 36 90.5t91 35.5q58 0 94.5 -35.5t36.5 -90.5q0 -54 -37 -89.5
t-94 -35.5q-54 0 -90.5 35.5t-36.5 89.5z" />
    <glyph glyph-name="Idotaccent" unicode="&#x130;" horiz-adv-x="562" 
d="M373 0h-184v1365h184v-1365zM173 1597q0 45 31.5 77t76.5 32t76.5 -32t31.5 -77t-31.5 -77t-76.5 -32t-76.5 32t-31.5 77z" />
    <glyph glyph-name="dotlessi" unicode="&#x131;" horiz-adv-x="587" 
d="M203 0v1052h181v-1052h-181z" />
    <glyph glyph-name="IJ" unicode="&#x132;" horiz-adv-x="1595" 
d="M373 0h-184v1365h184v-1365zM617 324h180q3 -81 60.5 -132t144.5 -51q109 0 166.5 63t57.5 182v979h185v-963q0 -205 -107.5 -317.5t-301.5 -112.5q-175 0 -280 98.5t-105 253.5z" />
    <glyph glyph-name="ij" unicode="&#x133;" horiz-adv-x="1140" 
d="M203 0v1052h181v-1052h-181zM165 1376q0 54 36.5 90t90.5 36q57 0 94 -35.5t37 -90.5q0 -54 -37 -89.5t-94 -35.5q-54 0 -90.5 35.5t-36.5 89.5zM717 1376q0 54 36.5 90t90.5 36q57 0 94 -35.5t37 -90.5q0 -54 -37 -89.5t-94 -35.5q-54 0 -90.5 35.5t-36.5 89.5z
M936 1052v-1077q0 -344 -291 -344q-65 0 -101 9v143q32 -4 65 -4q80 0 113 47t33 151v1075h181z" />
    <glyph glyph-name="Jcircumflex" unicode="&#x134;" horiz-adv-x="1028" 
d="M51 324h180q3 -81 60.5 -132t144.5 -51q109 0 166.5 63t57.5 182v979h185v-963q0 -205 -107.5 -317.5t-301.5 -112.5q-175 0 -280 98.5t-105 253.5zM812 1745l269 -245h-175l-153 140h-5l-162 -140h-171l280 245h117z" />
    <glyph glyph-name="jcircumflex" unicode="&#x135;" horiz-adv-x="587" 
d="M384 1052v-1084q0 -344 -291 -344q-58 0 -101 8v144q21 -4 65 -4q80 0 113 46.5t33 151.5v1082h181zM-14 1223l249 376h120l249 -376h-153l-154 252h-5l-153 -252h-153z" />
    <glyph glyph-name="Kcommaaccent" unicode="&#x136;" horiz-adv-x="1246" 
d="M1182 1365l-507 -582l533 -783h-232l-438 654l-165 -180v-474h-184v1365h184v-653h8l586 653h215zM610 -467h-132l81 313h158z" />
    <glyph glyph-name="kcommaaccent" unicode="&#x137;" horiz-adv-x="1074" 
d="M362 386v-386h-181v1437h181v-856h7l424 471h209l-412 -456l439 -596h-216l-356 483zM549 -467h-132l81 313h158z" />
    <glyph glyph-name="Lacute" unicode="&#x139;" horiz-adv-x="1045" 
d="M997 167v-167h-808v1365h184v-1198h624zM210 1512l238 323h177l-279 -323h-136z" />
    <glyph glyph-name="lacute" unicode="&#x13a;" horiz-adv-x="549" 
d="M184 0v1437h181v-1437h-181zM205 1584l238 323h177l-279 -323h-136z" />
    <glyph glyph-name="Lcommaaccent" unicode="&#x13b;" horiz-adv-x="1045" 
d="M997 167v-167h-808v1365h184v-1198h624zM518 -467h-132l81 313h158z" />
    <glyph glyph-name="lcommaaccent" unicode="&#x13c;" horiz-adv-x="549" 
d="M184 0v1437h181v-1437h-181zM262 -467h-132l81 313h158z" />
    <glyph glyph-name="Lcaron" unicode="&#x13d;" horiz-adv-x="1045" 
d="M603 1437h171l-50 -488h-121v488zM997 167v-167h-808v1365h184v-1198h624z" />
    <glyph glyph-name="lcaron" unicode="&#x13e;" horiz-adv-x="702" 
d="M542 1437h162l-45 -488h-117v488zM184 0v1437h181v-1437h-181z" />
    <glyph glyph-name="Lslash" unicode="&#x141;" horiz-adv-x="1058" 
d="M1009 0h-808v536l-128 -75v177l128 75v652h184v-545l372 217v-180l-372 -215v-475h624v-167z" />
    <glyph glyph-name="lslash" unicode="&#x142;" horiz-adv-x="618" 
d="M400 0h-181v611l-154 -104v175l154 105v650h181v-527l152 105v-179l-152 -104v-732z" />
    <glyph glyph-name="Nacute" unicode="&#x143;" horiz-adv-x="1417" 
d="M370 0h-181v1365h174l675 -1044h9v1044h181v-1365h-174l-677 1046h-7v-1046zM638 1512l238 323h177l-279 -323h-136z" />
    <glyph glyph-name="nacute" unicode="&#x144;" horiz-adv-x="1216" 
d="M178 0v1052h179v-191h10q11 37 30.5 68.5t55 65.5t95.5 54t138 20q164 0 260.5 -89.5t96.5 -261.5v-718h-181v660q0 122 -59.5 185.5t-168.5 63.5q-133 0 -204 -90t-71 -233v-586h-181zM520 1223l239 356h177l-278 -356h-138z" />
    <glyph glyph-name="Ncommaaccent" unicode="&#x145;" horiz-adv-x="1417" 
d="M370 0h-181v1365h174l675 -1044h9v1044h181v-1365h-174l-677 1046h-7v-1046zM695 -467h-132l81 313h158z" />
    <glyph glyph-name="ncommaaccent" unicode="&#x146;" horiz-adv-x="1216" 
d="M178 0v1052h179v-191h10q11 37 30.5 68.5t55 65.5t95.5 54t138 20q164 0 260.5 -89.5t96.5 -261.5v-718h-181v660q0 122 -59.5 185.5t-168.5 63.5q-133 0 -204 -90t-71 -233v-586h-181zM595 -467h-132l81 313h158z" />
    <glyph glyph-name="Ncaron" unicode="&#x147;" horiz-adv-x="1417" 
d="M370 0h-181v1365h174l675 -1044h9v1044h181v-1365h-174l-677 1046h-7v-1046zM372 1746h175l153 -140h7l160 140h171l-278 -245h-118z" />
    <glyph glyph-name="ncaron" unicode="&#x148;" horiz-adv-x="1216" 
d="M178 0v1052h179v-191h10q11 37 30.5 68.5t55 65.5t95.5 54t138 20q164 0 260.5 -89.5t96.5 -261.5v-718h-181v660q0 122 -59.5 185.5t-168.5 63.5q-133 0 -204 -90t-71 -233v-586h-181zM299 1595h153l154 -261h5l146 261h152l-239 -376h-121z" />
    <glyph glyph-name="Omacron" unicode="&#x14c;" horiz-adv-x="1369" 
d="M1050 781q0 217 -101 332t-264 115t-264 -114.5t-101 -332.5v-198q0 -217 101 -331.5t264 -114.5t264 114.5t101 331.5v198zM1235 584q0 -288 -148 -450t-402 -162t-402 162t-148 450v197q0 288 148 450t402 162t402 -162t148 -450v-197zM980 1511h-590v112h590v-112z
" />
    <glyph glyph-name="omacron" unicode="&#x14d;" horiz-adv-x="1162" 
d="M582 1070q200 0 327 -125t127 -341v-154q0 -218 -126.5 -342.5t-327.5 -124.5q-204 0 -329.5 123.5t-125.5 343.5v154q0 210 127.5 338t327.5 128zM583 914q-125 0 -200 -90.5t-75 -234.5v-126q0 -148 72.5 -236.5t202.5 -88.5q128 0 199.5 88.5t71.5 236.5v126
q0 145 -73 235t-198 90zM879 1251h-597v119h597v-119z" />
    <glyph glyph-name="Obreve" unicode="&#x14e;" horiz-adv-x="1369" 
d="M1050 781q0 217 -101 332t-264 115t-264 -114.5t-101 -332.5v-198q0 -217 101 -331.5t264 -114.5t264 114.5t101 331.5v198zM1235 584q0 -288 -148 -450t-402 -162t-402 162t-148 450v197q0 288 148 450t402 162t402 -162t148 -450v-197zM361 1750h134q0 -67 50 -109.5
t140 -42.5t140 42.5t50 109.5h133q0 -111 -91.5 -189t-231.5 -78t-232 78t-92 189z" />
    <glyph glyph-name="obreve" unicode="&#x14f;" horiz-adv-x="1162" 
d="M582 1070q200 0 327 -125t127 -341v-154q0 -218 -126.5 -342.5t-327.5 -124.5q-204 0 -329.5 123.5t-125.5 343.5v154q0 210 127.5 338t327.5 128zM583 914q-125 0 -200 -90.5t-75 -234.5v-126q0 -148 72.5 -236.5t202.5 -88.5q128 0 199.5 88.5t71.5 236.5v126
q0 145 -73 235t-198 90zM289 1495h124q0 -73 45.5 -118.5t122.5 -45.5t122.5 45.5t45.5 118.5h123q-1 -121 -83 -199t-208 -78q-127 0 -209.5 78t-82.5 199z" />
    <glyph glyph-name="Ohungarumlaut" unicode="&#x150;" horiz-adv-x="1369" 
d="M1050 781q0 217 -101 332t-264 115t-264 -114.5t-101 -332.5v-198q0 -217 101 -331.5t264 -114.5t264 114.5t101 331.5v198zM1235 584q0 -288 -148 -450t-402 -162t-402 162t-148 450v197q0 288 148 450t402 162t402 -162t148 -450v-197zM429 1512l239 323h176l-279 -323
h-136zM763 1512l239 323h176l-279 -323h-136z" />
    <glyph glyph-name="ohungarumlaut" unicode="&#x151;" horiz-adv-x="1162" 
d="M582 1070q200 0 327 -125t127 -341v-154q0 -218 -126.5 -342.5t-327.5 -124.5q-204 0 -329.5 123.5t-125.5 343.5v154q0 210 127.5 338t327.5 128zM583 914q-125 0 -200 -90.5t-75 -234.5v-126q0 -148 72.5 -236.5t202.5 -88.5q128 0 199.5 88.5t71.5 236.5v126
q0 145 -73 235t-198 90zM463 1223h-134l244 328h179zM788 1223h-133l243 328h179z" />
    <glyph glyph-name="OE" unicode="&#x152;" horiz-adv-x="2009" 
d="M322 775v-198q0 -207 96.5 -323.5t267.5 -116.5q175 0 272 112t97 315v231q0 204 -98 318.5t-271 114.5q-168 0 -266 -121.5t-98 -331.5zM674 -28q-253 0 -396 161.5t-143 444.5v196q0 287 146 453t396 166q124 0 221.5 -44t147.5 -123h14v139h808v-165h-632v-424h596
v-160h-596v-451h632v-165h-808v144h-13q-54 -80 -153 -126t-220 -46z" />
    <glyph glyph-name="oe" unicode="&#x153;" horiz-adv-x="1852" 
d="M1305 -17q-118 0 -212.5 47.5t-142.5 128.5h-13q-52 -81 -147.5 -128.5t-207.5 -47.5q-204 0 -329.5 123.5t-125.5 343.5v154q0 210 127.5 338t327.5 128q117 0 209.5 -44t146.5 -132h12q50 80 142 128t200 48q193 0 314.5 -127t121.5 -338v-126h-692v-52
q0 -127 70.5 -207.5t197.5 -80.5q88 0 149.5 36t75.5 87h185q-6 -45 -33.5 -92t-75.5 -90t-126.5 -70t-173.5 -27zM582 915q-125 0 -200 -90.5t-75 -234.5v-127q0 -147 72.5 -235.5t202.5 -88.5q128 0 199.5 88t71.5 236v127q0 145 -73 235t-198 90zM1036 610h512v17
q0 131 -70 210t-186 79t-186 -79.5t-70 -209.5v-17z" />
    <glyph glyph-name="Racute" unicode="&#x154;" horiz-adv-x="1271" 
d="M687 1365q203 0 323 -111.5t120 -298.5q0 -138 -69 -239t-185 -142l278 -574h-209l-251 539h-322v-539h-183v1365h498zM372 699h284q138 0 211 62.5t73 183.5q0 123 -73 190.5t-204 67.5h-291v-504zM530 1512l238 323h177l-279 -323h-136z" />
    <glyph glyph-name="racute" unicode="&#x155;" horiz-adv-x="802" 
d="M194 0v1052h181v-162h9q11 30 30.5 58t52.5 56.5t86 46t119 17.5q31 0 66 -5v-167q-25 6 -85 6q-134 0 -205.5 -70.5t-71.5 -182.5v-649h-182zM358 1223l239 356h177l-278 -356h-138z" />
    <glyph glyph-name="Rcommaaccent" unicode="&#x156;" horiz-adv-x="1271" 
d="M687 1365q203 0 323 -111.5t120 -298.5q0 -138 -69 -239t-185 -142l278 -574h-209l-251 539h-322v-539h-183v1365h498zM372 699h284q138 0 211 62.5t73 183.5q0 123 -73 190.5t-204 67.5h-291v-504zM587 -467h-132l81 313h158z" />
    <glyph glyph-name="rcommaaccent" unicode="&#x157;" horiz-adv-x="802" 
d="M194 0v1052h181v-162h9q11 30 30.5 58t52.5 56.5t86 46t119 17.5q31 0 66 -5v-167q-25 6 -85 6q-134 0 -205.5 -70.5t-71.5 -182.5v-649h-182zM275 -467h-132l81 313h158z" />
    <glyph glyph-name="Rcaron" unicode="&#x158;" horiz-adv-x="1271" 
d="M687 1365q203 0 323 -111.5t120 -298.5q0 -138 -69 -239t-185 -142l278 -574h-209l-251 539h-322v-539h-183v1365h498zM372 699h284q138 0 211 62.5t73 183.5q0 123 -73 190.5t-204 67.5h-291v-504zM264 1746h175l153 -140h7l160 140h171l-278 -245h-118z" />
    <glyph glyph-name="rcaron" unicode="&#x159;" horiz-adv-x="802" 
d="M194 0v1052h181v-162h9q11 30 30.5 58t52.5 56.5t86 46t119 17.5q31 0 66 -5v-167q-25 6 -85 6q-134 0 -205.5 -70.5t-71.5 -182.5v-649h-182zM137 1595h153l154 -261h5l146 261h152l-239 -376h-121z" />
    <glyph glyph-name="Sacute" unicode="&#x15a;" horiz-adv-x="1213" 
d="M89 347h186q20 -97 107 -154.5t220 -57.5q142 0 224.5 63t82.5 170q0 81 -53.5 131.5t-168.5 79.5l-237 61q-155 40 -239 132.5t-84 228.5q0 174 134 285t343 111q200 0 329 -100.5t145 -258.5h-185q-19 91 -96.5 143.5t-195.5 52.5q-129 0 -208 -62t-79 -162
q0 -145 192 -193l233 -61q182 -47 269 -136.5t87 -236.5q0 -187 -138.5 -299t-373.5 -112q-214 0 -347 103.5t-147 271.5zM534 1512l238 323h177l-279 -323h-136z" />
    <glyph glyph-name="sacute" unicode="&#x15b;" horiz-adv-x="1041" 
d="M128 750q0 81 32 144t87.5 100.5t124.5 56.5t148 19q170 0 273.5 -81t103.5 -215h-168q-5 62 -60.5 107t-154.5 45q-94 0 -152.5 -41.5t-58.5 -115.5q0 -93 112 -131q37 -12 149 -32q66 -12 114 -24.5t97 -35.5t79.5 -52.5t50 -76t19.5 -105.5q0 -155 -114 -242t-306 -87
q-179 0 -287 77.5t-108 216.5h177q23 -151 226 -151q118 0 176 45.5t58 118.5q0 17 -3 32t-11 27.5l-14.5 22.5t-22.5 19t-25 15t-32 13.5l-33 11t-39 9.5t-39.5 8t-43.5 9q-49 10 -82 18t-73.5 21.5t-67 27.5t-54 36t-43 48.5t-25.5 62.5t-10 79zM433 1223l239 356h177
l-278 -356h-138z" />
    <glyph glyph-name="Scircumflex" unicode="&#x15c;" horiz-adv-x="1213" 
d="M89 347h186q20 -97 107 -154.5t220 -57.5q142 0 224.5 63t82.5 170q0 81 -53.5 131.5t-168.5 79.5l-237 61q-155 40 -239 132.5t-84 228.5q0 174 134 285t343 111q200 0 329 -100.5t145 -258.5h-185q-19 91 -96.5 143.5t-195.5 52.5q-129 0 -208 -62t-79 -162
q0 -145 192 -193l233 -61q182 -47 269 -136.5t87 -236.5q0 -187 -138.5 -299t-373.5 -112q-214 0 -347 103.5t-147 271.5zM665 1745l269 -245h-175l-153 140h-5l-162 -140h-171l280 245h117z" />
    <glyph glyph-name="scircumflex" unicode="&#x15d;" horiz-adv-x="1041" 
d="M128 750q0 81 32 144t87.5 100.5t124.5 56.5t148 19q170 0 273.5 -81t103.5 -215h-168q-5 62 -60.5 107t-154.5 45q-94 0 -152.5 -41.5t-58.5 -115.5q0 -93 112 -131q37 -12 149 -32q66 -12 114 -24.5t97 -35.5t79.5 -52.5t50 -76t19.5 -105.5q0 -155 -114 -242t-306 -87
q-179 0 -287 77.5t-108 216.5h177q23 -151 226 -151q118 0 176 45.5t58 118.5q0 17 -3 32t-11 27.5l-14.5 22.5t-22.5 19t-25 15t-32 13.5l-33 11t-39 9.5t-39.5 8t-43.5 9q-49 10 -82 18t-73.5 21.5t-67 27.5t-54 36t-43 48.5t-25.5 62.5t-10 79zM212 1223l249 376h120
l249 -376h-153l-154 252h-5l-153 -252h-153z" />
    <glyph glyph-name="Scedilla" unicode="&#x15e;" horiz-adv-x="1213" 
d="M599 -487q-71 0 -130 16v107q48 -14 116 -14q54 0 85.5 20.5t31.5 56.5t-33 51.5t-114 15.5h-52v81l47 126q-207 8 -332 118t-131 280h184q11 -107 100.5 -171.5t230.5 -64.5q142 0 224.5 63t82.5 170q0 81 -53.5 131.5t-168.5 79.5l-237 61q-155 40 -239 132.5
t-84 228.5q0 174 134 285t343 111q210 0 341.5 -110t134.5 -281h-181q-10 105 -89.5 166.5t-208.5 61.5t-208 -62t-79 -162q0 -145 192 -193l233 -61q182 -47 269 -136.5t87 -236.5q0 -167 -112 -276t-309 -131l-41 -111q100 0 155.5 -42.5t55.5 -119.5q0 -90 -64.5 -140
t-180.5 -50z" />
    <glyph glyph-name="scedilla" unicode="&#x15f;" horiz-adv-x="1041" 
d="M503 -487q-71 0 -130 16v107q48 -14 116 -14q54 0 85.5 20.5t31.5 56.5t-33 51.5t-114 15.5h-52v81l52 137q-160 10 -255 86.5t-95 206.5h177q23 -151 226 -151q118 0 176 45.5t58 118.5q0 17 -3 32t-11 27.5l-14.5 22.5t-22.5 19t-25 15t-32 13.5l-33 11t-39 9.5
t-39.5 8t-43.5 9q-49 10 -82 18t-73.5 21.5t-67 27.5t-54 36t-43 48.5t-25.5 62.5t-10 79q0 81 32 144t87.5 100.5t124.5 56.5t148 19q170 0 273.5 -81t103.5 -215h-168q-5 62 -60.5 107t-154.5 45q-94 0 -152.5 -41.5t-58.5 -115.5q0 -93 112 -131q37 -12 149 -32
q66 -12 114 -24.5t97 -35.5t79.5 -52.5t50 -76t19.5 -105.5q0 -138 -91.5 -222.5t-249.5 -102.5l-46 -122q100 0 155.5 -42.5t55.5 -119.5q0 -90 -64.5 -140t-180.5 -50z" />
    <glyph glyph-name="Scaron" unicode="&#x160;" horiz-adv-x="1213" 
d="M89 347h186q20 -97 107 -154.5t220 -57.5q142 0 224.5 63t82.5 170q0 81 -53.5 131.5t-168.5 79.5l-237 61q-155 40 -239 132.5t-84 228.5q0 174 134 285t343 111q200 0 329 -100.5t145 -258.5h-185q-19 91 -96.5 143.5t-195.5 52.5q-129 0 -208 -62t-79 -162
q0 -145 192 -193l233 -61q182 -47 269 -136.5t87 -236.5q0 -187 -138.5 -299t-373.5 -112q-214 0 -347 103.5t-147 271.5zM268 1746h175l153 -140h7l160 140h171l-278 -245h-118z" />
    <glyph glyph-name="scaron" unicode="&#x161;" horiz-adv-x="1041" 
d="M128 750q0 81 32 144t87.5 100.5t124.5 56.5t148 19q170 0 273.5 -81t103.5 -215h-168q-5 62 -60.5 107t-154.5 45q-94 0 -152.5 -41.5t-58.5 -115.5q0 -93 112 -131q37 -12 149 -32q66 -12 114 -24.5t97 -35.5t79.5 -52.5t50 -76t19.5 -105.5q0 -155 -114 -242t-306 -87
q-179 0 -287 77.5t-108 216.5h177q23 -151 226 -151q118 0 176 45.5t58 118.5q0 17 -3 32t-11 27.5l-14.5 22.5t-22.5 19t-25 15t-32 13.5l-33 11t-39 9.5t-39.5 8t-43.5 9q-49 10 -82 18t-73.5 21.5t-67 27.5t-54 36t-43 48.5t-25.5 62.5t-10 79zM212 1595h153l154 -261h5
l146 261h152l-239 -376h-121z" />
    <glyph glyph-name="Tcedilla" unicode="&#x162;" horiz-adv-x="1101" 
d="M508 0h-49v1200h-412v165h1007v-165h-411v-1200h-12l-67 -135q100 0 155 -42.5t55 -119.5q0 -91 -64 -140.5t-180 -49.5q-73 0 -130 16v107q48 -14 116 -14q54 0 85.5 20.5t31.5 56.5t-33 51.5t-114 15.5h-53v81z" />
    <glyph glyph-name="tcedilla" unicode="&#x163;" horiz-adv-x="771" 
d="M446 -484q-72 0 -131 16v107q50 -14 116 -14q54 0 85.5 20t31.5 56t-33 51.5t-113 15.5h-53v82l58 154q-99 23 -135 91.5t-36 199.5v605h-161v149h162v264h179v-264h238v-149h-238v-602q0 -91 36.5 -123t133.5 -32q49 0 83 4v-147q-45 -9 -129 -9h-14l-47 -123
q100 0 155.5 -42.5t55.5 -119.5q0 -90 -64.5 -140t-179.5 -50z" />
    <glyph glyph-name="Tcaron" unicode="&#x164;" horiz-adv-x="1101" 
d="M643 0h-184v1200h-412v165h1007v-165h-411v-1200zM214 1746h175l153 -140h7l160 140h171l-278 -245h-118z" />
    <glyph glyph-name="tcaron" unicode="&#x165;" horiz-adv-x="777" 
d="M604 1702h162l-45 -488h-117v488zM237 1049v264h179v-264h238v-149h-238v-602q0 -91 36.5 -123t133.5 -32q49 0 83 4v-147q-45 -9 -129 -9q-93 0 -153 17.5t-93 57.5t-45.5 93t-12.5 136v605h-161v149h162z" />
    <glyph glyph-name="Tbar" unicode="&#x166;" horiz-adv-x="1101" 
d="M875 640h-232v-640h-184v640h-232v137h232v423h-412v165h1007v-165h-411v-423h232v-137z" />
    <glyph glyph-name="tbar" unicode="&#x167;" horiz-adv-x="771" 
d="M669 0q-45 -9 -129 -9q-93 0 -153 17.5t-93 57.5t-45.5 93t-12.5 136v237h-158v140h158v228h-161v149h162v264h179v-264h238v-149h-238v-228h234v-140h-234v-234q0 -91 36.5 -123t133.5 -32q49 0 83 4v-147z" />
    <glyph glyph-name="Utilde" unicode="&#x168;" horiz-adv-x="1388" 
d="M694 139q154 0 245 90.5t91 248.5v887h185v-894q0 -224 -143 -361.5t-378 -137.5t-378 137t-143 362v894h184v-887q0 -158 91 -248.5t246 -90.5zM815 1462q-44 0 -82 19t-59.5 41t-48 41t-50.5 19q-37 0 -53.5 -33t-18.5 -73h-112q0 87 46.5 150t131.5 63
q35 0 66.5 -12.5t54 -30t42.5 -35t41 -30t41 -12.5q35 0 55 31.5t22 72.5h112q0 -84 -50 -147.5t-138 -63.5z" />
    <glyph glyph-name="utilde" unicode="&#x169;" horiz-adv-x="1210" 
d="M1032 1052v-1052h-179v175h-10q-27 -76 -107 -134t-206 -58q-168 0 -264 82t-96 258v729h181v-680q0 -122 62.5 -175.5t166.5 -53.5q114 0 192.5 72.5t78.5 174.5v662h181zM730 1215q-38 0 -68.5 15t-50.5 37t-37 44t-37.5 37t-44.5 15q-34 0 -51.5 -31t-22.5 -99h-118
q0 116 50 183.5t138 67.5q41 0 73.5 -15t53 -37t37.5 -44t36 -37t39 -15q61 0 70 130h118q0 -111 -51 -181t-134 -70z" />
    <glyph glyph-name="Umacron" unicode="&#x16a;" horiz-adv-x="1388" 
d="M694 139q154 0 245 90.5t91 248.5v887h185v-894q0 -224 -143 -361.5t-378 -137.5t-378 137t-143 362v894h184v-887q0 -158 91 -248.5t246 -90.5zM989 1511h-590v112h590v-112z" />
    <glyph glyph-name="umacron" unicode="&#x16b;" horiz-adv-x="1210" 
d="M1032 1052v-1052h-179v175h-10q-27 -76 -107 -134t-206 -58q-168 0 -264 82t-96 258v729h181v-680q0 -122 62.5 -175.5t166.5 -53.5q114 0 192.5 72.5t78.5 174.5v662h181zM903 1251h-597v119h597v-119z" />
    <glyph glyph-name="Ubreve" unicode="&#x16c;" horiz-adv-x="1388" 
d="M694 139q154 0 245 90.5t91 248.5v887h185v-894q0 -224 -143 -361.5t-378 -137.5t-378 137t-143 362v894h184v-887q0 -158 91 -248.5t246 -90.5zM370 1750h134q0 -67 50 -109.5t140 -42.5t140 42.5t50 109.5h133q0 -111 -91.5 -189t-231.5 -78t-232 78t-92 189z" />
    <glyph glyph-name="ubreve" unicode="&#x16d;" horiz-adv-x="1210" 
d="M1032 1052v-1052h-179v175h-10q-27 -76 -107 -134t-206 -58q-168 0 -264 82t-96 258v729h181v-680q0 -122 62.5 -175.5t166.5 -53.5q114 0 192.5 72.5t78.5 174.5v662h181zM313 1495h124q0 -73 45.5 -118.5t122.5 -45.5t122.5 45.5t45.5 118.5h123q-1 -121 -83 -199
t-208 -78q-127 0 -209.5 78t-82.5 199z" />
    <glyph glyph-name="Uring" unicode="&#x16e;" horiz-adv-x="1388" 
d="M694 139q154 0 245 90.5t91 248.5v887h185v-894q0 -224 -143 -361.5t-378 -137.5t-378 137t-143 362v894h184v-887q0 -158 91 -248.5t246 -90.5zM694 1483q-81 0 -136.5 54t-55.5 135q0 80 55.5 134t136.5 54t137 -54t56 -134t-56 -134.5t-137 -54.5zM593 1671
q0 -43 29 -72.5t72 -29.5t71.5 29.5t28.5 72.5t-28.5 72.5t-71.5 29.5t-72 -29.5t-29 -72.5z" />
    <glyph glyph-name="uring" unicode="&#x16f;" horiz-adv-x="1210" 
d="M1032 1052v-1052h-179v175h-10q-27 -76 -107 -134t-206 -58q-168 0 -264 82t-96 258v729h181v-680q0 -122 62.5 -175.5t166.5 -53.5q114 0 192.5 72.5t78.5 174.5v662h181zM605 1228q-81 0 -136.5 54t-55.5 135q0 80 55.5 134t136.5 54t137 -54t56 -134t-56 -134.5
t-137 -54.5zM504 1416q0 -43 29 -72.5t72 -29.5t71.5 29.5t28.5 72.5t-28.5 72.5t-71.5 29.5t-72 -29.5t-29 -72.5z" />
    <glyph glyph-name="Uhungarumlaut" unicode="&#x170;" horiz-adv-x="1388" 
d="M694 139q154 0 245 90.5t91 248.5v887h185v-894q0 -224 -143 -361.5t-378 -137.5t-378 137t-143 362v894h184v-887q0 -158 91 -248.5t246 -90.5zM438 1512l239 323h176l-279 -323h-136zM772 1512l239 323h176l-279 -323h-136z" />
    <glyph glyph-name="uhungarumlaut" unicode="&#x171;" horiz-adv-x="1210" 
d="M1032 1052v-1052h-179v175h-10q-27 -76 -107 -134t-206 -58q-168 0 -264 82t-96 258v729h181v-680q0 -122 62.5 -175.5t166.5 -53.5q114 0 192.5 72.5t78.5 174.5v662h181zM487 1223h-134l244 328h179zM812 1223h-133l243 328h179z" />
    <glyph glyph-name="Uogonek" unicode="&#x172;" horiz-adv-x="1388" 
d="M990 -386q-95 0 -161 50.5t-66 151.5q0 114 102 193l-4 8q-84 -45 -190 -45q-232 0 -365 136t-133 363v894h184v-887q0 -158 91 -248.5t246 -90.5q154 0 245 90.5t91 248.5v887h185v-894q0 -134 -40.5 -225.5t-110.5 -166.5q-14 -15 -48.5 -47.5t-52.5 -52.5t-34.5 -53.5
t-16.5 -68.5q0 -53 33 -80.5t84 -27.5q43 0 75 10v-126q-48 -19 -114 -19z" />
    <glyph glyph-name="uogonek" unicode="&#x173;" horiz-adv-x="1210" 
d="M1045 -365q-47 -21 -125 -21q-93 0 -156.5 48.5t-63.5 143.5q0 36 12 69.5t24 53.5t41 47t38 34l40 30v135h-10q-27 -76 -107 -134t-207 -58q-167 0 -264 82.5t-97 257.5v729h181v-682q0 -122 63 -176t166 -54q114 0 192.5 73t78.5 175v664h181v-1035q-73 -28 -127 -74.5
t-54 -102.5q0 -44 31 -67.5t82 -23.5q45 0 81 9v-123z" />
    <glyph glyph-name="Wcircumflex" unicode="&#x174;" horiz-adv-x="1734" 
d="M579 0h-164l-375 1365h212l248 -1082h10l267 1082h180l268 -1082h10l248 1082h211l-374 -1365h-165l-284 1063h-8zM929 1745l269 -245h-175l-153 140h-5l-162 -140h-171l280 245h117z" />
    <glyph glyph-name="wcircumflex" unicode="&#x175;" horiz-adv-x="1523" 
d="M1466 1052l-280 -1052h-180l-237 803h-5l-231 -803h-181l-295 1052h201l186 -825h7l230 825h170l237 -825h7l190 825h181zM453 1223l249 376h120l249 -376h-153l-154 252h-5l-153 -252h-153z" />
    <glyph glyph-name="Ycircumflex" unicode="&#x176;" horiz-adv-x="1148" 
d="M666 0h-184v578l-456 787h209l335 -602h9l336 602h207l-456 -785v-580zM635 1745l269 -245h-175l-153 140h-5l-162 -140h-171l280 245h117z" />
    <glyph glyph-name="ycircumflex" unicode="&#x177;" horiz-adv-x="1094" 
d="M1019 1052q-7 -27 -100.5 -290l-182.5 -513l-89 -250l-22 -57q-63 -168 -149 -239.5t-224 -71.5q-65 0 -104 9v148q32 -6 77 -6q88 0 137.5 38.5t73.5 127.5l11 39l-386 1065h201l278 -873h8l279 873h192zM238 1223l249 376h120l249 -376h-153l-154 252h-5l-153 -252
h-153z" />
    <glyph glyph-name="Ydieresis" unicode="&#x178;" horiz-adv-x="1148" 
d="M666 0h-184v578l-456 787h209l335 -602h9l336 602h207l-456 -785v-580zM747 1474q-45 0 -75.5 30.5t-30.5 74.5q0 43 30.5 73.5t75.5 30.5t76 -30.5t31 -73.5q0 -44 -31 -74.5t-76 -30.5zM399 1474q-45 0 -76 30.5t-31 74.5q0 43 31 73.5t76 30.5t75.5 -30.5t30.5 -73.5
q0 -44 -30.5 -74.5t-75.5 -30.5z" />
    <glyph glyph-name="Zacute" unicode="&#x179;" horiz-adv-x="1203" 
d="M110 0v129l723 1061v11h-698v164h926v-129l-719 -1061v-11h736v-164h-968zM532 1512l238 323h177l-279 -323h-136z" />
    <glyph glyph-name="zacute" unicode="&#x17a;" horiz-adv-x="1023" 
d="M121 0v121l556 764v10h-558v157h783v-125l-553 -760v-10h559v-157h-787zM424 1223l239 356h177l-278 -356h-138z" />
    <glyph glyph-name="Zdotaccent" unicode="&#x17b;" horiz-adv-x="1203" 
d="M110 0v129l723 1061v11h-698v164h926v-129l-719 -1061v-11h736v-164h-968zM494 1597q0 45 31.5 77t76.5 32t76.5 -32t31.5 -77t-31.5 -77t-76.5 -32t-76.5 32t-31.5 77z" />
    <glyph glyph-name="zdotaccent" unicode="&#x17c;" horiz-adv-x="1023" 
d="M121 0v121l556 764v10h-558v157h783v-125l-553 -760v-10h559v-157h-787zM399 1350q0 46 32.5 77.5t78.5 31.5t79 -31.5t33 -77.5q0 -45 -33 -76.5t-79 -31.5t-78.5 31.5t-32.5 76.5z" />
    <glyph glyph-name="Zcaron" unicode="&#x17d;" horiz-adv-x="1203" 
d="M110 0v129l723 1061v11h-698v164h926v-129l-719 -1061v-11h736v-164h-968zM266 1746h175l153 -140h7l160 140h171l-278 -245h-118z" />
    <glyph glyph-name="zcaron" unicode="&#x17e;" horiz-adv-x="1023" 
d="M121 0v121l556 764v10h-558v157h783v-125l-553 -760v-10h559v-157h-787zM203 1595h153l154 -261h5l146 261h152l-239 -376h-121z" />
    <glyph glyph-name="uni04D8" unicode="&#x4d8;" horiz-adv-x="1386" 
d="M691 138q157 0 260.5 104t103.5 296v11h-728v-6q0 -195 102.5 -300t261.5 -105zM157 955q2 185 148 311.5t365 126.5q261 0 416 -162t155 -448v-199q0 -285 -147.5 -448.5t-401.5 -163.5q-252 0 -399 161t-147 445l1 130h909v77q0 214 -108 328t-279 114
q-143 0 -236 -76.5t-94 -195.5h-182z" />
    <glyph glyph-name="uni04D8" unicode="&#x18f;" horiz-adv-x="1386" 
d="M691 138q157 0 260.5 104t103.5 296v11h-728v-6q0 -195 102.5 -300t261.5 -105zM157 955q2 185 148 311.5t365 126.5q261 0 416 -162t155 -448v-199q0 -285 -147.5 -448.5t-401.5 -163.5q-252 0 -399 161t-147 445l1 130h909v77q0 214 -108 328t-279 114
q-143 0 -236 -76.5t-94 -195.5h-182z" />
    <glyph glyph-name="florin" unicode="&#x192;" horiz-adv-x="1149" 
d="M1053 1375v-151q-48 16 -141 16q-175 0 -200 -190l-27 -209h290v-126h-306l-54 -417q-41 -326 -372 -326q-97 0 -147 18v151q48 -16 141 -16q175 0 200 190l51 400h-262v126h278l29 226q21 162 115 244t258 82q97 0 147 -18z" />
    <glyph glyph-name="Ohorn" unicode="&#x1a0;" horiz-adv-x="1408" 
d="M1235 577q0 -282 -147 -443.5t-406 -161.5q-257 0 -402 161t-145 444v198q0 285 148 451.5t403 166.5q84 0 159 -22.5t135 -45t109 -22.5q71 0 103.5 38t32.5 118v94h159v-99q0 -135 -65.5 -207t-189.5 -72l-4 -6q48 -67 79 -178t31 -216v-198zM320 775v-198
q0 -206 96.5 -322.5t267.5 -116.5q172 0 269 116.5t97 322.5v198q0 210 -98.5 331.5t-267.5 121.5t-266.5 -121.5t-97.5 -331.5z" />
    <glyph glyph-name="ohorn" unicode="&#x1a1;" horiz-adv-x="1165" 
d="M582 -17q-204 0 -329.5 123.5t-125.5 343.5v154q0 210 127.5 338t327.5 128q59 0 140 -22.5t138 -22.5q72 0 101.5 38.5t29.5 114.5v156h159v-152q0 -267 -211 -276v-8q39 -51 68 -130.5t29 -163.5v-154q0 -218 -126.5 -342.5t-327.5 -124.5zM583 915q-125 0 -200 -90.5
t-75 -234.5v-127q0 -147 72.5 -235.5t202.5 -88.5q128 0 199.5 88t71.5 236v127q0 145 -73 235t-198 90z" />
    <glyph glyph-name="Uhorn" unicode="&#x1af;" horiz-adv-x="1473" 
d="M694 -28q-235 0 -378 137t-143 362v894h184v-887q0 -158 91 -248.5t246 -90.5q154 0 245 91t91 248v887h187q68 0 99.5 37t31.5 116v102h157v-108q0 -132 -65.5 -205.5t-183.5 -73.5h-41v-762q0 -224 -143 -361.5t-378 -137.5z" />
    <glyph glyph-name="uhorn" unicode="&#x1b0;" horiz-adv-x="1295" 
d="M843 175q-27 -76 -107 -134t-206 -58q-168 0 -264 82t-96 258v729h181v-682q0 -122 63 -176t166 -54q114 0 192.5 73t78.5 175v664h164q73 0 101.5 39t28.5 114v129h158v-135q0 -125 -62 -201.5t-189 -76.5h-20v-921h-179v175h-10z" />
    <glyph glyph-name="uni01C4" unicode="&#x1c4;" horiz-adv-x="2558" 
d="M189 1365h444q297 0 449 -173.5t152 -508.5t-152 -509t-449 -174h-444v1365zM373 1201v-1036h247q213 0 318 128.5t105 388.5q0 519 -423 519h-247zM1466 0v129l723 1061v11h-698v164h926v-129l-719 -1061v-11h736v-164h-968zM1622 1746h175l153 -140h7l160 140h171
l-278 -245h-118z" />
    <glyph glyph-name="uni01C5" unicode="&#x1c5;" horiz-adv-x="2389" 
d="M189 1365h444q297 0 449 -173.5t152 -508.5t-152 -509t-449 -174h-444v1365zM373 1201v-1036h247q213 0 318 128.5t105 388.5q0 519 -423 519h-247zM1487 0v121l556 764v10h-558v157h783v-125l-553 -760v-10h559v-157h-787zM1569 1595h153l154 -261h5l146 261h152
l-239 -376h-121z" />
    <glyph glyph-name="uni01C6" unicode="&#x1c6;" horiz-adv-x="2250" 
d="M535 1068q111 0 192 -46t113 -126h9v541h181v-1437h-174v168h-9q-23 -80 -112 -131.5t-204 -51.5q-184 0 -294 119.5t-110 320.5v202q0 201 112 321t296 120zM572 911q-123 0 -193 -85t-70 -235v-127q0 -152 71 -237t197 -85q124 0 198 82.5t74 222.5v180
q0 125 -78 204.5t-199 79.5zM1348 0v121l556 764v10h-558v157h783v-125l-553 -760v-10h559v-157h-787zM1430 1595h153l154 -261h5l146 261h152l-239 -376h-121z" />
    <glyph glyph-name="uni01C7" unicode="&#x1c7;" horiz-adv-x="2141" 
d="M997 167v-167h-808v1365h184v-1198h624zM1163 324h180q3 -81 60.5 -132t144.5 -51q109 0 166.5 63t57.5 182v979h185v-963q0 -205 -107.5 -317.5t-301.5 -112.5q-175 0 -280 98.5t-105 253.5z" />
    <glyph glyph-name="uni01C8" unicode="&#x1c8;" horiz-adv-x="1693" 
d="M997 167v-167h-808v1365h184v-1198h624zM1270 1376q0 54 36.5 90t90.5 36q57 0 94 -35.5t37 -90.5q0 -54 -37 -89.5t-94 -35.5q-54 0 -90.5 35.5t-36.5 89.5zM1489 1052v-1077q0 -344 -291 -344q-65 0 -101 9v143q32 -4 65 -4q80 0 113 47t33 151v1075h181z" />
    <glyph glyph-name="uni01C9" unicode="&#x1c9;" horiz-adv-x="1140" 
d="M184 0v1437h181v-1437h-181zM718 1376q0 54 36.5 90t90.5 36q57 0 94 -35.5t37 -90.5q0 -54 -37 -89.5t-94 -35.5q-54 0 -90.5 35.5t-36.5 89.5zM937 1052v-1077q0 -344 -291 -344q-65 0 -101 9v143q32 -4 65 -4q80 0 113 47t33 151v1075h181z" />
    <glyph glyph-name="uni01CA" unicode="&#x1ca;" horiz-adv-x="2445" 
d="M370 0h-181v1365h174l675 -1044h9v1044h181v-1365h-174l-677 1046h-7v-1046zM1468 324h180q3 -81 60.5 -132t144.5 -51q109 0 166.5 63t57.5 182v979h185v-963q0 -205 -107.5 -317.5t-301.5 -112.5q-175 0 -280 98.5t-105 253.5z" />
    <glyph glyph-name="uni01CB" unicode="&#x1cb;" horiz-adv-x="2004" 
d="M370 0h-181v1365h174l675 -1044h9v1044h181v-1365h-174l-677 1046h-7v-1046zM1582 1376q0 54 36.5 90t90.5 36q57 0 94 -35.5t37 -90.5q0 -54 -37 -89.5t-94 -35.5q-54 0 -90.5 35.5t-36.5 89.5zM1801 1052v-1077q0 -344 -291 -344q-65 0 -101 9v143q32 -4 65 -4
q80 0 113 47t33 151v1075h181z" />
    <glyph glyph-name="uni01CC" unicode="&#x1cc;" horiz-adv-x="1805" 
d="M178 0v1052h179v-191h10q11 37 30.5 68.5t55 65.5t95.5 54t138 20q164 0 260.5 -89.5t96.5 -261.5v-718h-181v660q0 122 -59.5 185.5t-168.5 63.5q-133 0 -204 -90t-71 -233v-586h-181zM1382 1376q0 54 36.5 90t90.5 36q57 0 94 -35.5t37 -90.5q0 -54 -37 -89.5
t-94 -35.5q-54 0 -90.5 35.5t-36.5 89.5zM1601 1052v-1077q0 -344 -291 -344q-65 0 -101 9v143q32 -4 65 -4q80 0 113 47t33 151v1075h181z" />
    <glyph glyph-name="Acaron" unicode="&#x1cd;" horiz-adv-x="1259" 
d="M242 0h-191l483 1365h191l482 -1365h-194l-134 402h-503zM631 1152h-7l-200 -601h408zM294 1746h175l153 -140h7l160 140h171l-278 -245h-118z" />
    <glyph glyph-name="acaron" unicode="&#x1ce;" horiz-adv-x="1117" 
d="M462 -17q-154 0 -249 88.5t-95 234.5q0 141 96 225t274 84h275v104q0 98 -58 146.5t-162 48.5q-174 0 -210 -124h-175q12 134 113.5 206.5t277.5 72.5q85 0 154 -19t124.5 -59t86.5 -109.5t31 -163.5v-718h-174v139h-8q-95 -156 -301 -156zM512 136q107 0 179 64t72 159
v118h-260q-102 0 -151 -45t-49 -120q0 -85 60.5 -130.5t148.5 -45.5zM250 1595h153l154 -261h5l146 261h152l-239 -376h-121z" />
    <glyph glyph-name="Icaron" unicode="&#x1cf;" horiz-adv-x="562" 
d="M373 0h-184v1365h184v-1365zM-55 1746h175l153 -140h7l160 140h171l-278 -245h-118z" />
    <glyph glyph-name="icaron" unicode="&#x1d0;" horiz-adv-x="587" 
d="M203 0v1052h181v-1052h-181zM-12 1595h153l154 -261h5l146 261h152l-239 -376h-121z" />
    <glyph glyph-name="Ocaron" unicode="&#x1d1;" horiz-adv-x="1369" 
d="M1050 781q0 217 -101 332t-264 115t-264 -114.5t-101 -332.5v-198q0 -217 101 -331.5t264 -114.5t264 114.5t101 331.5v198zM1235 584q0 -288 -148 -450t-402 -162t-402 162t-148 450v197q0 288 148 450t402 162t402 -162t148 -450v-197zM349 1746h175l153 -140h7
l160 140h171l-278 -245h-118z" />
    <glyph glyph-name="ocaron" unicode="&#x1d2;" horiz-adv-x="1162" 
d="M582 1070q200 0 327 -125t127 -341v-154q0 -218 -126.5 -342.5t-327.5 -124.5q-204 0 -329.5 123.5t-125.5 343.5v154q0 210 127.5 338t327.5 128zM583 914q-125 0 -200 -90.5t-75 -234.5v-126q0 -148 72.5 -236.5t202.5 -88.5q128 0 199.5 88.5t71.5 236.5v126
q0 145 -73 235t-198 90zM272 1595h153l154 -261h5l146 261h152l-239 -376h-121z" />
    <glyph glyph-name="Ucaron" unicode="&#x1d3;" horiz-adv-x="1388" 
d="M694 139q154 0 245 90.5t91 248.5v887h185v-894q0 -224 -143 -361.5t-378 -137.5t-378 137t-143 362v894h184v-887q0 -158 91 -248.5t246 -90.5zM358 1746h175l153 -140h7l160 140h171l-278 -245h-118z" />
    <glyph glyph-name="ucaron" unicode="&#x1d4;" horiz-adv-x="1210" 
d="M1032 1052v-1052h-179v175h-10q-27 -76 -107 -134t-206 -58q-168 0 -264 82t-96 258v729h181v-680q0 -122 62.5 -175.5t166.5 -53.5q114 0 192.5 72.5t78.5 174.5v662h181zM296 1595h153l154 -261h5l146 261h152l-239 -376h-121z" />
    <glyph glyph-name="Udieresismacron" unicode="&#x1d5;" horiz-adv-x="1388" 
d="M694 139q154 0 245 90.5t91 248.5v887h185v-894q0 -224 -143 -361.5t-378 -137.5t-378 137t-143 362v894h184v-887q0 -158 91 -248.5t246 -90.5zM868 1474q-45 0 -75.5 30.5t-30.5 74.5q0 43 30.5 73.5t75.5 30.5t76 -30.5t31 -73.5q0 -44 -31 -74.5t-76 -30.5zM520 1474
q-45 0 -76 30.5t-31 74.5q0 43 31 73.5t76 30.5t75.5 -30.5t30.5 -73.5q0 -44 -30.5 -74.5t-75.5 -30.5zM989 1783h-590v112h590v-112z" />
    <glyph glyph-name="udieresismacron" unicode="&#x1d6;" horiz-adv-x="1210" 
d="M1032 1052v-1052h-179v175h-10q-27 -76 -107 -134t-206 -58q-168 0 -264 82t-96 258v729h181v-680q0 -122 62.5 -175.5t166.5 -53.5q114 0 192.5 72.5t78.5 174.5v662h181zM789 1221q-47 0 -79 30.5t-32 76.5t32 76.5t79 30.5t79 -30.5t32 -76.5t-32 -76.5t-79 -30.5z
M421 1221q-47 0 -79 30.5t-32 76.5t32 76.5t79 30.5t79 -30.5t32 -76.5t-32 -76.5t-79 -30.5zM903 1599h-597v119h597v-119z" />
    <glyph glyph-name="Udieresisacute" unicode="&#x1d7;" horiz-adv-x="1388" 
d="M694 139q154 0 245 90.5t91 248.5v887h185v-894q0 -224 -143 -361.5t-378 -137.5t-378 137t-143 362v894h184v-887q0 -158 91 -248.5t246 -90.5zM595 1736l240 196h196l-279 -196h-157zM868 1474q-45 0 -75.5 30.5t-30.5 74.5q0 43 30.5 73.5t75.5 30.5t76 -30.5
t31 -73.5q0 -44 -31 -74.5t-76 -30.5zM520 1474q-45 0 -76 30.5t-31 74.5q0 43 31 73.5t76 30.5t75.5 -30.5t30.5 -73.5q0 -44 -30.5 -74.5t-75.5 -30.5z" />
    <glyph glyph-name="udieresisacute" unicode="&#x1d8;" horiz-adv-x="1210" 
d="M1032 1052v-1052h-179v175h-10q-27 -76 -107 -134t-206 -58q-168 0 -264 82t-96 258v729h181v-680q0 -122 62.5 -175.5t166.5 -53.5q114 0 192.5 72.5t78.5 174.5v662h181zM789 1221q-47 0 -79 30.5t-32 76.5t32 76.5t79 30.5t79 -30.5t32 -76.5t-32 -76.5t-79 -30.5z
M421 1221q-47 0 -79 30.5t-32 76.5t32 76.5t79 30.5t79 -30.5t32 -76.5t-32 -76.5t-79 -30.5zM518 1531l239 356h177l-278 -356h-138z" />
    <glyph glyph-name="Udieresiscaron" unicode="&#x1d9;" horiz-adv-x="1388" 
d="M694 139q154 0 245 90.5t91 248.5v887h185v-894q0 -224 -143 -361.5t-378 -137.5t-378 137t-143 362v894h184v-887q0 -158 91 -248.5t246 -90.5zM521 1475q-44 0 -74.5 30t-30.5 73t30.5 73.5t74.5 30.5q43 0 74 -30.5t31 -73.5t-30.5 -73t-74.5 -30zM867 1475
q-44 0 -74.5 30t-30.5 73t30.5 73.5t74.5 30.5t74.5 -30.5t30.5 -73.5t-30.5 -73t-74.5 -30zM364 1945h177l151 -114h5l159 114h173l-270 -199h-135z" />
    <glyph glyph-name="udieresiscaron" unicode="&#x1da;" horiz-adv-x="1210" 
d="M1032 1052v-1052h-179v175h-10q-27 -76 -107 -134t-206 -58q-168 0 -264 82t-96 258v729h181v-680q0 -122 62.5 -175.5t166.5 -53.5q114 0 192.5 72.5t78.5 174.5v662h181zM789 1221q-47 0 -79 30.5t-32 76.5t32 76.5t79 30.5t79 -30.5t32 -76.5t-32 -76.5t-79 -30.5z
M421 1221q-47 0 -79 30.5t-32 76.5t32 76.5t79 30.5t79 -30.5t32 -76.5t-32 -76.5t-79 -30.5zM296 1907h153l154 -261h5l146 261h152l-239 -376h-121z" />
    <glyph glyph-name="Udieresisgrave" unicode="&#x1db;" horiz-adv-x="1388" 
d="M694 139q154 0 245 90.5t91 248.5v887h185v-894q0 -224 -143 -361.5t-378 -137.5t-378 137t-143 362v894h184v-887q0 -158 91 -248.5t246 -90.5zM793 1736h-157l-279 196h196zM868 1474q-45 0 -75.5 30.5t-30.5 74.5q0 43 30.5 73.5t75.5 30.5t76 -30.5t31 -73.5
q0 -44 -31 -74.5t-76 -30.5zM520 1474q-45 0 -76 30.5t-31 74.5q0 43 31 73.5t76 30.5t75.5 -30.5t30.5 -73.5q0 -44 -30.5 -74.5t-75.5 -30.5z" />
    <glyph glyph-name="udieresisgrave" unicode="&#x1dc;" horiz-adv-x="1210" 
d="M1032 1052v-1052h-179v175h-10q-27 -76 -107 -134t-206 -58q-168 0 -264 82t-96 258v729h181v-680q0 -122 62.5 -175.5t166.5 -53.5q114 0 192.5 72.5t78.5 174.5v662h181zM789 1221q-47 0 -79 30.5t-32 76.5t32 76.5t79 30.5t79 -30.5t32 -76.5t-32 -76.5t-79 -30.5z
M421 1221q-47 0 -79 30.5t-32 76.5t32 76.5t79 30.5t79 -30.5t32 -76.5t-32 -76.5t-79 -30.5zM695 1531h-138l-278 356h178z" />
    <glyph glyph-name="uni04D9" unicode="&#x4d9;" horiz-adv-x="1129" 
d="M551 1070q210 0 329.5 -125t119.5 -339v-159q0 -212 -122.5 -338t-314.5 -126q-193 0 -314.5 126.5t-121.5 337.5v126h692v54q0 126 -70.5 206.5t-197.5 80.5q-89 0 -149.5 -36t-75.5 -88h-186q7 47 35.5 94t77 90t126.5 69.5t172 26.5zM819 442h-512v-17
q0 -131 70 -209.5t186 -78.5t186 79t70 209v17z" />
    <glyph glyph-name="uni04D9" unicode="&#x259;" horiz-adv-x="1129" 
d="M551 1070q210 0 329.5 -125t119.5 -339v-159q0 -212 -122.5 -338t-314.5 -126q-193 0 -314.5 126.5t-121.5 337.5v126h692v54q0 126 -70.5 206.5t-197.5 80.5q-89 0 -149.5 -36t-75.5 -88h-186q7 47 35.5 94t77 90t126.5 69.5t172 26.5zM819 442h-512v-17
q0 -131 70 -209.5t186 -78.5t186 79t70 209v17z" />
    <glyph glyph-name="uni04D9" unicode="&#x1dd;" horiz-adv-x="1129" 
d="M551 1070q210 0 329.5 -125t119.5 -339v-159q0 -212 -122.5 -338t-314.5 -126q-193 0 -314.5 126.5t-121.5 337.5v126h692v54q0 126 -70.5 206.5t-197.5 80.5q-89 0 -149.5 -36t-75.5 -88h-186q7 47 35.5 94t77 90t126.5 69.5t172 26.5zM819 442h-512v-17
q0 -131 70 -209.5t186 -78.5t186 79t70 209v17z" />
    <glyph glyph-name="Adieresismacron" unicode="&#x1de;" horiz-adv-x="1259" 
d="M242 0h-191l483 1365h191l482 -1365h-194l-134 402h-503zM631 1152h-7l-200 -601h408zM804 1474q-45 0 -75.5 30.5t-30.5 74.5q0 43 30.5 73.5t75.5 30.5t76 -30.5t31 -73.5q0 -44 -31 -74.5t-76 -30.5zM456 1474q-45 0 -76 30.5t-31 74.5q0 43 31 73.5t76 30.5
t75.5 -30.5t30.5 -73.5q0 -44 -30.5 -74.5t-75.5 -30.5zM925 1783h-590v112h590v-112z" />
    <glyph glyph-name="adieresismacron" unicode="&#x1df;" horiz-adv-x="1117" 
d="M462 -17q-154 0 -249 88.5t-95 234.5q0 141 96 225t274 84h275v104q0 98 -58 146.5t-162 48.5q-174 0 -210 -124h-175q12 134 113.5 206.5t277.5 72.5q85 0 154 -19t124.5 -59t86.5 -109.5t31 -163.5v-718h-174v139h-8q-95 -156 -301 -156zM512 136q107 0 179 64t72 159
v118h-260q-102 0 -151 -45t-49 -120q0 -85 60.5 -130.5t148.5 -45.5zM743 1221q-47 0 -79 30.5t-32 76.5t32 76.5t79 30.5t79 -30.5t32 -76.5t-32 -76.5t-79 -30.5zM375 1221q-47 0 -79 30.5t-32 76.5t32 76.5t79 30.5t79 -30.5t32 -76.5t-32 -76.5t-79 -30.5zM857 1599
h-597v119h597v-119z" />
    <glyph glyph-name="Adotmacron" unicode="&#x1e0;" horiz-adv-x="1259" 
d="M242 0h-191l483 1365h191l482 -1365h-194l-134 402h-503zM631 1152h-7l-200 -601h408zM523 1576q0 44 31 74.5t76 30.5t76 -30.5t31 -74.5t-31 -74.5t-76 -30.5t-76 30.5t-31 74.5zM925 1774h-590v112h590v-112z" />
    <glyph glyph-name="adotmacron" unicode="&#x1e1;" horiz-adv-x="1117" 
d="M462 -17q-154 0 -249 88.5t-95 234.5q0 141 96 225t274 84h275v104q0 98 -58 146.5t-162 48.5q-174 0 -210 -124h-175q12 134 113.5 206.5t277.5 72.5q85 0 154 -19t124.5 -59t86.5 -109.5t31 -163.5v-718h-174v139h-8q-95 -156 -301 -156zM512 136q107 0 179 64t72 159
v118h-260q-102 0 -151 -45t-49 -120q0 -85 60.5 -130.5t148.5 -45.5zM446 1342q0 46 32.5 77.5t78.5 31.5t79 -31.5t33 -77.5q0 -45 -33 -76.5t-79 -31.5t-78.5 31.5t-32.5 76.5zM857 1599h-597v119h597v-119z" />
    </font>
</defs>
</svg>
